ply
format ascii 1.0
element vertex 1377
property float32 x
property float32 y
property float32 z
property float32 I
end_header
12.0285 15.5858 3.4715 0.9231
7.0656 -15.2261 2.1858 0.9345
7.0653 -15.2253 1.8024 0.9347
12.0285 15.5858 2.1141 0.9239
7.0644 -15.2234 1.0407 0.9350
12.0353 15.5945 1.2215 0.9241
17.9263 0.3995 0.7070 0.9307
17.7860 -0.3963 0.3005 0.9313
-18.7711 6.0529 0.3331 0.9241
7.0629 -15.2202 0.2834 0.9351
17.6476 -1.1814 0.2988 0.9317
17.9263 0.3995 0.3029 0.9308
11.4575 16.2986 -0.1122 0.9234
-18.5773 5.9904 -0.1099 0.9249
17.6476 -1.1814 -0.0996 0.9317
12.0353 15.5945 -0.1109 0.9242
12.8979 15.2557 -0.5625 0.9232
-18.3576 5.9196 -0.5431 0.9257
12.0353 15.5945 -0.5547 0.9242
11.4575 16.2986 -1.0104 0.9233
-18.1031 5.8375 -0.9646 0.9266
7.0607 -15.2154 -0.8507 0.9350
12.0353 15.5945 -0.9990 0.9241
-18.0280 6.7137 -0.9756 0.9258
17.7860 -0.3964 -1.3044 0.9311
11.4575 16.2986 -1.4608 0.9232
-9.2961 15.3035 -1.3129 0.9307
-10.2322 13.8873 -1.2648 0.9332
-11.3837 12.8718 -1.2599 0.9334
-12.5926 11.9100 -1.2709 0.9328
-15.2927 10.0040 -1.3399 0.9293
-17.9747 5.7961 -1.3848 0.9271
7.0599 -15.2137 -1.2298 0.9349
17.6476 -1.1814 -1.2969 0.9315
12.0353 15.5945 -1.4443 0.9240
-13.3580 11.5511 -1.2948 0.9316
-15.1518 10.9056 -1.3688 0.9279
-17.6690 8.4397 -1.4357 0.9245
-17.8014 6.6293 -1.3928 0.9266
10.4675 -13.5632 -1.6448 0.9335
10.5261 -7.9381 -1.2657 0.9484
17.7860 -0.3963 -1.7080 0.9310
-11.9160 11.2700 -1.5746 0.9362
-14.5916 9.5454 -1.6740 0.9323
-16.7924 8.9607 -1.8273 0.9264
10.6022 -12.5404 -1.5765 0.9361
10.5246 -8.6988 -1.3109 0.9466
17.6476 -1.1813 -1.6981 0.9314
17.9263 0.3995 -1.7214 0.9305
-9.0493 13.5025 -1.5605 0.9368
-11.1017 11.4791 -1.5331 0.9378
-14.4088 10.3708 -1.7044 0.9311
-17.4626 6.5031 -1.7890 0.9279
-5.6582 -10.3248 -1.3985 0.9537
10.4675 -13.5632 -2.0351 0.9333
10.4720 -11.3222 -1.8320 0.9398
10.4757 -9.4747 -1.6778 0.9447
10.5248 -7.9372 -1.5659 0.9483
17.7860 -0.3963 -2.1133 0.9308
-8.2430 16.7740 -2.2201 0.9275
-11.5123 10.8883 -1.8823 0.9382
-13.0370 10.2952 -1.9733 0.9353
-14.1244 9.2398 -2.0049 0.9343
-17.6036 5.6764 -2.1971 0.9282
-5.6192 -14.5899 -1.8572 0.9390
7.0204 -15.1286 -1.9811 0.9350
10.4923 -8.6721 -1.6169 0.9466
10.5366 -2.6354 -1.2902 0.9572
17.6476 -1.1814 -2.1010 0.9312
17.9293 0.3996 -2.1303 0.9303
-10.7438 11.1090 -1.8358 0.9396
-13.7324 9.8840 -2.0098 0.9341
-14.7268 8.7227 -2.0332 0.9334
-5.6106 -10.2380 -1.6542 0.9539
-5.3694 -16.0377 -2.3963 0.9340
-2.4408 -16.7356 -2.3963 0.9340
-0.9821 -17.6129 -2.4994 0.9312
0.5895 -17.6304 -2.4994 0.9312
2.1563 -17.5079 -2.4994 0.9312
5.2264 -16.8482 -2.4994 0.9312
7.7949 -15.0079 -2.3962 0.9340
10.4757 -9.4747 -2.0013 0.9445
10.4815 -6.5280 -1.7496 0.9513
10.4840 -5.2978 -1.6644 0.9537
10.5356 -3.1400 -1.5577 0.9566
16.9701 -1.8984 -2.4195 0.9333
16.8687 2.6525 -2.4195 0.9333
16.5657 4.1434 -2.4195 0.9333
16.1312 5.6013 -2.4195 0.9333
14.8824 8.3727 -2.4195 0.9333
14.0782 9.6641 -2.4195 0.9333
13.1621 10.8788 -2.4195 0.9333
12.1416 12.0071 -2.4195 0.9333
9.7257 13.8351 -2.3962 0.9340
7.1186 15.3403 -2.3962 0.9340
-1.6929 16.8277 -2.3963 0.9340
-8.2393 13.5638 -2.2486 0.9379
-10.1021 11.4226 -2.1606 0.9403
-11.1420 10.5380 -2.1729 0.9399
-13.6840 8.9517 -2.3169 0.9361
-5.8954 -9.7052 -1.6090 0.9552
-4.6497 -16.2609 -2.3963 0.9340
-1.6929 -16.8277 -2.3963 0.9340
1.3742 -17.5866 -2.4994 0.9312
2.9341 -17.3945 -2.4994 0.9312
4.4706 -17.0643 -2.4994 0.9312
5.9717 -16.5987 -2.4994 0.9312
8.4558 -14.6458 -2.3962 0.9340
9.7257 -13.8351 -2.3962 0.9340
10.4739 -10.3579 -2.0872 0.9422
10.4802 -7.1943 -1.8011 0.9499
10.4828 -5.8975 -1.7042 0.9526
10.5366 -2.6354 -1.5389 0.9571
13.3340 -2.0967 -1.9125 0.9469
17.0718 0.3804 -2.4195 0.9333
16.9701 1.8984 -2.4195 0.9333
16.7338 3.4013 -2.4195 0.9333
16.3647 4.8772 -2.4195 0.9333
14.4947 9.0274 -2.4195 0.9333
13.6337 10.2816 -2.4195 0.9333
11.5947 12.5361 -2.4195 0.9333
10.3324 13.3881 -2.3962 0.9340
9.0998 14.2546 -2.3962 0.9340
6.4716 15.7478 -2.4124 0.9335
0.5895 17.6304 -2.4994 0.9312
-2.4408 16.7356 -2.3963 0.9340
-3.9207 16.4519 -2.3963 0.9340
-5.3694 16.0377 -2.3963 0.9340
-5.5210 12.6269 -1.9526 0.9458
-9.8309 12.1678 -2.2164 0.9388
-10.4066 10.7603 -2.1210 0.9413
-12.0036 10.3799 -2.2485 0.9379
-16.7850 8.0175 -2.6356 0.9276
-5.8650 -5.0716 -1.2773 0.9691
-5.6069 -8.3660 -1.6591 0.9600
-5.6106 -10.2380 -1.9233 0.9538
-5.6157 -12.8436 -2.3092 0.9448
-4.6182 -13.7937 -2.3963 0.9427
-3.3721 -14.1500 -2.3963 0.9427
-2.0993 -14.3940 -2.3963 0.9427
-0.8447 -15.1485 -2.4994 0.9403
1.8546 -15.0583 -2.4994 0.9403
3.1875 -14.8334 -2.4994 0.9403
4.4951 -14.4909 -2.4994 0.9403
6.7043 -12.9080 -2.3962 0.9427
7.8266 -12.2601 -2.3962 0.9427
8.8867 -11.5149 -2.3962 0.9427
9.8763 -10.6782 -2.3962 0.9427
10.4757 -9.4747 -2.3269 0.9443
10.4788 -7.9024 -2.1621 0.9482
10.4815 -6.5280 -2.0342 0.9512
10.4862 -4.1734 -1.8593 0.9553
10.4902 -2.1322 -1.7635 0.9575
14.5957 -1.6328 -2.4195 0.9422
14.6831 -0.3272 -2.4195 0.9422
14.6540 0.9810 -2.4195 0.9422
13.8741 4.8176 -2.4195 0.9422
13.3903 6.0334 -2.4195 0.9422
11.3205 9.3567 -2.4195 0.9422
10.3422 10.2276 -2.3962 0.9427
9.3908 11.1075 -2.3962 0.9427
7.2726 12.5966 -2.3962 0.9427
6.3864 13.7624 -2.4994 0.9403
5.1362 14.2762 -2.4994 0.9403
2.5236 14.9607 -2.4994 0.9403
1.1820 15.1259 -2.4994 0.9403
-0.1690 15.1711 -2.4994 0.9403
-2.7384 14.2862 -2.3963 0.9427
-7.9259 13.0477 -2.5150 0.9400
-12.2061 9.6391 -2.5622 0.9389
-13.1388 8.5950 -2.5865 0.9383
-17.1015 7.2517 -3.0601 0.9275
-17.3922 5.6083 -3.0105 0.9286
-5.6483 -5.3421 -1.2807 0.9690
-5.6129 -11.4220 -2.0966 0.9497
-2.7384 -14.2862 -2.3963 0.9427
-1.5187 -15.0958 -2.4994 0.9403
2.5236 -14.9607 -2.4994 0.9403
3.8451 -14.6767 -2.4994 0.9403
5.1362 -14.2762 -2.4994 0.9403
7.2726 -12.5966 -2.3962 0.9427
8.3649 -11.8993 -2.3962 0.9427
10.3422 -10.2276 -2.3962 0.9427
10.4851 -4.7244 -1.8945 0.9544
10.4872 -3.6416 -1.8289 0.9560
10.4893 -2.6236 -1.7812 0.9571
14.5085 -2.2814 -2.4195 0.9422
14.6540 -0.9810 -2.4195 0.9422
14.6831 0.3272 -2.4195 0.9422
14.5957 1.6328 -2.4195 0.9422
14.0750 4.1948 -2.4195 0.9422
13.6458 5.4309 -2.4195 0.9422
12.4666 7.7643 -2.4195 0.9422
11.7261 8.8431 -2.4195 0.9422
10.8925 9.8517 -2.4195 0.9422
9.8763 10.6782 -2.3962 0.9427
7.8266 12.2601 -2.3962 0.9427
5.7670 14.0333 -2.4994 0.9403
1.8546 15.0583 -2.4994 0.9403
-0.8447 15.1485 -2.4994 0.9403
-5.5209 12.6266 -2.2703 0.9457
-7.7482 14.1387 -2.6560 0.9367
-13.7543 8.1467 -2.6335 0.9372
-16.0560 7.6693 -2.9313 0.9304
-17.0045 6.3325 -2.9893 0.9291
-5.8650 -5.0716 -1.4574 0.9689
-5.6493 -5.8413 -1.5274 0.9675
-5.6040 -6.9362 -1.6761 0.9644
-5.6106 -10.2380 -2.1944 0.9536
-4.0476 -12.0896 -2.3963 0.9494
-1.8400 -12.6157 -2.3963 0.9494
3.9398 -12.7006 -2.4994 0.9473
5.0545 -12.2995 -2.4994 0.9473
6.1292 -11.8008 -2.4994 0.9473
9.4548 -8.5514 -2.3962 0.9494
10.1784 -7.6759 -2.3962 0.9494
10.4840 -5.2978 -2.2079 0.9533
10.4902 -2.1322 -2.0121 0.9574
12.7925 -1.4311 -2.4195 0.9490
12.8691 -0.2868 -2.4195 0.9490
12.8435 0.8598 -2.4195 0.9490
12.4876 3.1234 -2.4195 0.9490
12.1601 4.2224 -2.4195 0.9490
10.6125 7.2850 -2.4195 0.9490
8.2306 9.7353 -2.3962 0.9494
6.4669 11.2009 -2.4310 0.9487
2.2118 13.1124 -2.4994 0.9473
1.0359 13.2572 -2.4994 0.9473
-0.1481 13.2968 -2.4994 0.9473
-1.3310 13.2308 -2.4994 0.9473
-2.4001 12.5212 -2.3963 0.9494
-3.5050 12.2579 -2.3963 0.9494
-4.5821 11.8973 -2.3963 0.9494
-7.6333 12.5661 -2.7635 0.9419
-8.5928 11.6623 -2.7228 0.9427
-11.6841 9.2268 -2.7984 0.9412
-12.4294 8.1310 -2.7917 0.9413
-15.3220 6.4971 -3.1282 0.9345
-5.6129 -11.4220 -2.3921 0.9495
-4.5821 -11.8973 -2.3963 0.9494
-3.5050 -12.2579 -2.3963 0.9494
-2.4001 -12.5212 -2.3963 0.9494
-1.3310 -13.2308 -2.4994 0.9473
2.2118 -13.1124 -2.4994 0.9473
4.5016 -12.5125 -2.4994 0.9473
5.5974 -12.0621 -2.4994 0.9473
7.3315 -10.4292 -2.3962 0.9494
8.2307 -9.7353 -2.3962 0.9494
9.8263 -8.1217 -2.3962 0.9494
10.4828 -5.8975 -2.2608 0.9522
10.4851 -4.7244 -2.1616 0.9543
12.8691 0.2868 -2.4195 0.9490
12.7925 1.4311 -2.4195 0.9490
12.6144 2.5640 -2.4195 0.9490
12.3361 3.6765 -2.4195 0.9490
11.9599 4.7599 -2.4195 0.9490
10.1784 7.6759 -2.3962 0.9494
6.8596 10.7454 -2.3962 0.9494
6.1292 11.8008 -2.4994 0.9473
5.0545 12.2995 -2.4994 0.9473
3.9398 12.7006 -2.4994 0.9473
2.7937 13.0008 -2.4994 0.9473
0.4444 13.2902 -2.4994 0.9473
-1.8399 12.6157 -2.3963 0.9494
-2.9555 12.4019 -2.3963 0.9494
-4.0476 12.0896 -2.3963 0.9494
-5.1076 11.6813 -2.3963 0.9494
-7.4544 13.6025 -2.9155 0.9388
-5.5131 8.2261 -1.8613 0.9605
-9.7859 10.1185 -2.6458 0.9443
-11.2352 9.7155 -2.7918 0.9413
-14.6992 7.0212 -3.0619 0.9358
-18.9026 5.1780 -3.6838 0.9233
-5.6639 -4.8978 -1.5828 0.9699
-5.6017 -5.7922 -1.7033 0.9676
-5.6040 -6.9362 -1.8849 0.9642
-5.6069 -8.3660 -2.1288 0.9597
-5.4482 -9.9417 -2.3963 0.9547
-2.6281 -11.0278 -2.3963 0.9547
-1.6361 -11.2180 -2.3963 0.9547
0.3951 -11.8177 -2.4994 0.9528
1.4454 -11.7357 -2.4994 0.9528
3.5033 -11.2935 -2.4994 0.9528
4.4945 -10.9368 -2.4994 0.9528
5.4501 -10.4934 -2.4994 0.9528
8.4073 -7.6039 -2.3962 0.9547
9.0507 -6.8255 -2.3962 0.9547
10.4862 -4.1734 -2.3857 0.9549
11.3752 -1.2725 -2.4195 0.9543
11.4433 -0.2550 -2.4195 0.9543
10.8128 3.7546 -2.4195 0.9543
9.8797 5.5582 -2.3962 0.9547
8.7377 7.2219 -2.3962 0.9547
7.3188 8.6567 -2.3962 0.9547
5.9122 10.2402 -2.4994 0.9528
4.9773 10.7258 -2.4994 0.9528
4.0029 11.1262 -2.4994 0.9528
2.9967 11.4383 -2.4994 0.9528
1.9667 11.6596 -2.4994 0.9528
0.9212 11.7884 -2.4994 0.9528
-0.1317 11.8236 -2.4994 0.9528
-8.0514 10.9274 -2.8691 0.9460
-5.5077 6.2276 -1.7574 0.9666
-11.7876 7.7111 -2.9774 0.9440
-12.8557 6.8600 -3.0801 0.9422
-15.5347 5.0093 -3.4502 0.9354
-5.6070 -5.3031 -1.6313 0.9689
-5.6086 -9.2330 -2.2835 0.9568
-4.9999 -10.1745 -2.3963 0.9547
-3.1167 -10.8998 -2.3963 0.9547
-2.1342 -11.1339 -2.3963 0.9547
-1.1836 -11.7650 -2.4994 0.9528
-0.1317 -11.8236 -2.4994 0.9528
0.9212 -11.7884 -2.4994 0.9528
1.9667 -11.6596 -2.4994 0.9528
4.9773 -10.7258 -2.4994 0.9528
5.9122 -10.2402 -2.4994 0.9528
8.0602 -7.9709 -2.3962 0.9547
8.7377 -7.2219 -2.3962 0.9547
9.3458 -6.4155 -2.3962 0.9547
10.4893 -2.6236 -2.2855 0.9568
11.4206 -0.7645 -2.4195 0.9543
11.4433 0.2550 -2.4195 0.9543
11.3752 1.2725 -2.4195 0.9543
11.2168 2.2799 -2.4195 0.9543
10.9694 3.2692 -2.4195 0.9543
9.6223 5.9928 -2.3962 0.9547
9.0507 6.8255 -2.3962 0.9547
6.9259 8.9741 -2.3962 0.9547
6.3625 9.9666 -2.4994 0.9528
5.4501 10.4934 -2.4994 0.9528
4.4945 10.9368 -2.4994 0.9528
3.5033 11.2935 -2.4994 0.9528
2.4842 11.5604 -2.4994 0.9528
1.4454 11.7357 -2.4994 0.9528
-1.6361 11.2180 -2.3963 0.9547
-3.5992 10.7502 -2.3963 0.9547
-4.5417 10.3871 -2.3963 0.9547
-5.4482 9.9417 -2.3963 0.9547
-7.7357 11.5425 -2.9371 0.9448
-8.4465 10.4544 -2.8410 0.9465
-10.5501 9.1230 -2.9482 0.9446
-13.2922 6.3492 -3.1138 0.9416
-5.5999 -4.8424 -1.7399 0.9700
-5.6069 -8.3660 -2.3669 0.9595
-4.9001 -8.9415 -2.3963 0.9590
-4.0848 -9.3422 -2.3963 0.9590
-3.2371 -9.6687 -2.3963 0.9590
-2.3637 -9.9184 -2.3963 0.9590
-1.5348 -10.5235 -2.4994 0.9572
1.3000 -10.5551 -2.4994 0.9572
3.1508 -10.1573 -2.4994 0.9572
4.9019 -9.4378 -2.4994 0.9572
5.7224 -8.9640 -2.4994 0.9572
9.7708 -2.9120 -2.3962 0.9590
8.8858 4.9991 -2.3962 0.9590
8.4056 5.7701 -2.3962 0.9590
7.2494 7.1690 -2.3962 0.9590
6.5825 7.7858 -2.3962 0.9590
0.8285 10.6025 -2.4994 0.9572
-0.1185 10.6342 -2.4994 0.9572
-1.0645 10.5814 -2.4994 0.9572
-1.9195 10.0139 -2.3963 0.9590
-2.8032 9.8033 -2.3963 0.9590
-4.4969 9.1510 -2.3963 0.9590
-7.5374 10.2299 -2.9864 0.9491
-12.5928 5.3398 -3.2147 0.9453
-17.9016 4.0560 -4.3139 0.9274
-5.2936 -8.7144 -2.3963 0.9590
-2.8032 -9.8033 -2.3963 0.9590
-1.0645 -10.5814 -2.4994 0.9572
-0.1185 -10.6342 -2.4994 0.9572
0.8285 -10.6025 -2.4994 0.9572
1.7689 -10.4867 -2.4994 0.9572
3.6002 -10.0069 -2.4994 0.9572
5.3174 -9.2100 -2.4994 0.9572
6.5825 -7.7858 -2.3962 0.9590
7.2494 -7.1690 -2.3962 0.9590
8.4056 -5.7701 -2.3962 0.9590
6.7930 -3.0608 -1.7511 0.9698
9.6314 -3.3444 -2.3962 0.9590
9.8908 -2.4739 -2.3962 0.9590
10.1727 -0.6810 -2.3962 0.9590
9.9912 2.0308 -2.3962 0.9590
9.4728 3.7701 -2.3962 0.9590
8.6543 5.3900 -2.3962 0.9590
8.1402 6.1388 -2.3962 0.9590
5.7224 8.9640 -2.4994 0.9572
4.0424 9.8366 -2.4994 0.9572
-1.5348 10.5235 -2.4994 0.9572
-2.3637 9.9184 -2.3963 0.9590
-4.9001 8.9416 -2.3963 0.9590
-8.9889 9.2945 -3.0389 0.9483
-9.7409 8.4233 -3.0266 0.9485
-5.5009 3.9593 -1.5929 0.9725
-12.1210 5.7897 -3.1570 0.9463
-15.3973 4.2178 -3.7520 0.9365
-5.5968 -3.3150 -1.6842 0.9735
-5.5982 -4.0294 -1.7859 0.9719
-5.1526 -7.6883 -2.3963 0.9625
-1.3932 -9.5523 -2.4994 0.9609
-0.5374 -9.6384 -2.4994 0.9609
0.3226 -9.6480 -2.4994 0.9609
1.1800 -9.5810 -2.4994 0.9609
5.1943 -8.1368 -2.4994 0.9609
5.8979 -7.6421 -2.4994 0.9609
6.4630 -6.9877 -2.4645 0.9614
7.3890 -5.5723 -2.3962 0.9625
7.8556 -4.8925 -2.3962 0.9625
9.1972 -1.0289 -2.3962 0.9625
9.1423 1.4376 -2.3962 0.9625
8.7425 3.0357 -2.3962 0.9625
8.4376 3.8018 -2.3962 0.9625
8.0658 4.5377 -2.3962 0.9625
7.6299 5.2376 -2.3962 0.9625
7.1334 5.8959 -2.3962 0.9625
4.0634 8.7565 -2.4994 0.9609
2.4465 9.3382 -2.4994 0.9609
-1.7424 9.0897 -2.3963 0.9625
-2.5445 8.8986 -2.3963 0.9625
-4.0819 8.3064 -2.3963 0.9625
-10.1904 6.6662 -3.1529 0.9509
-12.8562 4.1456 -3.4975 0.9457
-15.2204 3.4485 -4.0407 0.9376
-5.8370 -2.4751 -1.6416 0.9741
-5.5975 -3.6617 -1.7319 0.9727
-5.6008 -5.2972 -1.9960 0.9686
-4.8050 -7.9102 -2.3963 0.9625
-4.0819 -8.3064 -2.3963 0.9625
-3.3264 -8.6368 -2.3963 0.9625
0.7520 -9.6240 -2.4994 0.9609
1.6056 -9.5189 -2.4994 0.9609
4.8267 -8.3601 -2.4994 0.9609
6.2325 -7.3718 -2.4994 0.9609
6.5803 -6.5074 -2.3962 0.9625
7.6299 -5.2376 -2.3962 0.9625
8.0658 -4.5377 -2.3962 0.9625
8.7425 -3.0357 -2.3962 0.9625
9.1423 -1.4375 -2.3962 0.9625
9.2339 -0.6181 -2.3962 0.9625
9.2523 0.2062 -2.3962 0.9625
9.1972 1.0289 -2.3962 0.9625
8.5986 3.4221 -2.3962 0.9625
7.8556 4.8925 -2.3962 0.9625
6.8637 6.2079 -2.3962 0.9625
5.1943 8.1367 -2.4994 0.9609
4.4495 8.5668 -2.4994 0.9609
2.8601 9.2200 -2.4994 0.9609
2.0281 9.4379 -2.4994 0.9609
-1.3932 9.5523 -2.4994 0.9609
-2.1455 9.0031 -2.3963 0.9625
-2.9384 8.7764 -2.3963 0.9625
-5.1526 7.6883 -2.3963 0.9625
-5.5071 6.8163 -2.2689 0.9644
-8.2244 8.5039 -3.0631 0.9523
-8.9817 7.7668 -3.0744 0.9521
-10.5443 6.2454 -3.1731 0.9506
-5.5016 -0.0000 -1.5575 0.9774
-5.5017 -0.4917 -1.5637 0.9773
-5.5018 -0.9912 -1.5826 0.9770
-5.5944 -2.0834 -1.6900 0.9755
-5.5968 -3.3150 -1.8415 0.9733
-5.5999 -4.8424 -2.0958 0.9697
-5.6017 -5.7922 -2.2811 0.9671
-5.3198 -6.5844 -2.3963 0.9654
-4.7126 -7.0317 -2.3963 0.9654
-4.0681 -7.4232 -2.3963 0.9654
-3.3912 -7.7559 -2.3963 0.9654
-2.6874 -8.0269 -2.3963 0.9654
-1.9623 -8.2343 -2.3963 0.9654
-1.2742 -8.7366 -2.4994 0.9640
-0.4915 -8.8153 -2.4994 0.9640
0.2950 -8.8241 -2.4994 0.9640
1.0792 -8.7628 -2.4994 0.9640
3.3560 -8.1663 -2.4994 0.9640
4.7507 -7.4419 -2.4994 0.9640
5.3942 -6.9895 -2.4994 0.9640
6.4630 -5.8454 -2.4670 0.9644
7.1848 -4.4747 -2.3962 0.9654
8.2947 -1.6860 -2.3962 0.9654
8.4622 -0.1886 -2.3962 0.9654
8.4454 0.5654 -2.3962 0.9654
8.3615 1.3148 -2.3962 0.9654
8.2113 2.0538 -2.3962 0.9654
7.9959 2.7765 -2.3962 0.9654
6.5243 5.3924 -2.3962 0.9654
5.7003 6.7423 -2.4994 0.9640
4.4145 7.6461 -2.4994 0.9640
3.7164 8.0087 -2.4994 0.9640
2.9889 8.3077 -2.4994 0.9640
1.4685 8.7060 -2.4994 0.9640
0.6878 8.8022 -2.4994 0.9640
-3.0423 7.8992 -2.3963 0.9654
-3.7333 7.5971 -2.3963 0.9654
-5.0212 6.8148 -2.3963 0.9654
-8.7766 6.9308 -3.1659 0.9546
-10.1627 5.4230 -3.2610 0.9532
-11.9330 3.8479 -3.5494 0.9492
-5.5014 1.2464 -1.5969 0.9768
-5.5016 0.2453 -1.5590 0.9774
-5.5016 -0.2454 -1.5590 0.9774
-5.5017 -0.7399 -1.5715 0.9772
-5.5950 -2.3725 -1.7204 0.9751
-5.5990 -4.4215 -2.0197 0.9708
-4.3947 -7.2347 -2.3963 0.9654
-3.7333 -7.5971 -2.3963 0.9654
-3.0423 -7.8992 -2.3963 0.9654
-0.8837 -8.7847 -2.4994 0.9640
-0.0984 -8.8285 -2.4994 0.9640
1.4685 -8.7060 -2.4994 0.9640
5.0775 -7.2229 -2.4994 0.9640
5.7003 -6.7423 -2.4994 0.9640
6.2777 -6.2082 -2.4994 0.9640
6.5242 -5.3924 -2.3962 0.9654
7.3770 -4.1502 -2.3962 0.9654
8.2113 -2.0538 -2.3962 0.9654
8.4454 -0.5654 -2.3962 0.9654
8.4118 0.9410 -2.3962 0.9654
7.5545 3.8175 -2.3962 0.9654
6.7580 5.0964 -2.3962 0.9654
6.4630 5.8454 -2.4670 0.9644
5.9950 6.4817 -2.4994 0.9640
5.3943 6.9895 -2.4994 0.9640
4.0695 7.8352 -2.4994 0.9640
3.3560 8.1663 -2.4994 0.9640
2.6158 8.4326 -2.4994 0.9640
1.8549 8.6320 -2.4994 0.9640
1.0792 8.7628 -2.4994 0.9640
-0.4915 8.8153 -2.4994 0.9640
-1.2742 8.7366 -2.4994 0.9640
-1.9623 8.2343 -2.3963 0.9654
-2.6874 8.0269 -2.3963 0.9654
-3.3912 7.7559 -2.3963 0.9654
-5.3198 6.5844 -2.3963 0.9654
-5.5079 4.7629 -2.0614 0.9702
-9.1322 6.5729 -3.1853 0.9543
-10.5746 5.0511 -3.3176 0.9524
-5.5015 0.4916 -1.5636 0.9773
-5.5088 -0.0000 -1.6944 0.9772
-18.9033 -1.6893 -5.8374 0.9236
-5.5944 -2.0834 -1.8362 0.9753
-5.5956 -2.6728 -1.9073 0.9744
-5.5968 -3.3150 -2.0008 0.9731
-5.5999 -4.8424 -2.2771 0.9695
-4.3375 -6.4719 -2.3963 0.9679
-3.7442 -6.8323 -2.3963 0.9679
-3.1212 -7.1385 -2.3963 0.9679
-2.4735 -7.3879 -2.3963 0.9679
-1.1728 -8.0411 -2.4994 0.9666
-0.4524 -8.1136 -2.4994 0.9666
0.2715 -8.1216 -2.4994 0.9666
3.0888 -7.5162 -2.4994 0.9666
4.3725 -6.8495 -2.4994 0.9666
4.9648 -6.4331 -2.4994 0.9666
5.5177 -5.9657 -2.4994 0.9666
6.4630 -4.8740 -2.4898 0.9667
6.6128 -4.1185 -2.3962 0.9679
7.7885 -0.1736 -2.3962 0.9679
7.6959 1.2101 -2.3962 0.9679
7.5577 1.8903 -2.3962 0.9679
6.7897 3.8198 -2.3962 0.9679
6.2636 5.1770 -2.4994 0.9666
4.0631 7.0375 -2.4994 0.9666
3.4206 7.3712 -2.4994 0.9666
1.3516 8.0130 -2.4994 0.9666
-0.0905 8.1256 -2.4994 0.9666
-0.8134 8.0854 -2.4994 0.9666
-1.5298 7.9809 -2.4994 0.9666
-2.8001 7.2704 -2.3963 0.9679
-3.4361 6.9923 -2.3963 0.9679
-4.0448 6.6587 -2.3963 0.9679
-5.1614 5.8361 -2.3963 0.9679
-7.4646 7.0600 -3.1602 0.9579
-10.3708 4.3976 -3.4648 0.9540
-18.8666 0.8413 -5.8087 0.9240
-5.5950 -2.3725 -1.8692 0.9749
-5.6008 -5.2972 -2.3711 0.9683
-5.1614 -5.8361 -2.3963 0.9679
-4.0448 -6.6587 -2.3963 0.9679
-0.8134 -8.0853 -2.4994 0.9666
-0.0905 -8.1256 -2.4994 0.9666
0.6331 -8.1014 -2.4994 0.9666
2.0595 -7.8609 -2.4994 0.9666
2.7509 -7.6463 -2.4994 0.9666
3.4206 -7.3712 -2.4994 0.9666
4.6733 -6.6479 -2.4994 0.9666
5.7780 -5.7140 -2.4994 0.9666
6.2636 -5.1770 -2.4994 0.9666
6.7897 -3.8198 -2.3962 0.9679
7.5577 -1.8903 -2.3962 0.9679
7.7885 0.1736 -2.3962 0.9679
7.6344 1.5518 -2.3962 0.9679
7.4659 2.2251 -2.3962 0.9679
7.2383 2.8808 -2.3962 0.9679
6.9531 3.5136 -2.3962 0.9679
6.4630 4.8740 -2.4898 0.9667
6.0268 5.4509 -2.4994 0.9666
5.5177 5.9657 -2.4994 0.9666
4.3725 6.8495 -2.4994 0.9666
3.7455 7.2115 -2.4994 0.9666
2.4076 7.7613 -2.4994 0.9666
1.7072 7.9448 -2.4994 0.9666
0.9933 8.0652 -2.4994 0.9666
0.2715 8.1216 -2.4994 0.9666
-2.4735 7.3879 -2.3963 0.9679
-3.7442 6.8323 -2.3963 0.9679
-4.3375 6.4719 -2.3963 0.9679
-5.4162 5.6004 -2.3963 0.9679
-7.8553 6.7927 -3.1942 0.9575
-8.5779 6.1740 -3.2507 0.9567
-9.9890 4.7713 -3.4049 0.9547
-10.7685 4.0102 -3.5344 0.9530
-11.7825 3.2276 -3.7576 0.9502
-18.7729 1.6776 -5.7972 0.9242
-5.5944 -2.0834 -1.9844 0.9752
-5.5968 -3.3150 -2.1623 0.9730
-5.5982 -4.0294 -2.2928 0.9713
-5.0117 -5.1821 -2.3963 0.9701
-3.4646 -6.3220 -2.3963 0.9701
-2.2887 -6.8361 -2.3963 0.9701
-1.0852 -7.4405 -2.4994 0.9688
-0.4186 -7.5076 -2.4994 0.9688
0.2513 -7.5150 -2.4994 0.9688
0.9191 -7.4628 -2.4994 0.9688
1.5797 -7.3514 -2.4994 0.9688
2.2278 -7.1816 -2.4994 0.9688
2.8581 -6.9548 -2.4994 0.9688
3.4658 -6.6729 -2.4994 0.9688
4.0460 -6.3379 -2.4994 0.9688
4.5940 -5.9526 -2.4994 0.9688
5.1056 -5.5201 -2.4994 0.9688
6.0034 -4.5274 -2.4994 0.9688
6.3826 -3.9751 -2.4994 0.9688
6.4721 -3.2705 -2.4105 0.9699
6.9083 -2.0589 -2.3962 0.9701
7.2068 -0.1606 -2.3962 0.9701
7.1211 1.1198 -2.3962 0.9701
6.8097 2.3646 -2.3962 0.9701
6.5723 2.9613 -2.3962 0.9701
6.4630 3.6360 -2.4650 0.9692
4.3243 6.1514 -2.4994 0.9688
2.5455 7.0753 -2.4994 0.9688
1.9056 7.2737 -2.4994 0.9688
1.2507 7.4145 -2.4994 0.9688
0.5858 7.4964 -2.4994 0.9688
-0.0838 7.5187 -2.4994 0.9688
-0.7526 7.4814 -2.4994 0.9688
-1.4155 7.3847 -2.4994 0.9688
-1.9819 6.9313 -2.3963 0.9701
-3.1795 6.4701 -2.3963 0.9701
-4.2763 5.8038 -2.3963 0.9701
-4.7759 5.4002 -2.3963 0.9701
-5.2376 4.9537 -2.3963 0.9701
-8.3894 5.4881 -3.3324 0.9586
-10.5664 3.4072 -3.6904 0.9543
-18.5156 0.8256 -6.1608 0.9248
-18.8452 -0.8404 -6.2705 0.9236
-5.5950 -2.3725 -2.0201 0.9747
-5.5975 -3.6617 -2.2234 0.9722
-5.5990 -4.4215 -2.3715 0.9704
-5.2376 -4.9537 -2.3963 0.9701
-4.7759 -5.4002 -2.3963 0.9701
-3.7427 -6.1614 -2.3963 0.9701
-3.1795 -6.4701 -2.3963 0.9701
0.5858 -7.4964 -2.4994 0.9688
1.2507 -7.4145 -2.4994 0.9688
1.9056 -7.2737 -2.4994 0.9688
3.7596 -6.5118 -2.4994 0.9688
5.3464 -5.2872 -2.4994 0.9688
5.7958 -4.7904 -2.4994 0.9688
6.1992 -4.2555 -2.4994 0.9688
6.5723 -2.9613 -2.3962 0.9701
6.8097 -2.3646 -2.3962 0.9701
6.9932 -1.7491 -2.3962 0.9701
7.1211 -1.1197 -2.3962 0.9701
7.2068 0.1606 -2.3962 0.9701
6.4721 3.2705 -2.4104 0.9699
6.3826 3.9751 -2.4994 0.9688
6.0034 4.5274 -2.4994 0.9688
5.5766 5.0438 -2.4994 0.9688
5.1056 5.5201 -2.4994 0.9688
4.0460 6.3379 -2.4994 0.9688
3.4658 6.6729 -2.4994 0.9688
2.8581 6.9548 -2.4994 0.9688
1.5797 7.3514 -2.4994 0.9688
0.2513 7.5150 -2.4994 0.9688
-0.4186 7.5076 -2.4994 0.9688
-1.0852 7.4405 -2.4994 0.9688
-1.6712 7.0127 -2.3963 0.9701
-2.2887 6.8361 -2.3963 0.9701
-2.8881 6.6053 -2.3963 0.9701
-3.4646 6.3220 -2.3963 0.9701
-4.5306 5.6076 -2.3963 0.9701
-5.4530 4.7154 -2.3963 0.9701
-8.7476 5.1812 -3.3795 0.9580
-9.4579 4.5177 -3.4841 0.9568
-5.5084 2.0513 -1.9539 0.9755
-18.5245 1.6553 -6.1822 0.9246
-18.4631 -1.6499 -6.6289 0.9243
-5.5944 -2.0834 -2.1348 0.9750
-5.5968 -3.3150 -2.3262 0.9727
-4.6585 -4.8169 -2.3963 0.9719
-4.2113 -5.2124 -2.3963 0.9719
-3.2204 -5.8765 -2.3963 0.9719
-2.6846 -6.1398 -2.3963 0.9719
-2.1274 -6.3544 -2.3963 0.9719
-1.0087 -6.9161 -2.4994 0.9707
0.2335 -6.9854 -2.4994 0.9707
1.4684 -6.8333 -2.4994 0.9707
3.2215 -6.2026 -2.4994 0.9707
3.7608 -5.8912 -2.4994 0.9707
4.7458 -5.1311 -2.4994 0.9707
5.9328 -3.6950 -2.4994 0.9707
6.2381 -3.1523 -2.4994 0.9707
6.5663 -1.3347 -2.3962 0.9719
6.6989 -0.1493 -2.3962 0.9719
6.6856 0.4475 -2.3962 0.9719
6.6193 1.0408 -2.3962 0.9719
5.7623 3.9556 -2.4994 0.9707
5.3873 4.4528 -2.4994 0.9707
4.0195 5.7179 -2.4994 0.9707
3.4947 6.0529 -2.4994 0.9707
2.9420 6.3399 -2.4994 0.9707
2.3661 6.5767 -2.4994 0.9707
1.7713 6.7611 -2.4994 0.9707
0.5445 6.9681 -2.4994 0.9707
-0.0779 6.9889 -2.4994 0.9707
-0.6996 6.9542 -2.4994 0.9707
-1.3158 6.8644 -2.4994 0.9707
-2.9554 6.0141 -2.3963 0.9719
-3.4790 5.7272 -2.3963 0.9719
-4.4393 5.0196 -2.3963 0.9719
-4.8685 4.6046 -2.3963 0.9719
-5.2590 4.1530 -2.3963 0.9719
-8.6416 4.6113 -3.5027 0.9592
-9.2973 3.9424 -3.6113 0.9580
-10.0513 3.2411 -3.7766 0.9561
-13.0744 1.7583 -4.7176 0.9455
-5.5950 -2.3725 -2.1732 0.9745
-4.8685 -4.6046 -2.3963 0.9719
-4.4393 -5.0196 -2.3963 0.9719
-3.9749 -5.3948 -2.3963 0.9719
-1.3158 -6.8643 -2.4994 0.9707
-0.6996 -6.9542 -2.4994 0.9707
2.3661 -6.5767 -2.4994 0.9707
2.9420 -6.3399 -2.4994 0.9707
3.4947 -6.0529 -2.4994 0.9707
4.0195 -5.7179 -2.4994 0.9707
4.5125 -5.3374 -2.4994 0.9707
5.3873 -4.4528 -2.4994 0.9707
6.0915 -3.4270 -2.4994 0.9707
6.3723 -2.8712 -2.4994 0.9707
6.4630 -2.2442 -2.4466 0.9714
6.6856 -0.4475 -2.3962 0.9719
6.6750 0.7467 -2.4019 0.9719
6.5663 1.3347 -2.3962 0.9719
6.4710 1.9286 -2.4147 0.9717
6.2381 3.1522 -2.4994 0.9707
5.5804 4.2083 -2.4994 0.9707
5.1836 4.6883 -2.4994 0.9707
4.2703 5.5331 -2.4994 0.9707
3.7608 5.8912 -2.4994 0.9707
2.6567 6.4647 -2.4994 0.9707
2.0708 6.6755 -2.4994 0.9707
0.8544 6.9369 -2.4994 0.9707
-1.5837 6.6455 -2.4430 0.9714
-3.2204 5.8765 -2.3963 0.9719
-3.7307 5.5665 -2.3963 0.9719
-5.4388 3.9146 -2.3963 0.9719
-5.5078 3.2623 -2.2892 0.9732
-5.5205 -0.0000 -2.1155 0.9766
-5.5944 -2.0834 -2.2877 0.9748
-5.5956 -2.6728 -2.3764 0.9738
-5.3803 -3.1867 -2.3963 0.9736
-4.7300 -4.0902 -2.3963 0.9736
-3.4813 -5.1945 -2.3963 0.9736
-1.9853 -5.9297 -2.3963 0.9736
-1.5120 -6.3445 -2.4994 0.9724
-0.9413 -6.4539 -2.4994 0.9724
0.2179 -6.5186 -2.4994 0.9724
1.3703 -6.3767 -2.4994 0.9724
1.9324 -6.2294 -2.4994 0.9724
3.0062 -5.7881 -2.4994 0.9724
3.5095 -5.4975 -2.4994 0.9724
4.8372 -4.3750 -2.4994 0.9724
5.2074 -3.9271 -2.4994 0.9724
5.5363 -3.4480 -2.4994 0.9724
5.8212 -2.9416 -2.4994 0.9724
6.2505 -1.8628 -2.4994 0.9724
6.3915 -1.2991 -2.4994 0.9724
6.3273 1.5826 -2.4994 0.9724
6.1613 2.1394 -2.4994 0.9724
5.9465 2.6794 -2.4994 0.9724
5.3772 3.6912 -2.4994 0.9724
2.7454 5.9162 -2.4994 0.9724
1.6530 6.3093 -2.4994 0.9724
0.5081 6.5024 -2.4994 0.9724
-0.0727 6.5218 -2.4994 0.9724
-0.6528 6.4895 -2.4994 0.9724
-1.7192 6.0122 -2.3963 0.9736
-2.7579 5.6122 -2.3963 0.9736
-3.2465 5.3444 -2.3963 0.9736
-4.5431 4.2968 -2.3963 0.9736
-5.5014 1.2464 -2.1617 0.9761
-18.5164 -0.8257 -7.1029 0.9237
-5.6915 -1.8353 -2.2917 0.9747
-5.5950 -2.3725 -2.3289 0.9743
-4.9075 -3.8754 -2.3963 0.9736
-3.7093 -5.0343 -2.3963 0.9736
-3.2465 -5.3444 -2.3963 0.9736
-2.7579 -5.6122 -2.3963 0.9736
-1.7192 -6.0122 -2.3963 0.9736
-0.6528 -6.4895 -2.4994 0.9724
-0.0727 -6.5218 -2.4994 0.9724
0.5081 -6.5024 -2.4994 0.9724
2.2080 -6.1371 -2.4994 0.9724
2.7454 -5.9162 -2.4994 0.9724
3.2611 -5.6484 -2.4994 0.9724
3.7509 -5.3357 -2.4994 0.9724
4.2109 -4.9807 -2.4994 0.9724
4.6375 -4.5861 -2.4994 0.9724
5.0273 -4.1552 -2.4994 0.9724
5.3772 -3.6912 -2.4994 0.9724
5.6844 -3.1980 -2.4994 0.9724
5.9465 -2.6793 -2.4994 0.9724
6.1613 -2.1395 -2.4994 0.9724
6.3273 -1.5826 -2.4994 0.9724
6.4430 -1.0131 -2.4994 0.9724
6.4630 -0.4327 -2.4823 0.9726
6.4630 0.1440 -2.4773 0.9727
6.4630 0.7230 -2.4922 0.9725
6.2505 1.8629 -2.4994 0.9724
5.5363 3.4480 -2.4994 0.9724
5.2074 3.9271 -2.4994 0.9724
4.8372 4.3750 -2.4994 0.9724
4.4286 4.7882 -2.4994 0.9724
3.9849 5.1634 -2.4994 0.9724
3.5095 5.4975 -2.4994 0.9724
3.0063 5.7881 -2.4994 0.9724
0.2179 6.5186 -2.4994 0.9724
-1.5120 6.3446 -2.4994 0.9724
-3.0052 5.4837 -2.3963 0.9736
-3.9298 4.8640 -2.3963 0.9736
-9.1461 3.4061 -3.7401 0.9591
-14.0867 1.2588 -5.4198 0.9412
-5.4870 -2.0434 -2.3963 0.9750
-5.0377 -2.9838 -2.3963 0.9750
-4.7522 -3.4204 -2.3963 0.9750
-4.4289 -3.8298 -2.3963 0.9750
-3.2597 -4.8638 -2.3963 0.9750
-1.4157 -5.9406 -2.4994 0.9740
0.2041 -6.1036 -2.4994 0.9740
1.2830 -5.9707 -2.4994 0.9740
2.3213 -5.6486 -2.4994 0.9740
2.8149 -5.4196 -2.4994 0.9740
3.2861 -5.1475 -2.4994 0.9740
3.7312 -4.8346 -2.4994 0.9740
4.5292 -4.0965 -2.4994 0.9740
4.8759 -3.6771 -2.4994 0.9740
5.4506 -2.7543 -2.4994 0.9740
5.8526 -1.7443 -2.4994 0.9740
6.0691 -0.6789 -2.4994 0.9740
6.1055 -0.1361 -2.4994 0.9740
6.0328 0.9486 -2.4994 0.9740
5.9245 1.4818 -2.4994 0.9740
5.7691 2.0032 -2.4994 0.9740
5.5679 2.5088 -2.4994 0.9740
5.3225 2.9944 -2.4994 0.9740
5.0348 3.4562 -2.4994 0.9740
3.9428 4.6636 -2.4994 0.9740
2.5706 5.5396 -2.4994 0.9740
1.0158 6.0219 -2.4994 0.9740
0.4758 6.0884 -2.4994 0.9740
-0.6113 6.0763 -2.4994 0.9740
-1.6097 5.6295 -2.3963 0.9750
-2.1044 5.4639 -2.3963 0.9750
-2.5823 5.2549 -2.3963 0.9750
-3.0398 5.0042 -2.3963 0.9750
-3.4731 4.7137 -2.3963 0.9750
-3.8789 4.3859 -2.3963 0.9750
-5.3905 2.2858 -2.3963 0.9750
-1.6146 0.3658 -0.6776 0.9929
-1.6301 0.2192 -0.6732 0.9929
-18.1901 0.8111 -7.4521 0.9243
-5.3905 -2.2858 -2.3963 0.9750
-4.8998 -3.2053 -2.3963 0.9750
-3.8789 -4.3859 -2.3963 0.9750
-3.4731 -4.7137 -2.3963 0.9750
-3.0398 -5.0042 -2.3963 0.9750
-1.6097 -5.6295 -2.3963 0.9750
-1.1497 -5.9978 -2.4994 0.9740
-0.6113 -6.0763 -2.4994 0.9740
1.5477 -5.9076 -2.4994 0.9740
2.0674 -5.7464 -2.4994 0.9740
3.0535 -5.2888 -2.4994 0.9740
4.3423 -4.2941 -2.4994 0.9740
4.7072 -3.8906 -2.4994 0.9740
5.9245 -1.4818 -2.4994 0.9740
6.0328 -0.9486 -2.4994 0.9740
6.0933 -0.4079 -2.4994 0.9740
6.1055 0.1361 -2.4994 0.9740
5.9846 1.2164 -2.4994 0.9740
5.8526 1.7443 -2.4994 0.9740
5.6741 2.2582 -2.4994 0.9740
5.4506 2.7543 -2.4994 0.9740
4.8759 3.6771 -2.4994 0.9740
4.1467 4.4833 -2.4994 0.9740
3.2861 5.1475 -2.4994 0.9740
2.8149 5.4196 -2.4994 0.9740
1.8093 5.8328 -2.4994 0.9740
1.2830 5.9707 -2.4994 0.9740
0.7465 6.0612 -2.4994 0.9740
0.2041 6.1036 -2.4994 0.9740
-0.8813 6.0430 -2.4994 0.9740
-2.3457 5.3647 -2.3963 0.9750
-2.8138 5.1346 -2.3963 0.9750
-3.6797 4.5544 -2.3963 0.9750
-4.0704 4.2088 -2.3963 0.9750
-4.4289 3.8298 -2.3963 0.9750
-4.7522 3.4204 -2.3963 0.9750
-5.0377 2.9838 -2.3963 0.9750
-5.4870 2.0434 -2.3963 0.9750
-1.6035 0.4392 -0.6804 0.9928
-1.5215 -0.1360 -0.6657 0.9934
-1.5015 -0.2705 -0.6649 0.9934
-1.5001 -0.4109 -0.6779 0.9932
-5.1528 -1.9189 -2.3963 0.9763
-4.9615 -2.3699 -2.3963 0.9763
-4.7309 -2.8021 -2.3963 0.9763
-4.4627 -3.2121 -2.3963 0.9763
-4.1591 -3.5965 -2.3963 0.9763
-3.4556 -4.2770 -2.3963 0.9763
-1.3295 -5.5788 -2.4994 0.9753
-0.8277 -5.6750 -2.4994 0.9753
-0.3193 -5.7262 -2.4994 0.9753
0.1916 -5.7318 -2.4994 0.9753
1.6992 -5.4776 -2.4994 0.9753
4.8681 -3.0319 -2.4994 0.9753
5.4961 -1.6380 -2.4994 0.9753
5.6201 -1.1423 -2.4994 0.9753
5.6995 -0.6376 -2.4994 0.9753
5.7336 -0.1278 -2.4994 0.9753
5.7222 0.3830 -2.4994 0.9753
5.6654 0.8908 -2.4994 0.9753
4.9983 2.8120 -2.4994 0.9753
4.4206 3.6537 -2.4994 0.9753
4.0778 4.0326 -2.4994 0.9753
3.7027 4.3796 -2.4994 0.9753
2.8675 4.9667 -2.4994 0.9753
2.4141 5.2022 -2.4994 0.9753
0.9539 5.6552 -2.4994 0.9753
0.4468 5.7176 -2.4994 0.9753
-0.0639 5.7347 -2.4994 0.9753
-1.5767 5.5141 -2.4994 0.9753
-2.4251 4.9348 -2.3963 0.9763
-3.2616 4.4267 -2.3963 0.9763
-3.6427 4.1188 -2.3963 0.9763
-3.9948 3.7782 -2.3963 0.9763
-4.3152 3.4077 -2.3963 0.9763
-4.6014 3.0101 -2.3963 0.9763
-4.8510 2.5886 -2.3963 0.9763
-1.5259 -0.0680 -0.6657 0.9934
-1.5133 -0.2035 -0.6654 0.9934
-1.4861 -0.4792 -0.6805 0.9932
-4.3152 -3.4077 -2.3963 0.9763
-3.9948 -3.7782 -2.3963 0.9763
-3.6427 -4.1188 -2.3963 0.9763
-2.4251 -4.9348 -2.3963 0.9763
-1.9762 -5.1311 -2.3963 0.9763
-0.5741 -5.7062 -2.4994 0.9753
-0.0639 -5.7347 -2.4994 0.9753
0.4468 -5.7176 -2.4994 0.9753
1.4535 -5.5478 -2.4994 0.9753
1.9415 -5.3964 -2.4994 0.9753
2.4141 -5.2022 -2.4994 0.9753
3.2982 -4.6918 -2.4994 0.9753
3.7027 -4.3796 -2.4994 0.9753
4.0778 -4.0327 -2.4994 0.9753
4.7282 -3.2457 -2.4994 0.9753
4.9983 -2.8120 -2.4994 0.9753
5.2288 -2.3560 -2.4994 0.9753
5.4177 -1.8812 -2.4994 0.9753
5.5637 -1.3916 -2.4994 0.9753
5.7336 0.1278 -2.4994 0.9753
5.6201 1.1423 -2.4994 0.9753
5.3285 2.1207 -2.4994 0.9753
4.5789 3.4531 -2.4994 0.9753
3.5039 4.5402 -2.4994 0.9753
2.6434 5.0895 -2.4994 0.9753
1.6992 5.4776 -2.4994 0.9753
0.7010 5.6920 -2.4994 0.9753
0.1916 5.7318 -2.4994 0.9753
-1.3295 5.5788 -2.4994 0.9753
-1.7457 5.2140 -2.3963 0.9763
-2.6425 4.8219 -2.3963 0.9763
-3.4556 4.2770 -2.3963 0.9763
-4.1591 3.5965 -2.3963 0.9763
-4.7309 2.8021 -2.3963 0.9763
-4.9615 2.3699 -2.3963 0.9763
-5.1528 1.9189 -2.3963 0.9763
-1.5001 0.4109 -0.6779 0.9932
-1.5215 0.1360 -0.6657 0.9934
-1.3946 -0.3820 -0.6693 0.9936
-4.4543 -2.6383 -2.3963 0.9774
-3.5990 -3.7213 -2.3963 0.9774
-2.0740 -4.7434 -2.3963 0.9774
-0.3006 -5.3913 -2.4994 0.9765
1.1344 -5.2792 -2.4994 0.9765
1.5998 -5.1573 -2.4994 0.9765
2.0525 -4.9944 -2.4994 0.9765
3.2990 -4.2747 -2.4994 0.9765
4.0047 -3.6220 -2.4994 0.9765
4.3112 -3.2512 -2.4994 0.9765
4.5834 -2.8546 -2.4994 0.9765
5.0169 -1.9967 -2.4994 0.9765
5.2915 -1.0755 -2.4994 0.9765
5.3983 -0.1203 -2.4994 0.9765
5.1009 1.7712 -2.4994 0.9765
4.7060 2.6476 -2.4994 0.9765
4.4517 3.0559 -2.4994 0.9765
3.8394 3.7968 -2.4994 0.9765
3.4862 4.1235 -2.4994 0.9765
3.1053 4.4174 -2.4994 0.9765
2.2729 4.8980 -2.4994 0.9765
1.8279 5.0809 -2.4994 0.9765
1.3685 5.2234 -2.4994 0.9765
0.8981 5.3245 -2.4994 0.9765
-0.0602 5.3993 -2.4994 0.9765
-0.5405 5.3726 -2.4994 0.9765
-1.0165 5.3031 -2.4994 0.9765
-1.4845 5.1916 -2.4994 0.9765
-2.2832 4.6463 -2.3963 0.9774
-2.6877 4.4246 -2.3963 0.9774
-2.2022 2.9888 -1.7185 0.9838
-3.4296 3.8780 -2.3963 0.9774
-4.3323 2.8341 -2.3963 0.9774
-4.7662 2.0210 -2.3963 0.9774
-1.3967 0.3165 -0.6629 0.9937
-1.4212 0.0634 -0.6585 0.9937
-1.4212 -0.0634 -0.6585 0.9937
-1.4099 -0.1896 -0.6585 0.9937
-1.3890 -0.4479 -0.6755 0.9936
-4.5674 -2.4372 -2.3963 0.9774
-4.0629 -3.2084 -2.3963 0.9774
-3.7612 -3.5573 -2.3963 0.9774
-3.0709 -4.1678 -2.3963 0.9774
-2.6877 -4.4246 -2.3963 0.9774
-2.2832 -4.6463 -2.3963 0.9774
-1.8606 -4.8311 -2.3963 0.9774
-1.4845 -5.1916 -2.4994 0.9765
1.8279 -5.0809 -2.4994 0.9765
2.2729 -4.8980 -2.4994 0.9765
3.8394 -3.7968 -2.4994 0.9765
4.1621 -3.4400 -2.4994 0.9765
4.7060 -2.6476 -2.4994 0.9765
5.1009 -1.7712 -2.4994 0.9765
5.2383 -1.3102 -2.4994 0.9765
5.3341 -0.8388 -2.4994 0.9765
5.3983 0.1203 -2.4994 0.9765
5.1748 1.5422 -2.4994 0.9765
4.8193 2.4353 -2.4994 0.9765
4.5834 2.8546 -2.4994 0.9765
4.0047 3.6220 -2.4994 0.9765
3.6664 3.9641 -2.4994 0.9765
3.2990 4.2747 -2.4994 0.9765
2.9055 4.5513 -2.4994 0.9765
1.5998 5.1572 -2.4994 0.9765
1.1344 5.2792 -2.4994 0.9765
0.6600 5.3592 -2.4994 0.9765
-0.7793 5.3431 -2.4994 0.9765
-1.6436 4.9091 -2.3963 0.9774
-2.4880 4.5400 -2.3963 0.9774
-2.0668 3.0839 -1.7185 0.9838
-3.2535 4.0269 -2.3963 0.9774
-3.5990 3.7213 -2.3963 0.9774
-4.6714 2.2313 -2.3963 0.9774
-1.3993 0.2521 -0.6581 0.9938
-1.4172 0.1266 -0.6586 0.9937
-1.3317 -0.1190 -0.6558 0.9941
-1.3159 -0.2371 -0.6559 0.9941
-1.2931 -0.4815 -0.6768 0.9939
-3.3962 -3.5116 -2.3963 0.9785
-3.0702 -3.8000 -2.3963 0.9785
-2.0470 -3.0543 -1.8036 0.9838
-1.9571 -4.4761 -2.3963 0.9785
-1.5830 -4.7283 -2.4459 0.9780
-1.1812 -4.9566 -2.4994 0.9776
-0.7354 -5.0421 -2.4994 0.9776
0.1703 -5.0926 -2.4994 0.9776
1.5097 -4.8667 -2.4994 0.9776
1.9368 -4.7130 -2.4994 0.9776
2.7418 -4.2949 -2.4994 0.9776
3.7790 -3.4179 -2.4994 0.9776
4.3252 -2.6937 -2.4994 0.9776
4.7343 -1.8842 -2.4994 0.9776
4.8832 -1.4554 -2.4994 0.9776
4.9933 -1.0149 -2.4994 0.9776
5.0942 -0.1135 -2.4994 0.9776
4.9432 1.2364 -2.4994 0.9776
4.4409 2.4984 -2.4994 0.9776
4.2009 2.8837 -2.4994 0.9776
3.9275 3.2462 -2.4994 0.9776
3.2898 3.8911 -2.4994 0.9776
2.9304 4.1685 -2.4994 0.9776
2.5477 4.4128 -2.4994 0.9776
1.7250 4.7946 -2.4994 0.9776
0.8475 5.0245 -2.4994 0.9776
-0.9592 5.0043 -2.4994 0.9776
-1.4009 4.8991 -2.4994 0.9776
-2.1546 4.3845 -2.3963 0.9785
-2.5363 4.1753 -2.3963 0.9785
-2.1815 2.9608 -1.8040 0.9837
-3.5493 3.3569 -2.3963 0.9785
-4.3100 2.2999 -2.3963 0.9785
-4.4976 1.9071 -2.3963 0.9785
-1.3089 0.2966 -0.6583 0.9940
-1.3355 0.0596 -0.6558 0.9941
-1.3355 -0.0596 -0.6558 0.9941
-1.3089 -0.2966 -0.6583 0.9940
-3.8340 -3.0276 -2.3963 0.9785
-3.5493 -3.3569 -2.3963 0.9785
-2.5363 -4.1753 -2.3963 0.9785
-2.1546 -4.3845 -2.3963 0.9785
-1.7710 -4.5982 -2.4170 0.9783
-1.4009 -4.8991 -2.4994 0.9776
-0.5100 -5.0698 -2.4994 0.9776
1.7249 -4.7946 -2.4994 0.9776
2.1448 -4.6220 -2.4994 0.9776
2.5477 -4.4128 -2.4994 0.9776
2.9304 -4.1685 -2.4994 0.9776
3.6230 -3.5829 -2.4994 0.9776
3.9275 -3.2462 -2.4994 0.9776
4.8135 -1.6714 -2.4994 0.9776
4.9432 -1.2364 -2.4994 0.9776
5.0336 -0.7915 -2.4994 0.9776
5.0638 0.5665 -2.4994 0.9776
4.9933 1.0149 -2.4994 0.9776
4.7343 1.8842 -2.4994 0.9776
4.5478 2.2981 -2.4994 0.9776
4.3252 2.6937 -2.4994 0.9776
2.7418 4.2949 -2.4994 0.9776
2.3486 4.5219 -2.4994 0.9776
1.0705 4.9817 -2.4994 0.9776
0.6229 5.0572 -2.4994 0.9776
-0.7354 5.0421 -2.4994 0.9776
-1.1812 4.9566 -2.4994 0.9776
-1.5829 4.7280 -2.4457 0.9780
-2.0410 3.0454 -1.7983 0.9838
-1.2931 0.4815 -0.6768 0.9939
-1.3061 0.3578 -0.6642 0.9940
-1.3159 0.2371 -0.6559 0.9941
-1.3317 0.1190 -0.6558 0.9941
-1.2624 0.0000 -0.6549 0.9943
-1.2283 -0.3365 -0.6607 0.9943
-1.2162 -0.4529 -0.6733 0.9942
-4.1681 -1.9909 -2.3963 0.9794
-3.4940 -3.0214 -2.3963 0.9794
-1.5296 -4.5687 -2.4994 0.9785
-1.1169 -4.6867 -2.4994 0.9785
-0.6953 -4.7675 -2.4994 0.9785
-0.2682 -4.8104 -2.4994 0.9785
0.1610 -4.8152 -2.4994 0.9785
1.0122 -4.7104 -2.4994 0.9785
1.4274 -4.6016 -2.4994 0.9785
1.8313 -4.4563 -2.4994 0.9785
2.5924 -4.0610 -2.4994 0.9785
3.5732 -3.2318 -2.4994 0.9785
3.8467 -2.9009 -2.4994 0.9785
4.3001 -2.1729 -2.4994 0.9785
4.4764 -1.7816 -2.4994 0.9785
4.8167 -0.1073 -2.4994 0.9785
4.8071 0.3218 -2.4994 0.9785
4.6739 1.1690 -2.4994 0.9785
4.5513 1.5804 -2.4994 0.9785
4.1990 2.3623 -2.4994 0.9785
3.7136 3.0694 -2.4994 0.9785
3.4257 3.3877 -2.4994 0.9785
3.1106 3.6792 -2.4994 0.9785
2.4090 4.1724 -2.4994 0.9785
2.0280 4.3703 -2.4994 0.9785
0.8014 4.7508 -2.4994 0.9785
0.3753 4.8033 -2.4994 0.9785
-0.0537 4.8176 -2.4994 0.9785
-0.4822 4.7937 -2.4994 0.9785
-1.3246 4.6322 -2.4994 0.9785
-1.6602 4.3105 -2.3963 0.9794
-3.0601 3.4602 -2.3963 0.9794
-3.3560 3.1740 -2.3963 0.9794
-3.6251 2.8627 -2.3963 0.9794
-3.8655 2.5287 -2.3963 0.9794
-4.2527 1.8033 -2.3963 0.9794
-1.2222 0.3941 -0.6662 0.9942
-1.2316 0.2790 -0.6551 0.9943
-1.2316 -0.2790 -0.6551 0.9943
-1.2222 -0.3941 -0.6662 0.9942
-4.2527 -1.8033 -2.3963 0.9794
-3.8656 -2.5287 -2.3963 0.9794
-2.3981 -3.9479 -2.3963 0.9794
-1.6602 -4.3105 -2.3963 0.9794
-1.3246 -4.6322 -2.4994 0.9785
-0.4823 -4.7937 -2.4994 0.9785
0.3753 -4.8032 -2.4994 0.9785
1.6310 -4.5334 -2.4994 0.9785
2.0280 -4.3703 -2.4994 0.9785
2.4090 -4.1724 -2.4994 0.9785
2.7708 -3.9415 -2.4994 0.9785
3.1106 -3.6792 -2.4994 0.9785
3.4257 -3.3877 -2.4994 0.9785
3.7136 -3.0694 -2.4994 0.9785
4.5513 -1.5804 -2.4994 0.9785
4.6739 -1.1690 -2.4994 0.9785
4.7594 -0.7484 -2.4994 0.9785
4.8071 -0.3218 -2.4994 0.9785
4.8167 0.1073 -2.4994 0.9785
4.6172 1.3761 -2.4994 0.9785
3.5732 3.2318 -2.4994 0.9785
3.2714 3.5370 -2.4994 0.9785
2.9436 3.8141 -2.4994 0.9785
1.0122 4.7104 -2.4994 0.9785
0.5889 4.7818 -2.4994 0.9785
0.1610 4.8152 -2.4994 0.9785
-0.2682 4.8104 -2.4994 0.9785
-0.6953 4.7675 -2.4994 0.9785
-1.5296 4.5687 -2.4994 0.9785
-3.4940 3.0214 -2.3963 0.9794
-3.9744 2.3540 -2.3963 0.9794
-1.2283 0.3365 -0.6607 0.9943
-1.2426 0.2239 -0.6550 0.9943
-1.2576 0.1124 -0.6550 0.9943
-1.1944 0.0000 -0.6542 0.9946
-1.1899 -0.1063 -0.6543 0.9946
-1.1464 -0.4269 -0.6700 0.9944
-3.9480 -1.8858 -2.3963 0.9802
-3.5511 -2.5559 -2.3963 0.9802
-1.7528 -4.0088 -2.3963 0.9802
-0.6586 -4.5157 -2.4994 0.9794
0.1525 -4.5609 -2.4994 0.9794
0.9587 -4.4616 -2.4994 0.9794
1.7346 -4.2210 -2.4994 0.9794
2.4555 -3.8465 -2.4994 0.9794
3.0986 -3.3502 -2.4994 0.9794
4.2400 -1.6875 -2.4994 0.9794
4.3734 -1.3034 -2.4994 0.9794
4.4720 -0.9090 -2.4994 0.9794
4.5623 -0.1017 -2.4994 0.9794
4.5533 0.3048 -2.4994 0.9794
4.4271 1.1073 -2.4994 0.9794
4.3110 1.4969 -2.4994 0.9794
4.1606 1.8747 -2.4994 0.9794
3.9773 2.2376 -2.4994 0.9794
3.7623 2.5827 -2.4994 0.9794
3.5175 2.9073 -2.4994 0.9794
2.6244 3.7333 -2.4994 0.9794
1.9209 4.1395 -2.4994 0.9794
0.7590 4.4999 -2.4994 0.9794
-0.0508 4.5632 -2.4994 0.9794
-0.4568 4.5405 -2.4994 0.9794
-1.9297 3.9267 -2.3963 0.9802
-2.1751 2.9521 -2.0083 0.9834
-2.8985 3.2774 -2.3963 0.9802
-3.4337 2.7116 -2.3963 0.9802
-3.6614 2.3952 -2.3963 0.9802
-3.8601 2.0598 -2.3963 0.9802
-1.1840 0.1592 -0.6543 0.9946
-1.1840 -0.1592 -0.6543 0.9946
-1.1649 -0.2639 -0.6542 0.9946
-1.1515 -0.3713 -0.6626 0.9945
-1.1411 -0.4838 -0.6788 0.9944
-3.6614 -2.3952 -2.3963 0.9802
-2.8985 -3.2774 -2.3963 0.9802
-2.5953 -3.5224 -2.3963 0.9802
-2.2715 -3.7394 -2.3963 0.9802
-1.2546 -4.3876 -2.4994 0.9794
0.3555 -4.5496 -2.4994 0.9794
1.1565 -4.4145 -2.4994 0.9794
2.6244 -3.7333 -2.4994 0.9794
3.2448 -3.2088 -2.4994 0.9794
4.5533 -0.3048 -2.4994 0.9794
4.5623 0.1017 -2.4994 0.9794
4.0730 2.0582 -2.4994 0.9794
3.8736 2.4125 -2.4994 0.9794
3.6435 2.7477 -2.4994 0.9794
3.0986 3.3502 -2.4994 0.9794
2.7881 3.6127 -2.4994 0.9794
2.4555 3.8465 -2.4994 0.9794
2.1034 4.0498 -2.4994 0.9794
1.7346 4.2209 -2.4994 0.9794
1.3520 4.3586 -2.4994 0.9794
0.5578 4.5293 -2.4994 0.9794
0.1525 4.5609 -2.4994 0.9794
-0.2541 4.5564 -2.4994 0.9794
-1.0579 4.4391 -2.4994 0.9794
-1.4488 4.3274 -2.4994 0.9794
-1.7528 4.0088 -2.3963 0.9802
-2.0325 3.0326 -1.9995 0.9835
-3.0416 3.1450 -2.3963 0.9802
-3.5511 2.5559 -2.3963 0.9802
-3.7645 2.2297 -2.3963 0.9802
-1.1756 0.2118 -0.6543 0.9946
-1.1319 0.0000 -0.6535 0.9948
-1.1276 -0.1008 -0.6536 0.9948
-1.1141 -0.2007 -0.6536 0.9948
-1.0827 -0.4032 -0.6671 0.9947
-3.7453 -1.7890 -2.3963 0.9810
-3.5712 -2.1152 -2.3963 0.9810
-3.1396 -2.7149 -2.3963 0.9810
-2.6085 -3.2285 -2.3963 0.9810
-2.0404 -3.0445 -2.1160 0.9832
-1.6628 -3.8029 -2.3963 0.9810
-1.3744 -4.1052 -2.4994 0.9802
-0.6248 -4.2838 -2.4994 0.9802
0.1447 -4.3267 -2.4994 0.9802
0.9095 -4.2325 -2.4994 0.9802
1.2826 -4.1348 -2.4994 0.9802
1.6455 -4.0042 -2.4994 0.9802
1.9954 -3.8418 -2.4994 0.9802
2.3294 -3.6490 -2.4994 0.9802
2.9395 -3.1782 -2.4994 0.9802
3.2107 -2.9039 -2.4994 0.9802
3.4564 -2.6066 -2.4994 0.9802
3.6747 -2.2887 -2.4994 0.9802
4.1488 -1.2365 -2.4994 0.9802
4.3023 -0.4813 -2.4994 0.9802
4.3195 0.2891 -2.4994 0.9802
4.2766 0.6725 -2.4994 0.9802
4.1998 1.0504 -2.4994 0.9802
4.0896 1.4201 -2.4994 0.9802
3.7730 2.1227 -2.4994 0.9802
3.0782 3.0441 -2.4994 0.9802
2.1646 3.7491 -2.4994 0.9802
1.4655 4.0735 -2.4994 0.9802
1.0972 4.1878 -2.4994 0.9802
0.7201 4.2688 -2.4994 0.9802
0.3373 4.3160 -2.4994 0.9802
-0.0482 4.3289 -2.4994 0.9802
-0.4333 4.3074 -2.4994 0.9802
-1.1902 4.1623 -2.4994 0.9802
-1.5559 4.0399 -2.4994 0.9802
-3.0155 2.8520 -2.3963 0.9810
-1.0870 0.3505 -0.6594 0.9947
-1.1039 0.2501 -0.6535 0.9948
-1.1309 -0.0504 -0.6536 0.9948
-1.1039 -0.2501 -0.6535 0.9948
-3.6619 -1.9540 -2.3963 0.9810
-3.4734 -2.2722 -2.3963 0.9810
-3.2574 -2.5723 -2.3963 0.9810
-3.0155 -2.8520 -2.3963 0.9810
-2.1549 -3.5474 -2.3963 0.9810
-1.8306 -3.7251 -2.3963 0.9810
-1.5559 -4.0399 -2.4994 0.9802
-1.1902 -4.1623 -2.4994 0.9802
-0.8150 -4.2517 -2.4994 0.9802
-0.4333 -4.3074 -2.4994 0.9802
1.0972 -4.1878 -2.4994 0.9802
1.4655 -4.0735 -2.4994 0.9802
1.8223 -3.9269 -2.4994 0.9802
2.7950 -3.3060 -2.4994 0.9802
3.0782 -3.0441 -2.4994 0.9802
3.3369 -2.7580 -2.4994 0.9802
3.9470 -1.7784 -2.4994 0.9802
4.1998 -1.0504 -2.4994 0.9802
3.6747 2.2887 -2.4994 0.9802
3.2107 2.9039 -2.4994 0.9802
2.9395 3.1782 -2.4994 0.9802
2.6450 3.4272 -2.4994 0.9802
2.3294 3.6490 -2.4994 0.9802
1.9954 3.8419 -2.4994 0.9802
0.9095 4.2325 -2.4994 0.9802
0.5292 4.2967 -2.4994 0.9802
-0.2410 4.3224 -2.4994 0.9802
-0.6248 4.2838 -2.4994 0.9802
-1.0036 4.2112 -2.4994 0.9802
-1.3744 4.1052 -2.4994 0.9802
-1.6628 3.8029 -2.3963 0.9810
-1.9947 3.6398 -2.3963 0.9810
-2.0280 3.0261 -2.1032 0.9833
-1.1141 0.2007 -0.6536 0.9948
