ply
format ascii 1.0
element vertex 1434
property float32 x
property float32 y
property float32 z
property float32 I
end_header
7.0664 -15.2277 2.9601 0.9341
7.0660 -15.2269 2.5716 0.9343
12.0285 15.5858 3.0160 0.9234
7.0656 -15.2261 2.1858 0.9345
12.0285 15.5858 2.1141 0.9239
11.4502 16.2882 1.6854 0.9232
7.0644 -15.2234 1.0407 0.9350
7.0637 -15.2218 0.6617 0.9350
12.0353 15.5945 0.7767 0.9242
17.7860 -0.3963 0.3005 0.9313
7.0629 -15.2202 0.2834 0.9351
17.9263 0.3995 0.3029 0.9308
17.7860 -0.3963 -0.1002 0.9313
18.1395 1.2143 -0.1024 0.9299
11.4575 16.2986 -0.1122 0.9234
-18.5773 5.9904 -0.1099 0.9249
7.0622 -15.2186 -0.0945 0.9351
17.9263 0.3995 -0.1010 0.9308
-18.4151 6.8578 -0.1106 0.9244
17.7860 -0.3964 -0.5009 0.9313
11.4575 16.2986 -0.5610 0.9234
-18.3576 5.9196 -0.5431 0.9257
7.0614 -15.2170 -0.4724 0.9351
17.6476 -1.1814 -0.4980 0.9317
17.9263 0.3995 -0.5049 0.9308
-18.1031 5.8375 -0.9646 0.9266
7.0607 -15.2154 -0.8507 0.9350
17.6476 -1.1814 -0.8970 0.9316
-18.0280 6.7137 -0.9756 0.9258
10.5298 -13.6439 -1.2637 0.9332
11.4575 16.2986 -1.4608 0.9232
-9.2961 15.3035 -1.3129 0.9307
-10.2322 13.8873 -1.2648 0.9332
-15.2927 10.0040 -1.3399 0.9293
-17.8325 7.5616 -1.4202 0.9253
17.6476 -1.1814 -1.2969 0.9315
-9.1819 16.7547 -1.4009 0.9262
-10.9753 13.5843 -1.2805 0.9324
-12.0982 12.5095 -1.2760 0.9326
-13.3580 11.5511 -1.2948 0.9316
-5.6236 -16.7968 -1.7006 0.9313
10.4619 -16.3884 -1.8666 0.9248
10.4675 -13.5632 -1.6448 0.9335
10.5261 -7.9381 -1.2657 0.9484
17.7860 -0.3963 -1.7080 0.9310
-8.6307 17.5630 -1.8787 0.9244
-9.7258 13.2000 -1.5741 0.9362
-10.9089 12.3348 -1.5809 0.9360
-11.9160 11.2700 -1.5746 0.9362
-13.5449 10.6963 -1.6570 0.9330
-14.5916 9.5454 -1.6740 0.9323
-16.7924 8.9607 -1.8273 0.9264
-5.8345 -15.1490 -1.5585 0.9368
10.6022 -12.5404 -1.5765 0.9361
17.6476 -1.1813 -1.6981 0.9314
17.9263 0.3995 -1.7214 0.9305
12.0353 15.5945 -1.8912 0.9239
-8.7804 16.0221 -1.7540 0.9292
-9.0493 13.5025 -1.5605 0.9368
-14.4088 10.3708 -1.7044 0.9311
-17.5994 8.4065 -1.8725 0.9246
-17.4626 6.5031 -1.7890 0.9279
10.4619 -16.3884 -2.3096 0.9247
10.4675 -13.5632 -2.0351 0.9333
10.4720 -11.3222 -1.8320 0.9398
10.4757 -9.4747 -1.6778 0.9447
10.5356 -3.1400 -1.3059 0.9567
-8.5669 14.1030 -1.9601 0.9357
-13.0370 10.2952 -1.9733 0.9353
-17.7679 7.5342 -2.2925 0.9252
10.4739 -10.3579 -1.7498 0.9424
10.4923 -8.6721 -1.6169 0.9466
10.5346 -3.6580 -1.3247 0.9561
10.5366 -2.6354 -1.2902 0.9572
17.6476 -1.1814 -2.1010 0.9312
-10.1867 12.6082 -1.9254 0.9368
-10.7438 11.1090 -1.8358 0.9396
-12.4274 10.7464 -1.9516 0.9360
-13.7324 9.8840 -2.0098 0.9341
-17.5870 8.4006 -2.3152 0.9245
-5.6157 -12.8435 -1.9861 0.9449
-3.9207 -16.4519 -2.3963 0.9340
-0.9821 -17.6129 -2.4994 0.9312
0.5895 -17.6304 -2.4994 0.9312
2.1563 -17.5079 -2.4994 0.9312
5.2264 -16.8482 -2.4994 0.9312
6.4716 -15.7478 -2.4124 0.9335
7.7949 -15.0079 -2.3962 0.9340
9.0998 -14.2546 -2.3962 0.9340
10.3324 -13.3881 -2.3962 0.9340
10.4720 -11.3222 -2.1852 0.9396
10.4757 -9.4747 -2.0013 0.9445
10.4815 -6.5280 -1.7496 0.9513
10.6565 -4.2412 -1.6251 0.9547
17.0718 -0.3804 -2.4195 0.9333
16.1312 5.6013 -2.4195 0.9333
15.5686 7.0149 -2.4195 0.9333
14.0782 9.6641 -2.4195 0.9333
13.1621 10.8788 -2.4195 0.9333
12.1416 12.0071 -2.4195 0.9333
11.0247 13.0401 -2.4195 0.9333
9.7257 13.8351 -2.3962 0.9340
7.1186 15.3403 -2.3962 0.9340
5.9717 16.5987 -2.4994 0.9312
4.4707 17.0643 -2.4994 0.9312
2.9341 17.3945 -2.4994 0.9312
1.3742 17.5866 -2.4994 0.9312
-1.6929 16.8277 -2.3963 0.9340
-7.8868 16.0491 -2.5337 0.9303
-13.6840 8.9517 -2.3169 0.9361
-17.4529 5.6278 -2.5983 0.9286
-5.6129 -11.4220 -1.8032 0.9499
-5.6192 -14.5899 -2.2153 0.9388
-4.6497 -16.2609 -2.3963 0.9340
-0.1965 -17.6391 -2.4994 0.9312
1.3742 -17.5866 -2.4994 0.9312
2.9341 -17.3945 -2.4994 0.9312
5.9717 -16.5987 -2.4994 0.9312
9.7257 -13.8351 -2.3962 0.9340
10.4802 -7.1943 -1.8011 0.9499
10.4828 -5.8975 -1.7042 0.9526
10.5255 -3.6549 -1.5787 0.9560
10.5366 -2.6354 -1.5389 0.9571
17.0379 -1.1405 -2.4195 0.9333
17.0718 0.3804 -2.4195 0.9333
16.9701 1.8984 -2.4195 0.9333
16.7338 3.4013 -2.4195 0.9333
16.3647 4.8772 -2.4195 0.9333
13.6337 10.2816 -2.4195 0.9333
12.6645 11.4543 -2.4195 0.9333
10.3324 13.3881 -2.3962 0.9340
9.0998 14.2546 -2.3962 0.9340
0.5895 17.6304 -2.4994 0.9312
-0.9821 17.6129 -2.4994 0.9312
-2.4408 16.7356 -2.3963 0.9340
-8.0665 14.7195 -2.3782 0.9344
-9.8309 12.1678 -2.2164 0.9388
-12.0036 10.3799 -2.2485 0.9379
-5.8650 -5.0716 -1.2773 0.9691
-5.6069 -8.3660 -1.6591 0.9600
-5.6106 -10.2380 -1.9233 0.9538
-5.6157 -12.8436 -2.3092 0.9448
-4.6182 -13.7937 -2.3963 0.9427
0.5070 -15.1636 -2.4994 0.9403
3.1875 -14.8334 -2.4994 0.9403
4.4951 -14.4909 -2.4994 0.9403
6.7043 -12.9080 -2.3962 0.9427
7.8266 -12.2601 -2.3962 0.9427
8.8867 -11.5149 -2.3962 0.9427
10.4757 -9.4747 -2.3269 0.9443
10.4815 -6.5280 -2.0342 0.9512
14.5957 -1.6328 -2.4195 0.9422
14.6831 -0.3272 -2.4195 0.9422
14.2479 3.5636 -2.4195 0.9422
13.3903 6.0334 -2.4195 0.9422
12.1084 8.3119 -2.4195 0.9422
10.3422 10.2276 -2.3962 0.9427
8.3649 11.8993 -2.3962 0.9427
7.2726 12.5966 -2.3962 0.9427
3.8451 14.6767 -2.4994 0.9403
2.5236 14.9607 -2.4994 0.9403
1.1820 15.1259 -2.4994 0.9403
-0.1690 15.1711 -2.4994 0.9403
-5.2280 13.5743 -2.3963 0.9427
-7.9259 13.0477 -2.5150 0.9400
-9.7871 11.0664 -2.4338 0.9419
-12.2061 9.6391 -2.5622 0.9389
-13.1388 8.5950 -2.5865 0.9383
-17.3922 5.6083 -3.0105 0.9286
-5.6483 -5.3421 -1.2807 0.9690
-5.6086 -9.2330 -1.7797 0.9572
-5.6129 -11.4220 -2.0966 0.9497
-5.2280 -13.5743 -2.3963 0.9427
-3.9991 -13.9857 -2.3963 0.9427
-2.7384 -14.2862 -2.3963 0.9427
-0.1690 -15.1711 -2.4994 0.9403
2.5236 -14.9607 -2.4994 0.9403
3.8451 -14.6767 -2.4994 0.9403
5.1362 -14.2762 -2.4994 0.9403
7.2726 -12.5966 -2.3962 0.9427
10.3422 -10.2276 -2.3962 0.9427
10.4802 -7.1943 -2.0941 0.9498
10.4872 -3.6416 -1.8289 0.9560
10.4893 -2.6236 -1.7812 0.9571
14.6540 -0.9810 -2.4195 0.9422
14.6831 0.3272 -2.4195 0.9422
14.3925 2.9254 -2.4195 0.9422
14.0750 4.1948 -2.4195 0.9422
12.4666 7.7643 -2.4195 0.9422
11.7261 8.8431 -2.4195 0.9422
8.8867 11.5148 -2.3962 0.9427
7.8266 12.2601 -2.3962 0.9427
6.7043 12.9080 -2.3962 0.9427
1.8546 15.0583 -2.4994 0.9403
0.5070 15.1636 -2.4994 0.9403
-3.3721 14.1500 -2.3963 0.9427
-5.5209 12.6266 -2.2703 0.9457
-7.7482 14.1387 -2.6560 0.9367
-18.9938 5.2029 -3.2443 0.9233
-5.8650 -5.0716 -1.4574 0.9689
-5.6493 -5.8413 -1.5274 0.9675
-5.6040 -6.9362 -1.6761 0.9644
-5.6069 -8.3660 -1.8930 0.9598
-5.6106 -10.2380 -2.1944 0.9536
-4.0476 -12.0896 -2.3963 0.9494
-2.9555 -12.4018 -2.3963 0.9494
0.4443 -13.2902 -2.4994 0.9473
3.9398 -12.7006 -2.4994 0.9473
6.8596 -10.7454 -2.3962 0.9494
7.7888 -10.0922 -2.3962 0.9494
10.1784 -7.6759 -2.3962 0.9494
10.4840 -5.2978 -2.2079 0.9533
10.4862 -4.1734 -2.1214 0.9551
10.4883 -3.1259 -2.0571 0.9564
12.7925 -1.4311 -2.4195 0.9490
12.8691 -0.2868 -2.4195 0.9490
12.8435 0.8598 -2.4195 0.9490
12.7160 1.9995 -2.4195 0.9490
12.1601 4.2224 -2.4195 0.9490
11.7360 5.2880 -2.4195 0.9490
10.6125 7.2850 -2.4195 0.9490
9.8263 8.1217 -2.3962 0.9494
9.0645 8.9640 -2.3962 0.9494
8.2306 9.7353 -2.3962 0.9494
7.3315 10.4292 -2.3962 0.9494
3.3701 12.8635 -2.4994 0.9473
1.0359 13.2572 -2.4994 0.9473
-0.1481 13.2968 -2.4994 0.9473
-1.3310 13.2308 -2.4994 0.9473
-2.4001 12.5212 -2.3963 0.9494
-4.5821 11.8973 -2.3963 0.9494
-7.6333 12.5661 -2.7635 0.9419
-10.4697 9.9021 -2.7086 0.9430
-12.4294 8.1310 -2.7917 0.9413
-14.1813 7.5674 -3.0213 0.9367
-15.3220 6.4971 -3.1282 0.9345
-17.1636 5.5345 -3.3897 0.9292
-5.6483 -5.3421 -1.4613 0.9689
-5.6298 -6.3658 -1.5973 0.9660
-5.6054 -7.6077 -1.7762 0.9623
-5.6086 -9.2330 -2.0305 0.9570
-5.6129 -11.4220 -2.3921 0.9495
-2.4001 -12.5212 -2.3963 0.9494
-1.3310 -13.2308 -2.4994 0.9473
1.0359 -13.2572 -2.4994 0.9473
2.2118 -13.1124 -2.4994 0.9473
3.3701 -12.8635 -2.4994 0.9473
5.5974 -12.0621 -2.4994 0.9473
6.4669 -11.2009 -2.4310 0.9487
7.3315 -10.4292 -2.3962 0.9494
8.2307 -9.7353 -2.3962 0.9494
9.0645 -8.9640 -2.3962 0.9494
9.8263 -8.1217 -2.3962 0.9494
10.4802 -7.1943 -2.3893 0.9496
12.7160 -1.9995 -2.4195 0.9490
12.8435 -0.8598 -2.4195 0.9490
12.6144 2.5640 -2.4195 0.9490
12.3361 3.6765 -2.4195 0.9490
11.9599 4.7599 -2.4195 0.9490
11.4888 5.8055 -2.4195 0.9490
10.9264 6.8050 -2.4195 0.9490
7.7888 10.0922 -2.3962 0.9494
6.8596 10.7454 -2.3962 0.9494
3.9398 12.7006 -2.4994 0.9473
2.7937 13.0008 -2.4994 0.9473
1.6255 13.1979 -2.4994 0.9473
-0.7403 13.2770 -2.4994 0.9473
-7.4544 13.6025 -2.9155 0.9388
-5.5131 8.2261 -1.8613 0.9605
-15.9537 5.9412 -3.1999 0.9331
-18.9026 5.1780 -3.6838 0.9233
-5.6017 -5.7922 -1.7033 0.9676
-5.6040 -6.9362 -1.8849 0.9642
-5.6069 -8.3660 -2.1288 0.9597
-5.4482 -9.9417 -2.3963 0.9547
-4.5417 -10.3871 -2.3963 0.9547
-3.5992 -10.7502 -2.3963 0.9547
1.4454 -11.7357 -2.4994 0.9528
3.5033 -11.2935 -2.4994 0.9528
4.4945 -10.9368 -2.4994 0.9528
6.9259 -8.9741 -2.3962 0.9547
7.6971 -8.3221 -2.3962 0.9547
10.4883 -3.1258 -2.3134 0.9562
10.4902 -2.1322 -2.2628 0.9572
11.4433 -0.2550 -2.4195 0.9543
11.4206 0.7645 -2.4195 0.9543
11.3072 1.7780 -2.4195 0.9543
10.8128 3.7546 -2.4195 0.9543
9.8797 5.5582 -2.3962 0.9547
9.3458 6.4155 -2.3962 0.9547
6.5192 9.2737 -2.3962 0.9547
4.0029 11.1262 -2.4994 0.9528
2.9967 11.4383 -2.4994 0.9528
0.9212 11.7884 -2.4994 0.9528
-1.1836 11.7650 -2.4994 0.9528
-2.1342 11.1340 -2.3963 0.9547
-3.1167 10.8998 -2.3963 0.9547
-4.0745 10.5792 -2.3963 0.9547
-7.3593 12.1150 -2.9963 0.9437
-5.5077 6.2276 -1.7574 0.9666
-10.1594 9.6087 -2.9558 0.9444
-11.7876 7.7111 -2.9774 0.9440
-12.8557 6.8600 -3.0801 0.9422
-13.7172 5.8166 -3.1494 0.9409
-15.5347 5.0093 -3.4502 0.9354
-5.9553 -4.7028 -1.6040 0.9695
-5.6054 -7.6076 -1.9975 0.9621
-5.6086 -9.2330 -2.2835 0.9568
-4.9999 -10.1745 -2.3963 0.9547
-2.1342 -11.1339 -2.3963 0.9547
-1.1836 -11.7650 -2.4994 0.9528
-0.1317 -11.8236 -2.4994 0.9528
2.9967 -11.4383 -2.4994 0.9528
4.9773 -10.7258 -2.4994 0.9528
8.7377 -7.2219 -2.3962 0.9547
9.3458 -6.4155 -2.3962 0.9547
9.8797 -5.5582 -2.3962 0.9547
10.3352 -4.6568 -2.3962 0.9547
10.4893 -2.6236 -2.2855 0.9568
11.4206 -0.7645 -2.4195 0.9543
11.4433 0.2550 -2.4195 0.9543
11.2168 2.2799 -2.4195 0.9543
10.9694 3.2692 -2.4195 0.9543
10.1175 5.1126 -2.3962 0.9547
9.6223 5.9928 -2.3962 0.9547
9.0507 6.8255 -2.3962 0.9547
8.4073 7.6039 -2.3962 0.9547
7.6971 8.3221 -2.3962 0.9547
5.4501 10.4934 -2.4994 0.9528
4.4945 10.9368 -2.4994 0.9528
3.5033 11.2935 -2.4994 0.9528
1.4454 11.7357 -2.4994 0.9528
-0.6583 11.8060 -2.4994 0.9528
-1.6361 11.2180 -2.3963 0.9547
-2.6281 11.0278 -2.3963 0.9547
-3.5992 10.7502 -2.3963 0.9547
-5.4482 9.9417 -2.3963 0.9547
-7.7357 11.5425 -2.9371 0.9448
-8.4465 10.4544 -2.8410 0.9465
-13.2922 6.3492 -3.1138 0.9416
-6.0096 -3.5595 -1.6416 0.9717
-5.6690 -4.0803 -1.6416 0.9717
-5.6017 -5.7922 -1.8938 0.9674
-5.6069 -8.3660 -2.3669 0.9595
-4.9001 -8.9415 -2.3963 0.9590
-4.0848 -9.3422 -2.3963 0.9590
-1.5348 -10.5235 -2.4994 0.9572
-0.5921 -10.6183 -2.4994 0.9572
4.0424 -9.8366 -2.4994 0.9572
4.9019 -9.4378 -2.4994 0.9572
6.9228 -7.4849 -2.3962 0.9590
8.1402 -6.1388 -2.3962 0.9590
9.4728 -3.7701 -2.3962 0.9590
9.7708 -2.9120 -2.3962 0.9590
9.9912 -2.0308 -2.3962 0.9590
10.1323 -1.1335 -2.3962 0.9590
10.1727 0.6810 -2.3962 0.9590
10.0718 1.5837 -2.3962 0.9590
9.2955 4.1884 -2.3962 0.9590
8.4056 5.7701 -2.3962 0.9590
6.5825 7.7858 -2.3962 0.9590
6.1161 8.7002 -2.4994 0.9572
5.3174 9.2100 -2.4994 0.9572
1.7689 10.4867 -2.4994 0.9572
0.8285 10.6025 -2.4994 0.9572
-0.1185 10.6342 -2.4994 0.9572
-3.6646 9.5149 -2.3963 0.9590
-4.4969 9.1510 -2.3963 0.9590
-5.2936 8.7144 -2.3963 0.9590
-7.5374 10.2299 -2.9864 0.9491
-8.5218 9.6357 -3.0232 0.9485
-9.4028 8.8931 -3.0417 0.9482
-5.5233 3.6132 -1.5512 0.9732
-17.9016 4.0560 -4.3139 0.9274
-5.8451 -3.8237 -1.6416 0.9717
-5.5990 -4.4215 -1.6767 0.9711
-5.6028 -6.3352 -1.9877 0.9658
-5.2936 -8.7144 -2.3963 0.9590
-4.4969 -9.1510 -2.3963 0.9590
-3.6646 -9.5149 -2.3963 0.9590
-0.1185 -10.6342 -2.4994 0.9572
0.8285 -10.6025 -2.4994 0.9572
2.6952 -10.2876 -2.4994 0.9572
3.6002 -10.0069 -2.4994 0.9572
4.4766 -9.6468 -2.4994 0.9572
6.5825 -7.7858 -2.3962 0.9590
7.2494 -7.1690 -2.3962 0.9590
8.4056 -5.7701 -2.3962 0.9590
8.8858 -4.9991 -2.3962 0.9590
6.7930 -3.0608 -1.7511 0.9698
9.8908 -2.4739 -2.3962 0.9590
10.0718 -1.5837 -2.3962 0.9590
10.1727 -0.6810 -2.3962 0.9590
10.1930 0.2272 -2.3962 0.9590
10.1323 1.1335 -2.3962 0.9590
9.9912 2.0308 -2.3962 0.9590
8.6543 5.3900 -2.3962 0.9590
6.9228 7.4849 -2.3962 0.9590
4.0424 9.8366 -2.4994 0.9572
3.1508 10.1574 -2.4994 0.9572
2.2343 10.3975 -2.4994 0.9572
0.3554 10.6289 -2.4994 0.9572
-0.5921 10.6183 -2.4994 0.9572
-1.5348 10.5235 -2.4994 0.9572
-4.0848 9.3422 -2.3963 0.9590
-4.9001 8.9416 -2.3963 0.9590
-7.9605 9.8528 -2.9770 0.9493
-9.7409 8.4233 -3.0266 0.9485
-5.5009 3.9593 -1.5929 0.9725
-11.3536 6.7247 -3.1013 0.9472
-12.1210 5.7897 -3.1570 0.9463
-13.2172 4.9221 -3.3148 0.9437
-15.3973 4.2178 -3.7520 0.9365
-5.5968 -3.3150 -1.6842 0.9735
-5.5999 -4.8424 -1.9168 0.9699
-5.6040 -6.9362 -2.3088 0.9638
-3.7078 -8.4800 -2.3963 0.9625
-2.9384 -8.7764 -2.3963 0.9625
-2.1455 -9.0031 -2.3963 0.9625
-1.3932 -9.5523 -2.4994 0.9609
-0.5374 -9.6384 -2.4994 0.9609
3.6693 -8.9288 -2.4994 0.9609
5.1943 -8.1368 -2.4994 0.9609
6.4630 -6.9877 -2.4645 0.9614
6.8637 -6.2078 -2.3962 0.9625
7.3890 -5.5723 -2.3962 0.9625
7.8556 -4.8925 -2.3962 0.9625
9.1972 -1.0289 -2.3962 0.9625
9.2523 -0.2062 -2.3962 0.9625
9.1423 1.4376 -2.3962 0.9625
8.9780 2.2455 -2.3962 0.9625
8.4376 3.8018 -2.3962 0.9625
7.6299 5.2376 -2.3962 0.9625
7.1334 5.8959 -2.3962 0.9625
5.5516 7.8973 -2.4994 0.9609
0.7520 9.6240 -2.4994 0.9609
-0.1075 9.6528 -2.4994 0.9609
-0.9663 9.6049 -2.4994 0.9609
-3.3264 8.6368 -2.3963 0.9625
-4.0819 8.3064 -2.3963 0.9625
-4.8050 7.9102 -2.3963 0.9625
-5.4900 7.4511 -2.3963 0.9625
-10.1904 6.6662 -3.1529 0.9509
-10.8589 5.7945 -3.1868 0.9504
-12.8562 4.1456 -3.4975 0.9457
-5.6008 -5.2972 -1.9960 0.9686
-0.9663 -9.6049 -2.4994 0.9609
-0.1075 -9.6528 -2.4994 0.9609
2.4465 -9.3382 -2.4994 0.9609
3.2679 -9.0834 -2.4994 0.9609
4.0634 -8.7565 -2.4994 0.9609
5.5516 -7.8973 -2.4994 0.9609
6.2325 -7.3718 -2.4994 0.9609
6.5803 -6.5074 -2.3962 0.9625
7.1334 -5.8959 -2.3962 0.9625
7.6299 -5.2376 -2.3962 0.9625
8.0658 -4.5377 -2.3962 0.9625
8.9780 -2.2456 -2.3962 0.9625
9.1423 -1.4375 -2.3962 0.9625
9.2339 -0.6181 -2.3962 0.9625
9.0692 1.8434 -2.3962 0.9625
8.8691 2.6433 -2.3962 0.9625
8.5986 3.4221 -2.3962 0.9625
7.8556 4.8925 -2.3962 0.9625
6.8637 6.2079 -2.3962 0.9625
6.4630 6.9877 -2.4645 0.9614
3.6693 8.9288 -2.4994 0.9609
0.3226 9.6480 -2.4994 0.9609
-1.3932 9.5523 -2.4994 0.9609
-2.1455 9.0031 -2.3963 0.9625
-2.9384 8.7764 -2.3963 0.9625
-5.1526 7.6883 -2.3963 0.9625
-5.5071 6.8163 -2.2689 0.9644
-8.2244 8.5039 -3.0631 0.9523
-8.9817 7.7668 -3.0744 0.9521
-10.5443 6.2454 -3.1731 0.9506
-12.2553 4.5639 -3.3860 0.9474
-13.4965 3.6971 -3.6232 0.9438
-5.5017 -0.4917 -1.5637 0.9773
-5.5982 -4.0294 -1.9526 0.9717
-5.6017 -5.7922 -2.2811 0.9671
-5.3198 -6.5844 -2.3963 0.9654
-4.7126 -7.0317 -2.3963 0.9654
-3.3912 -7.7559 -2.3963 0.9654
-1.9623 -8.2343 -2.3963 0.9654
1.0792 -8.7628 -2.4994 0.9640
2.6158 -8.4326 -2.4994 0.9640
4.7507 -7.4419 -2.4994 0.9640
5.9949 -6.4817 -2.4994 0.9640
6.4630 -5.8454 -2.4670 0.9644
7.1848 -4.4747 -2.3962 0.9654
8.1117 -2.4175 -2.3962 0.9654
8.2947 -1.6860 -2.3962 0.9654
8.4118 -0.9410 -2.3962 0.9654
8.4622 -0.1886 -2.3962 0.9654
8.3615 1.3148 -2.3962 0.9654
7.7171 3.4771 -2.3962 0.9654
7.3770 4.1502 -2.3962 0.9654
6.9783 4.7904 -2.3962 0.9654
6.5243 5.3924 -2.3962 0.9654
5.7003 6.7423 -2.4994 0.9640
5.0775 7.2229 -2.4994 0.9640
4.4145 7.6461 -2.4994 0.9640
3.7164 8.0087 -2.4994 0.9640
2.9889 8.3077 -2.4994 0.9640
0.6878 8.8022 -2.4994 0.9640
-0.0984 8.8285 -2.4994 0.9640
-1.5943 8.3171 -2.3974 0.9654
-4.3947 7.2347 -2.3963 0.9654
-7.9409 7.5104 -3.0942 0.9556
-5.5206 3.6114 -1.8675 0.9729
-10.9993 4.6641 -3.3822 0.9515
-5.5015 0.7398 -1.5715 0.9772
-5.5017 -0.7399 -1.5715 0.9772
-5.6915 -1.8353 -1.6929 0.9754
-5.5962 -2.9862 -1.7957 0.9740
-5.5975 -3.6617 -1.8936 0.9726
-5.5990 -4.4215 -2.0197 0.9708
-5.6008 -5.2972 -2.1824 0.9685
-5.6028 -6.3352 -2.3942 0.9655
-5.0212 -6.8148 -2.3963 0.9654
-3.7333 -7.5971 -2.3963 0.9654
-3.0423 -7.8992 -2.3963 0.9654
-0.8837 -8.7847 -2.4994 0.9640
0.6878 -8.8022 -2.4994 0.9640
2.2376 -8.5408 -2.4994 0.9640
3.7164 -8.0087 -2.4994 0.9640
5.0775 -7.2229 -2.4994 0.9640
6.9783 -4.7904 -2.3962 0.9654
7.3770 -4.1502 -2.3962 0.9654
8.2113 -2.0538 -2.3962 0.9654
8.3615 -1.3148 -2.3962 0.9654
8.4118 0.9410 -2.3962 0.9654
8.1117 2.4175 -2.3962 0.9654
6.4630 5.8454 -2.4670 0.9644
5.9950 6.4817 -2.4994 0.9640
4.7507 7.4419 -2.4994 0.9640
3.3560 8.1663 -2.4994 0.9640
2.6158 8.4326 -2.4994 0.9640
0.2950 8.8241 -2.4994 0.9640
-1.2742 8.7366 -2.4994 0.9640
-1.9623 8.2343 -2.3963 0.9654
-3.3912 7.7559 -2.3963 0.9654
-4.0681 7.4232 -2.3963 0.9654
-4.7126 7.0317 -2.3963 0.9654
-5.3198 6.5844 -2.3963 0.9654
-5.5079 4.7629 -2.0614 0.9702
-9.1322 6.5729 -3.1853 0.9543
-11.4395 4.2601 -3.4557 0.9505
-5.5088 -0.0000 -1.6944 0.9772
-5.5956 -2.6728 -1.9073 0.9744
-5.5982 -4.0294 -2.1215 0.9715
-5.5999 -4.8424 -2.2771 0.9695
-5.4162 -5.6004 -2.3963 0.9679
-2.4735 -7.3879 -2.3963 0.9679
-1.8061 -7.5787 -2.3963 0.9679
-0.4524 -8.1136 -2.4994 0.9666
0.2715 -8.1216 -2.4994 0.9666
1.7072 -7.9448 -2.4994 0.9666
3.7455 -7.2114 -2.4994 0.9666
6.6128 -4.1185 -2.3962 0.9679
6.9531 -3.5136 -2.3962 0.9679
7.2383 -2.8808 -2.3962 0.9679
7.6344 -1.5517 -2.3962 0.9679
7.7422 -0.8661 -2.3962 0.9679
7.7885 -0.1736 -2.3962 0.9679
7.5577 1.8903 -2.3962 0.9679
7.3594 2.5555 -2.3962 0.9679
7.1028 3.2004 -2.3962 0.9679
6.7897 3.8198 -2.3962 0.9679
6.2636 5.1770 -2.4994 0.9666
5.2465 6.2055 -2.4994 0.9666
4.6733 6.6479 -2.4994 0.9666
4.0631 7.0375 -2.4994 0.9666
3.4206 7.3712 -2.4994 0.9666
2.7509 7.6463 -2.4994 0.9666
1.3516 8.0130 -2.4994 0.9666
0.6331 8.1014 -2.4994 0.9666
-0.0905 8.1256 -2.4994 0.9666
-0.8134 8.0854 -2.4994 0.9666
-2.8001 7.2704 -2.3963 0.9679
-3.4361 6.9923 -2.3963 0.9679
-4.0448 6.6587 -2.3963 0.9679
-4.6215 6.2723 -2.3963 0.9679
-8.8997 5.8219 -3.2710 0.9565
-10.3708 4.3976 -3.4648 0.9540
-18.8666 0.8413 -5.8087 0.9240
-5.6915 -1.8353 -1.8393 0.9753
-5.5962 -2.9862 -1.9510 0.9738
-5.5975 -3.6617 -2.0573 0.9724
-5.5990 -4.4215 -2.1944 0.9706
-3.4361 -6.9923 -2.3963 0.9679
-2.8001 -7.2704 -2.3963 0.9679
-1.5298 -7.9809 -2.4994 0.9666
-0.0905 -8.1256 -2.4994 0.9666
0.6331 -8.1014 -2.4994 0.9666
1.3516 -8.0130 -2.4994 0.9666
2.0595 -7.8609 -2.4994 0.9666
2.7509 -7.6463 -2.4994 0.9666
4.0631 -7.0375 -2.4994 0.9666
4.6733 -6.6479 -2.4994 0.9666
5.2465 -6.2055 -2.4994 0.9666
5.7780 -5.7140 -2.4994 0.9666
6.7897 -3.8198 -2.3962 0.9679
6.7821 -3.0559 -2.2880 0.9693
7.3594 -2.5555 -2.3962 0.9679
7.5577 -1.8903 -2.3962 0.9679
7.6959 -1.2101 -2.3962 0.9679
7.7731 -0.5204 -2.3962 0.9679
7.7885 0.1736 -2.3962 0.9679
7.7422 0.8661 -2.3962 0.9679
7.4659 2.2251 -2.3962 0.9679
7.2383 2.8808 -2.3962 0.9679
6.9531 3.5136 -2.3962 0.9679
6.6128 4.1185 -2.3962 0.9679
6.4630 4.8740 -2.4898 0.9667
6.0268 5.4509 -2.4994 0.9666
3.7455 7.2115 -2.4994 0.9666
2.4076 7.7613 -2.4994 0.9666
-1.8061 7.5787 -2.3963 0.9679
-3.1212 7.1385 -2.3963 0.9679
-4.3375 6.4719 -2.3963 0.9679
-4.8963 6.0602 -2.3963 0.9679
-7.8553 6.7927 -3.1942 0.9575
-9.2270 5.4652 -3.2985 0.9561
-9.9890 4.7713 -3.4049 0.9547
-10.7685 4.0102 -3.5344 0.9530
-18.5283 -1.6557 -6.1835 0.9246
-5.5944 -2.0834 -1.9844 0.9752
-5.5982 -4.0294 -2.2928 0.9713
-5.4530 -4.7154 -2.3963 0.9701
-4.5306 -5.6076 -2.3963 0.9701
-3.4646 -6.3220 -2.3963 0.9701
-2.8881 -6.6053 -2.3963 0.9701
-2.2887 -6.8361 -2.3963 0.9701
-1.6712 -7.0127 -2.3963 0.9701
-1.0852 -7.4405 -2.4994 0.9688
0.9191 -7.4628 -2.4994 0.9688
2.2278 -7.1816 -2.4994 0.9688
2.8581 -6.9548 -2.4994 0.9688
3.4658 -6.6729 -2.4994 0.9688
4.0460 -6.3379 -2.4994 0.9688
5.1056 -5.5201 -2.4994 0.9688
5.5766 -5.0438 -2.4994 0.9688
6.0034 -4.5274 -2.4994 0.9688
6.4721 -3.2705 -2.4105 0.9699
7.1925 0.4815 -2.3962 0.9701
6.9932 1.7491 -2.3962 0.9701
6.4630 3.6360 -2.4650 0.9692
6.1992 4.2555 -2.4994 0.9688
5.7958 4.7904 -2.4994 0.9688
4.3243 6.1514 -2.4994 0.9688
3.7596 6.5118 -2.4994 0.9688
3.1651 6.8206 -2.4994 0.9688
1.9056 7.2737 -2.4994 0.9688
1.2507 7.4145 -2.4994 0.9688
-0.7526 7.4814 -2.4994 0.9688
-2.5910 6.7274 -2.3963 0.9701
-3.1795 6.4701 -2.3963 0.9701
-3.7427 6.1614 -2.3963 0.9701
-4.2763 5.8038 -2.3963 0.9701
-4.7759 5.4002 -2.3963 0.9701
-5.2376 4.9537 -2.3963 0.9701
-9.1041 4.8581 -3.4302 0.9574
-9.8077 4.1588 -3.5411 0.9561
-10.5664 3.4072 -3.6904 0.9543
-5.5014 1.2464 -1.8750 0.9765
-15.8505 2.1317 -5.3162 0.9348
-18.5156 0.8256 -6.1608 0.9248
-18.8452 -0.8404 -6.2705 0.9236
-5.6915 -1.8353 -1.9878 0.9751
-5.5990 -4.4215 -2.3715 0.9704
-4.7759 -5.4002 -2.3963 0.9701
-4.2763 -5.8038 -2.3963 0.9701
-1.9819 -6.9313 -2.3963 0.9701
-0.7526 -7.4814 -2.4994 0.9688
1.2507 -7.4145 -2.4994 0.9688
1.9056 -7.2737 -2.4994 0.9688
2.5455 -7.0753 -2.4994 0.9688
3.7596 -6.5118 -2.4994 0.9688
4.3243 -6.1514 -2.4994 0.9688
4.8546 -5.7421 -2.4994 0.9688
5.3464 -5.2872 -2.4994 0.9688
5.7958 -4.7904 -2.4994 0.9688
6.5723 -2.9613 -2.3962 0.9701
6.8097 -2.3646 -2.3962 0.9701
6.9932 -1.7491 -2.3962 0.9701
7.0642 1.4359 -2.3962 0.9701
6.9083 2.0589 -2.3962 0.9701
6.6976 2.6656 -2.3962 0.9701
6.4721 3.2705 -2.4104 0.9699
6.3826 3.9751 -2.4994 0.9688
5.1056 5.5201 -2.4994 0.9688
4.0460 6.3379 -2.4994 0.9688
0.2513 7.5150 -2.4994 0.9688
-0.4186 7.5076 -2.4994 0.9688
-2.2887 6.8361 -2.3963 0.9701
-2.8881 6.6053 -2.3963 0.9701
-5.0117 5.1821 -2.3963 0.9701
-8.0806 5.8160 -3.3094 0.9589
-8.7476 5.1812 -3.3795 0.9580
-11.1046 3.0419 -3.8272 0.9526
-12.7520 2.2974 -4.3071 0.9468
-18.4631 -1.6499 -6.6289 0.9243
-5.5956 -2.6728 -2.2176 0.9740
-5.5968 -3.3150 -2.3262 0.9727
-5.0688 -4.3831 -2.3963 0.9719
-4.2113 -5.2124 -2.3963 0.9719
-3.2204 -5.8765 -2.3963 0.9719
-2.1274 -6.3544 -2.3963 0.9719
-1.5837 -6.6455 -2.4430 0.9714
-1.0087 -6.9161 -2.4994 0.9707
2.0708 -6.6755 -2.4994 0.9707
2.6567 -6.4647 -2.4994 0.9707
3.2215 -6.2026 -2.4994 0.9707
3.7608 -5.8912 -2.4994 0.9707
4.2703 -5.5331 -2.4994 0.9707
4.7458 -5.1311 -2.4994 0.9707
5.1836 -4.6883 -2.4994 0.9707
5.5804 -4.2083 -2.4994 0.9707
5.9328 -3.6950 -2.4994 0.9707
6.2381 -3.1523 -2.4994 0.9707
6.4710 -1.9286 -2.4147 0.9717
6.6750 -0.7467 -2.4019 0.9719
6.6989 -0.1493 -2.3962 0.9719
6.6193 1.0408 -2.3962 0.9719
6.5003 1.6258 -2.3962 0.9719
6.4630 2.2442 -2.4466 0.9714
6.3723 2.8712 -2.4994 0.9707
5.7623 3.9556 -2.4994 0.9707
5.3873 4.4528 -2.4994 0.9707
4.5125 5.3374 -2.4994 0.9707
4.0195 5.7179 -2.4994 0.9707
3.4947 6.0529 -2.4994 0.9707
2.9420 6.3399 -2.4994 0.9707
1.7713 6.7611 -2.4994 0.9707
1.1625 6.8920 -2.4994 0.9707
0.5445 6.9681 -2.4994 0.9707
-1.8423 6.4428 -2.3963 0.9719
-3.4790 5.7272 -2.3963 0.9719
-4.8685 4.6046 -2.3963 0.9719
-8.6416 4.6113 -3.5027 0.9592
-9.2973 3.9424 -3.6113 0.9580
-10.0513 3.2411 -3.7766 0.9561
-13.0744 1.7583 -4.7176 0.9455
-18.5280 -0.8262 -6.6323 0.9242
-5.6915 -1.8353 -2.1385 0.9749
-5.5950 -2.3725 -2.1732 0.9745
-4.8685 -4.6046 -2.3963 0.9719
-3.9749 -5.3948 -2.3963 0.9719
-2.4084 -6.2533 -2.3963 0.9719
-1.8423 -6.4428 -2.3963 0.9719
-1.3158 -6.8643 -2.4994 0.9707
-0.0779 -6.9889 -2.4994 0.9707
0.5445 -6.9681 -2.4994 0.9707
2.9420 -6.3399 -2.4994 0.9707
3.4947 -6.0529 -2.4994 0.9707
4.5125 -5.3374 -2.4994 0.9707
4.9696 -4.9146 -2.4994 0.9707
5.3873 -4.4528 -2.4994 0.9707
5.7623 -3.9556 -2.4994 0.9707
6.0915 -3.4270 -2.4994 0.9707
6.3723 -2.8712 -2.4994 0.9707
6.6856 -0.4475 -2.3962 0.9719
6.4710 1.9286 -2.4147 0.9717
6.4630 2.5722 -2.4875 0.9709
5.5804 4.2083 -2.4994 0.9707
5.1836 4.6883 -2.4994 0.9707
3.2216 6.2026 -2.4994 0.9707
2.6567 6.4647 -2.4994 0.9707
2.0708 6.6755 -2.4994 0.9707
1.4684 6.8333 -2.4994 0.9707
0.8544 6.9369 -2.4994 0.9707
-0.3891 6.9785 -2.4994 0.9707
-1.0087 6.9161 -2.4994 0.9707
-2.1274 6.3544 -2.3963 0.9719
-3.7307 5.5665 -2.3963 0.9719
-4.6585 4.8169 -2.3963 0.9719
-5.0687 4.3831 -2.3963 0.9719
-5.4388 3.9146 -2.3963 0.9719
-10.5233 2.8826 -3.9018 0.9547
-11.7593 2.1185 -4.2729 0.9505
-5.5087 0.4922 -1.9778 0.9768
-5.5205 -0.0000 -2.1155 0.9766
-5.5956 -2.6728 -2.3764 0.9738
-5.0753 -3.6530 -2.3963 0.9736
-4.7300 -4.0902 -2.3963 0.9736
-4.3472 -4.4949 -2.3963 0.9736
-3.4813 -5.1945 -2.3963 0.9736
-2.5052 -5.7295 -2.3963 0.9736
-1.5120 -6.3445 -2.4994 0.9724
-0.3631 -6.5121 -2.4994 0.9724
0.7973 -6.4733 -2.4994 0.9724
1.9324 -6.2294 -2.4994 0.9724
3.5095 -5.4975 -2.4994 0.9724
5.8212 -2.9416 -2.4994 0.9724
6.0599 -2.4118 -2.4994 0.9724
6.4630 -0.1440 -2.4773 0.9727
6.3273 1.5826 -2.4994 0.9724
6.1613 2.1394 -2.4994 0.9724
5.9465 2.6794 -2.4994 0.9724
5.6844 3.1980 -2.4994 0.9724
5.3772 3.6912 -2.4994 0.9724
4.2109 4.9807 -2.4994 0.9724
3.7509 5.3357 -2.4994 0.9724
2.7454 5.9162 -2.4994 0.9724
2.2080 6.1371 -2.4994 0.9724
1.0848 6.4314 -2.4994 0.9724
0.5081 6.5024 -2.4994 0.9724
-0.0727 6.5218 -2.4994 0.9724
-1.2278 6.4056 -2.4994 0.9724
-1.7192 6.0122 -2.3963 0.9736
-2.2474 5.8354 -2.3963 0.9736
-2.7579 5.6122 -2.3963 0.9736
-3.2465 5.3444 -2.3963 0.9736
-4.1426 4.6841 -2.3963 0.9736
-4.5431 4.2968 -2.3963 0.9736
-5.2330 3.4233 -2.3963 0.9736
-5.5169 2.9439 -2.3963 0.9736
-5.5014 1.2464 -2.1617 0.9761
-11.8373 1.5920 -4.5771 0.9501
-18.4028 0.8206 -7.0593 0.9241
-5.5950 -2.3725 -2.3289 0.9743
-5.5169 -2.9439 -2.3963 0.9736
-4.9075 -3.8754 -2.3963 0.9736
-3.7093 -5.0343 -2.3963 0.9736
-3.2465 -5.3444 -2.3963 0.9736
-2.7579 -5.6122 -2.3963 0.9736
-2.2474 -5.8354 -2.3963 0.9736
0.5081 -6.5024 -2.4994 0.9724
1.6530 -6.3093 -2.4994 0.9724
2.7454 -5.9162 -2.4994 0.9724
3.2611 -5.6484 -2.4994 0.9724
3.7509 -5.3357 -2.4994 0.9724
4.2109 -4.9807 -2.4994 0.9724
5.0273 -4.1552 -2.4994 0.9724
5.3772 -3.6912 -2.4994 0.9724
5.6844 -3.1980 -2.4994 0.9724
6.1613 -2.1395 -2.4994 0.9724
6.3273 -1.5826 -2.4994 0.9724
6.4430 -1.0131 -2.4994 0.9724
6.4630 0.7230 -2.4922 0.9725
6.3915 1.2991 -2.4994 0.9724
6.2505 1.8629 -2.4994 0.9724
6.0599 2.4118 -2.4994 0.9724
5.8212 2.9416 -2.4994 0.9724
5.2074 3.9271 -2.4994 0.9724
4.8372 4.3750 -2.4994 0.9724
4.4286 4.7882 -2.4994 0.9724
3.9849 5.1634 -2.4994 0.9724
3.5095 5.4975 -2.4994 0.9724
1.3703 6.3766 -2.4994 0.9724
0.7973 6.4733 -2.4994 0.9724
-0.9413 6.4539 -2.4994 0.9724
-1.9853 5.9297 -2.3963 0.9736
-2.5052 5.7295 -2.3963 0.9736
-3.4813 5.1945 -2.3963 0.9736
-5.3803 3.1868 -2.3963 0.9736
-8.5242 4.0717 -3.6202 0.9603
-9.1461 3.4061 -3.7401 0.9591
-10.0108 2.7422 -3.9777 0.9565
-14.0867 1.2588 -5.4198 0.9412
-1.6390 -0.1465 -0.6735 0.9929
-1.6200 -0.2919 -0.6737 0.9929
-1.6035 -0.4392 -0.6804 0.9928
-5.4870 -2.0434 -2.3963 0.9750
-5.2833 -2.5236 -2.3963 0.9750
-5.0377 -2.9838 -2.3963 0.9750
-4.7522 -3.4204 -2.3963 0.9750
-4.0704 -4.2088 -2.3963 0.9750
-2.8138 -5.1346 -2.3963 0.9750
-1.8589 -5.5522 -2.3963 0.9750
-1.4157 -5.9406 -2.4994 0.9740
0.2041 -6.1036 -2.4994 0.9740
0.7465 -6.0612 -2.4994 0.9740
1.2830 -5.9707 -2.4994 0.9740
2.8149 -5.4196 -2.4994 0.9740
3.2861 -5.1475 -2.4994 0.9740
4.1467 -4.4833 -2.4994 0.9740
4.8759 -3.6771 -2.4994 0.9740
5.1838 -3.2285 -2.4994 0.9740
5.4506 -2.7543 -2.4994 0.9740
5.6741 -2.2582 -2.4994 0.9740
5.8526 -1.7443 -2.4994 0.9740
5.9846 -1.2164 -2.4994 0.9740
6.1055 -0.1361 -2.4994 0.9740
6.0933 0.4079 -2.4994 0.9740
6.0328 0.9486 -2.4994 0.9740
5.7691 2.0032 -2.4994 0.9740
5.5679 2.5088 -2.4994 0.9740
5.0348 3.4562 -2.4994 0.9740
3.0535 5.2888 -2.4994 0.9740
2.0674 5.7464 -2.4994 0.9740
1.5477 5.9076 -2.4994 0.9740
-0.0680 6.1066 -2.4994 0.9740
-0.6113 6.0763 -2.4994 0.9740
-1.1497 5.9978 -2.4994 0.9740
-1.6097 5.6295 -2.3963 0.9750
-2.1044 5.4639 -2.3963 0.9750
-3.0398 5.0042 -2.3963 0.9750
-3.8789 4.3859 -2.3963 0.9750
-4.2539 4.0233 -2.3963 0.9750
-4.5951 3.6287 -2.3963 0.9750
-4.8998 3.2053 -2.3963 0.9750
-5.1656 2.7565 -2.3963 0.9750
-1.5889 0.5124 -0.6833 0.9928
-1.6146 0.3658 -0.6776 0.9929
-18.1901 0.8111 -7.4521 0.9243
-1.6301 -0.2192 -0.6732 0.9929
-1.6146 -0.3658 -0.6776 0.9929
-5.1656 -2.7565 -2.3963 0.9750
-4.8998 -3.2053 -2.3963 0.9750
-4.2539 -4.0233 -2.3963 0.9750
-3.8789 -4.3859 -2.3963 0.9750
-3.0398 -5.0042 -2.3963 0.9750
-2.5823 -5.2549 -2.3963 0.9750
-1.6097 -5.6295 -2.3963 0.9750
-1.1497 -5.9978 -2.4994 0.9740
-0.6113 -6.0763 -2.4994 0.9740
-0.0680 -6.1066 -2.4994 0.9740
0.4758 -6.0884 -2.4994 0.9740
1.0158 -6.0219 -2.4994 0.9740
2.0674 -5.7464 -2.4994 0.9740
2.5706 -5.5396 -2.4994 0.9740
3.5121 -4.9960 -2.4994 0.9740
5.0348 -3.4562 -2.4994 0.9740
5.3225 -2.9944 -2.4994 0.9740
5.5679 -2.5087 -2.4994 0.9740
6.0328 -0.9486 -2.4994 0.9740
6.0691 0.6789 -2.4994 0.9740
4.5293 4.0965 -2.4994 0.9740
3.2861 5.1475 -2.4994 0.9740
2.3213 5.6486 -2.4994 0.9740
1.8093 5.8328 -2.4994 0.9740
0.7465 6.0612 -2.4994 0.9740
-0.3400 6.0975 -2.4994 0.9740
-0.8813 6.0430 -2.4994 0.9740
-1.4157 5.9406 -2.4994 0.9740
-2.8138 5.1346 -2.3963 0.9750
-3.2597 4.8638 -2.3963 0.9750
-3.6797 4.5544 -2.3963 0.9750
-4.0704 4.2088 -2.3963 0.9750
-4.4289 3.8298 -2.3963 0.9750
-4.7522 3.4204 -2.3963 0.9750
-5.2833 2.5236 -2.3963 0.9750
-5.4870 2.0434 -2.3963 0.9750
-1.6035 0.4392 -0.6804 0.9928
-1.6200 0.2919 -0.6737 0.9929
-1.5266 0.0000 -0.6653 0.9934
-1.5001 -0.4109 -0.6779 0.9932
-5.1528 -1.9189 -2.3963 0.9763
-4.7309 -2.8021 -2.3963 0.9763
-4.4627 -3.2121 -2.3963 0.9763
-4.1591 -3.5965 -2.3963 0.9763
-3.4556 -4.2770 -2.3963 0.9763
-3.0612 -4.5676 -2.3963 0.9763
-2.6425 -4.8219 -2.3963 0.9763
-2.2028 -5.0380 -2.3963 0.9763
-1.7457 -5.2140 -2.3963 0.9763
0.1916 -5.7318 -2.4994 0.9753
0.7010 -5.6921 -2.4994 0.9753
1.6992 -5.4776 -2.4994 0.9753
3.8941 -4.2103 -2.4994 0.9753
4.2534 -3.8470 -2.4994 0.9753
5.3285 -2.1207 -2.4994 0.9753
5.6201 -1.1423 -2.4994 0.9753
5.6995 -0.6376 -2.4994 0.9753
5.6654 0.8908 -2.4994 0.9753
5.4177 1.8812 -2.4994 0.9753
4.0778 4.0326 -2.4994 0.9753
2.4141 5.2022 -2.4994 0.9753
-0.5741 5.7062 -2.4994 0.9753
-1.0797 5.6325 -2.4994 0.9753
-1.5767 5.5141 -2.4994 0.9753
-1.9762 5.1311 -2.3963 0.9763
-2.4251 4.9348 -2.3963 0.9763
-2.8547 4.6994 -2.3963 0.9763
-3.6427 4.1188 -2.3963 0.9763
-4.6014 3.0101 -2.3963 0.9763
-4.8510 2.5886 -2.3963 0.9763
-1.4861 0.4792 -0.6805 0.9932
-1.5029 0.3405 -0.6716 0.9933
-1.5133 0.2035 -0.6654 0.9934
-1.5259 -0.0680 -0.6657 0.9934
-1.5133 -0.2035 -0.6654 0.9934
-1.5029 -0.3405 -0.6716 0.9933
-4.8511 -2.5886 -2.3963 0.9763
-4.6014 -3.0101 -2.3963 0.9763
-4.3152 -3.4077 -2.3963 0.9763
-3.6427 -4.1188 -2.3963 0.9763
-3.2616 -4.4267 -2.3963 0.9763
-2.8547 -4.6994 -2.3963 0.9763
0.4468 -5.7176 -2.4994 0.9753
0.9539 -5.6552 -2.4994 0.9753
1.4535 -5.5478 -2.4994 0.9753
1.9415 -5.3964 -2.4994 0.9753
2.4141 -5.2022 -2.4994 0.9753
3.7027 -4.3796 -2.4994 0.9753
4.0778 -4.0327 -2.4994 0.9753
4.4206 -3.6537 -2.4994 0.9753
4.9983 -2.8120 -2.4994 0.9753
5.2288 -2.3560 -2.4994 0.9753
5.5637 -1.3916 -2.4994 0.9753
5.6654 -0.8909 -2.4994 0.9753
5.6995 0.6376 -2.4994 0.9753
5.1186 2.5866 -2.4994 0.9753
4.5789 3.4531 -2.4994 0.9753
4.2534 3.8470 -2.4994 0.9753
3.8941 4.2103 -2.4994 0.9753
1.6992 5.4776 -2.4994 0.9753
1.2049 5.6071 -2.4994 0.9753
0.1916 5.7318 -2.4994 0.9753
-1.3295 5.5788 -2.4994 0.9753
-2.2028 5.0380 -2.3963 0.9763
-3.0612 4.5676 -2.3963 0.9763
-3.4556 4.2770 -2.3963 0.9763
-3.8225 3.9525 -2.3963 0.9763
-4.1591 3.5965 -2.3963 0.9763
-4.4627 3.2121 -2.3963 0.9763
-4.7309 2.8021 -2.3963 0.9763
-5.1528 1.9189 -2.3963 0.9763
-1.5001 0.4109 -0.6779 0.9932
-1.5215 0.1360 -0.6657 0.9934
-1.4172 -0.1266 -0.6586 0.9937
-1.3993 -0.2521 -0.6581 0.9938
-1.3946 -0.3820 -0.6693 0.9936
-4.6714 -2.2313 -2.3963 0.9774
-4.2018 -3.0243 -2.3963 0.9774
-2.8822 -4.3005 -2.3963 0.9774
-2.4880 -4.5400 -2.3963 0.9774
-1.6436 -4.9091 -2.3963 0.9774
0.1804 -5.3967 -2.4994 0.9765
0.6600 -5.3592 -2.4994 0.9765
1.1344 -5.2792 -2.4994 0.9765
1.5998 -5.1573 -2.4994 0.9765
2.4888 -4.7919 -2.4994 0.9765
4.3112 -3.2512 -2.4994 0.9765
4.5834 -2.8546 -2.4994 0.9765
4.8193 -2.4353 -2.4994 0.9765
5.0169 -1.9967 -2.4994 0.9765
5.1747 -1.5422 -2.4994 0.9765
5.3876 0.3607 -2.4994 0.9765
5.3341 0.8388 -2.4994 0.9765
5.1009 1.7712 -2.4994 0.9765
4.7060 2.6476 -2.4994 0.9765
4.4517 3.0559 -2.4994 0.9765
4.1621 3.4400 -2.4994 0.9765
3.8394 3.7968 -2.4994 0.9765
3.1053 4.4174 -2.4994 0.9765
2.2729 4.8980 -2.4994 0.9765
1.8279 5.0809 -2.4994 0.9765
0.4207 5.3833 -2.4994 0.9765
-0.0602 5.3993 -2.4994 0.9765
-0.5405 5.3726 -2.4994 0.9765
-2.2832 4.6463 -2.3963 0.9774
-2.6877 4.4246 -2.3963 0.9774
-3.4296 3.8780 -2.3963 0.9774
-3.7612 3.5573 -2.3963 0.9774
-4.0629 3.2084 -2.3963 0.9774
-4.3323 2.8341 -2.3963 0.9774
-4.5674 2.4372 -2.3963 0.9774
-4.7662 2.0210 -2.3963 0.9774
-1.3967 0.3165 -0.6629 0.9937
-1.4212 0.0634 -0.6585 0.9937
-1.4212 -0.0634 -0.6585 0.9937
-1.3967 -0.3165 -0.6629 0.9937
-4.7662 -2.0210 -2.3963 0.9774
-4.5674 -2.4372 -2.3963 0.9774
-4.0629 -3.2084 -2.3963 0.9774
-3.7612 -3.5573 -2.3963 0.9774
-3.4296 -3.8780 -2.3963 0.9774
-2.6877 -4.4246 -2.3963 0.9774
-1.8606 -4.8311 -2.3963 0.9774
-1.4845 -5.1916 -2.4994 0.9765
-0.0602 -5.3993 -2.4994 0.9765
0.4207 -5.3833 -2.4994 0.9765
0.8981 -5.3245 -2.4994 0.9765
2.6998 -4.6762 -2.4994 0.9765
3.1053 -4.4174 -2.4994 0.9765
3.4862 -4.1235 -2.4994 0.9765
3.8394 -3.7968 -2.4994 0.9765
4.1621 -3.4400 -2.4994 0.9765
4.4517 -3.0559 -2.4994 0.9765
4.9230 -2.2182 -2.4994 0.9765
5.1009 -1.7712 -2.4994 0.9765
5.3662 0.6003 -2.4994 0.9765
5.2915 1.0755 -2.4994 0.9765
5.0169 1.9967 -2.4994 0.9765
4.8193 2.4353 -2.4994 0.9765
4.3112 3.2512 -2.4994 0.9765
4.0047 3.6220 -2.4994 0.9765
3.6664 3.9641 -2.4994 0.9765
3.2990 4.2747 -2.4994 0.9765
2.9055 4.5513 -2.4994 0.9765
2.4888 4.7919 -2.4994 0.9765
1.5998 5.1572 -2.4994 0.9765
1.1344 5.2792 -2.4994 0.9765
0.1804 5.3967 -2.4994 0.9765
-0.3006 5.3913 -2.4994 0.9765
-0.7793 5.3431 -2.4994 0.9765
-1.2518 5.2526 -2.4994 0.9765
-2.0668 3.0839 -1.7185 0.9838
-3.2535 4.0269 -2.3963 0.9774
-4.4543 2.6383 -2.3963 0.9774
-4.6714 2.2313 -2.3963 0.9774
-4.8515 1.8067 -2.3963 0.9774
-1.3993 0.2521 -0.6581 0.9938
-1.3317 -0.1190 -0.6558 0.9941
-1.3159 -0.2371 -0.6559 0.9941
-1.3061 -0.3578 -0.6642 0.9940
-1.2931 -0.4815 -0.6768 0.9939
-4.4082 -2.1056 -2.3963 0.9785
-3.9650 -2.8538 -2.3963 0.9785
-3.6953 -3.1954 -2.3963 0.9785
-3.3962 -3.5116 -2.3963 0.9785
-2.0470 -3.0543 -1.8036 0.9838
-2.3478 -4.2841 -2.3963 0.9785
-1.9571 -4.4761 -2.3963 0.9785
-1.5830 -4.7283 -2.4459 0.9780
-0.7354 -5.0421 -2.4994 0.9776
-0.2837 -5.0875 -2.4994 0.9776
1.5097 -4.8667 -2.4994 0.9776
1.9368 -4.7130 -2.4994 0.9776
3.4598 -3.7407 -2.4994 0.9776
3.7790 -3.4179 -2.4994 0.9776
4.3252 -2.6937 -2.4994 0.9776
4.5478 -2.2981 -2.4994 0.9776
4.7343 -1.8842 -2.4994 0.9776
4.9933 -1.0149 -2.4994 0.9776
5.0336 0.7915 -2.4994 0.9776
4.9432 1.2364 -2.4994 0.9776
4.6456 2.0932 -2.4994 0.9776
3.2898 3.8911 -2.4994 0.9776
2.5477 4.4128 -2.4994 0.9776
2.1448 4.6220 -2.4994 0.9776
1.7250 4.7946 -2.4994 0.9776
1.2914 4.9291 -2.4994 0.9776
0.8475 5.0245 -2.4994 0.9776
-0.0568 5.0951 -2.4994 0.9776
-0.9592 5.0043 -2.4994 0.9776
-2.1546 4.3845 -2.3963 0.9785
-2.5363 4.1753 -2.3963 0.9785
-3.2364 3.6595 -2.3963 0.9785
-4.0882 2.6744 -2.3963 0.9785
-4.3100 2.2999 -2.3963 0.9785
-4.4976 1.9071 -2.3963 0.9785
-1.3003 0.4193 -0.6702 0.9939
-1.3089 0.2966 -0.6583 0.9940
-1.3251 0.1782 -0.6559 0.9941
-1.3355 0.0596 -0.6558 0.9941
-1.3355 -0.0596 -0.6558 0.9941
-1.3089 -0.2966 -0.6583 0.9940
-4.0882 -2.6744 -2.3963 0.9785
-3.5493 -3.3569 -2.3963 0.9785
-3.2364 -3.6595 -2.3963 0.9785
-2.8978 -3.9330 -2.3963 0.9785
-2.5363 -4.1753 -2.3963 0.9785
-2.1546 -4.3845 -2.3963 0.9785
-0.0568 -5.0951 -2.4994 0.9776
0.8475 -5.0245 -2.4994 0.9776
1.7249 -4.7946 -2.4994 0.9776
2.1448 -4.6220 -2.4994 0.9776
2.5477 -4.4128 -2.4994 0.9776
2.9304 -4.1685 -2.4994 0.9776
3.6230 -3.5829 -2.4994 0.9776
4.4409 -2.4984 -2.4994 0.9776
4.6456 -2.0932 -2.4994 0.9776
4.8135 -1.6714 -2.4994 0.9776
5.0336 -0.7915 -2.4994 0.9776
5.0841 -0.3403 -2.4994 0.9776
5.0942 0.1135 -2.4994 0.9776
5.0638 0.5665 -2.4994 0.9776
4.7343 1.8842 -2.4994 0.9776
4.5478 2.2981 -2.4994 0.9776
4.3252 2.6937 -2.4994 0.9776
4.0683 3.0680 -2.4994 0.9776
3.7790 3.4179 -2.4994 0.9776
3.4598 3.7407 -2.4994 0.9776
3.1132 4.0338 -2.4994 0.9776
1.0705 4.9817 -2.4994 0.9776
0.1703 5.0926 -2.4994 0.9776
-0.2837 5.0875 -2.4994 0.9776
-1.1812 4.9566 -2.4994 0.9776
-2.3478 4.2841 -2.3963 0.9785
-2.0410 3.0454 -1.7983 0.9838
-3.3962 3.5116 -2.3963 0.9785
-4.2033 2.4896 -2.3963 0.9785
-4.4082 2.1056 -2.3963 0.9785
-1.2931 0.4815 -0.6768 0.9939
-1.3061 0.3578 -0.6642 0.9940
-1.3159 0.2371 -0.6559 0.9941
-1.3317 0.1190 -0.6558 0.9941
-1.2576 -0.1124 -0.6550 0.9943
-1.2426 -0.2239 -0.6550 0.9943
-3.9744 -2.3540 -2.3963 0.9794
-3.4940 -3.0214 -2.3963 0.9794
-2.9029 -3.5930 -2.3963 0.9794
-2.2199 -4.0508 -2.3963 0.9794
-1.8505 -4.2323 -2.3963 0.9794
-0.2682 -4.8104 -2.4994 0.9785
0.1610 -4.8152 -2.4994 0.9785
1.8313 -4.4563 -2.4994 0.9785
2.5924 -4.0610 -2.4994 0.9785
2.9436 -3.8141 -2.4994 0.9785
3.2714 -3.5370 -2.4994 0.9785
3.8467 -2.9009 -2.4994 0.9785
4.0896 -2.5470 -2.4994 0.9785
4.3001 -2.1729 -2.4994 0.9785
4.4764 -1.7816 -2.4994 0.9785
4.7880 -0.5356 -2.4994 0.9785
4.8167 -0.1073 -2.4994 0.9785
4.8071 0.3218 -2.4994 0.9785
4.7594 0.7484 -2.4994 0.9785
4.3926 1.9792 -2.4994 0.9785
3.7136 3.0694 -2.4994 0.9785
3.4257 3.3877 -2.4994 0.9785
3.1106 3.6792 -2.4994 0.9785
2.7708 3.9415 -2.4994 0.9785
2.4090 4.1724 -2.4994 0.9785
2.0280 4.3703 -2.4994 0.9785
1.6310 4.5334 -2.4994 0.9785
0.8014 4.7508 -2.4994 0.9785
-0.0537 4.8176 -2.4994 0.9785
-0.4822 4.7937 -2.4994 0.9785
-0.9070 4.7318 -2.4994 0.9785
-1.3246 4.6322 -2.4994 0.9785
-1.6602 4.3105 -2.3963 0.9794
-2.0372 4.1457 -2.3963 0.9794
-2.1783 2.9565 -1.9051 0.9836
-3.0601 3.4602 -2.3963 0.9794
-4.0753 2.1746 -2.3963 0.9794
-4.2527 1.8033 -2.3963 0.9794
-1.2222 0.3941 -0.6662 0.9942
-1.2316 0.2790 -0.6551 0.9943
-1.2514 0.1683 -0.6551 0.9943
-1.2514 -0.1683 -0.6551 0.9943
-1.2316 -0.2790 -0.6551 0.9943
-1.2222 -0.3941 -0.6662 0.9942
-4.2527 -1.8033 -2.3963 0.9794
-3.6251 -2.8627 -2.3963 0.9794
-3.3560 -3.1740 -2.3963 0.9794
-3.0601 -3.4601 -2.3963 0.9794
-2.3981 -3.9479 -2.3963 0.9794
-2.0372 -4.1457 -2.3963 0.9794
-1.6602 -4.3105 -2.3963 0.9794
-1.3246 -4.6322 -2.4994 0.9785
-0.0537 -4.8176 -2.4994 0.9785
0.8014 -4.7508 -2.4994 0.9785
2.0280 -4.3703 -2.4994 0.9785
2.4090 -4.1724 -2.4994 0.9785
3.1106 -3.6792 -2.4994 0.9785
3.4257 -3.3877 -2.4994 0.9785
3.7136 -3.0694 -2.4994 0.9785
3.9721 -2.7267 -2.4994 0.9785
4.1990 -2.3623 -2.4994 0.9785
4.7594 -0.7484 -2.4994 0.9785
4.8071 -0.3218 -2.4994 0.9785
4.8167 0.1073 -2.4994 0.9785
4.7880 0.5356 -2.4994 0.9785
4.6172 1.3761 -2.4994 0.9785
4.4764 1.7816 -2.4994 0.9785
4.0896 2.5470 -2.4994 0.9785
3.5732 3.2318 -2.4994 0.9785
3.2714 3.5370 -2.4994 0.9785
2.5924 4.0610 -2.4994 0.9785
2.2207 4.2756 -2.4994 0.9785
1.4274 4.6016 -2.4994 0.9785
-0.2682 4.8104 -2.4994 0.9785
-0.6953 4.7675 -2.4994 0.9785
-1.5296 4.5687 -2.4994 0.9785
-2.2199 4.0508 -2.3963 0.9794
-3.7491 2.6984 -2.3963 0.9794
-3.9744 2.3540 -2.3963 0.9794
-1.2162 0.4529 -0.6733 0.9942
-1.2283 0.3365 -0.6607 0.9943
-1.2576 0.1124 -0.6550 0.9943
-1.1944 0.0000 -0.6542 0.9946
-1.1756 -0.2118 -0.6543 0.9946
-3.9480 -1.8858 -2.3963 0.9802
-3.7645 -2.2297 -2.3963 0.9802
-3.5511 -2.5559 -2.3963 0.9802
-3.0416 -3.1450 -2.3963 0.9802
-2.7496 -3.4033 -2.3963 0.9802
-0.6586 -4.5157 -2.4994 0.9794
-0.2541 -4.5564 -2.4994 0.9794
0.1525 -4.5609 -2.4994 0.9794
0.5578 -4.5293 -2.4994 0.9794
2.7881 -3.6127 -2.4994 0.9794
3.0986 -3.3502 -2.4994 0.9794
3.6435 -2.7477 -2.4994 0.9794
3.8736 -2.4125 -2.4994 0.9794
4.2400 -1.6875 -2.4994 0.9794
4.3734 -1.3034 -2.4994 0.9794
4.4720 -0.9090 -2.4994 0.9794
4.5352 -0.5073 -2.4994 0.9794
4.5623 -0.1017 -2.4994 0.9794
4.5533 0.3048 -2.4994 0.9794
4.5081 0.7089 -2.4994 0.9794
4.4271 1.1073 -2.4994 0.9794
4.1606 1.8747 -2.4994 0.9794
3.9773 2.2376 -2.4994 0.9794
3.7623 2.5827 -2.4994 0.9794
3.5175 2.9073 -2.4994 0.9794
2.9463 3.4849 -2.4994 0.9794
1.9209 4.1395 -2.4994 0.9794
1.5449 4.2940 -2.4994 0.9794
0.3555 4.5496 -2.4994 0.9794
-0.4568 4.5405 -2.4994 0.9794
-0.8591 4.4819 -2.4994 0.9794
-1.5888 4.1252 -2.4211 0.9800
-1.9297 3.9267 -2.3963 0.9802
-2.2715 3.7394 -2.3963 0.9802
-2.1751 2.9521 -2.0083 0.9834
-3.1787 3.0064 -2.3963 0.9802
-3.6614 2.3952 -2.3963 0.9802
-1.1411 0.4838 -0.6788 0.9944
-1.1515 0.3713 -0.6626 0.9945
-1.1840 0.1592 -0.6543 0.9946
-1.1933 0.0532 -0.6542 0.9946
-1.1840 -0.1592 -0.6543 0.9946
-1.1649 -0.2639 -0.6542 0.9946
-1.1515 -0.3713 -0.6626 0.9945
-1.1411 -0.4838 -0.6788 0.9944
-3.6614 -2.3952 -2.3963 0.9802
-3.1787 -3.0064 -2.3963 0.9802
-2.5953 -3.5224 -2.3963 0.9802
-1.9297 -3.9267 -2.3963 0.9802
-1.2546 -4.3876 -2.4994 0.9794
-0.4568 -4.5405 -2.4994 0.9794
-0.0508 -4.5632 -2.4994 0.9794
0.7590 -4.4999 -2.4994 0.9794
1.1565 -4.4145 -2.4994 0.9794
1.9209 -4.1395 -2.4994 0.9794
2.2817 -3.9521 -2.4994 0.9794
2.6244 -3.7333 -2.4994 0.9794
3.2448 -3.2088 -2.4994 0.9794
3.5175 -2.9073 -2.4994 0.9794
3.7623 -2.5827 -2.4994 0.9794
4.1606 -1.8747 -2.4994 0.9794
4.3110 -1.4969 -2.4994 0.9794
4.4271 -1.1073 -2.4994 0.9794
4.5081 -0.7089 -2.4994 0.9794
4.5533 -0.3048 -2.4994 0.9794
4.5623 0.1017 -2.4994 0.9794
4.4720 0.9090 -2.4994 0.9794
4.3734 1.3034 -2.4994 0.9794
4.2400 1.6875 -2.4994 0.9794
4.0730 2.0582 -2.4994 0.9794
3.6435 2.7477 -2.4994 0.9794
2.4555 3.8465 -2.4994 0.9794
2.1034 4.0498 -2.4994 0.9794
1.7346 4.2209 -2.4994 0.9794
0.5578 4.5293 -2.4994 0.9794
0.1525 4.5609 -2.4994 0.9794
-0.2541 4.5564 -2.4994 0.9794
-2.1027 3.8369 -2.3963 0.9802
-2.0325 3.0326 -1.9995 0.9835
-3.5511 2.5559 -2.3963 0.9802
-3.7645 2.2297 -2.3963 0.9802
-3.9480 1.8858 -2.3963 0.9802
-1.1899 0.1063 -0.6543 0.9946
-1.1319 0.0000 -0.6535 0.9948
-1.0827 -0.4032 -0.6671 0.9947
-3.7453 -1.7890 -2.3963 0.9810
-3.5712 -2.1152 -2.3963 0.9810
-3.3687 -2.4247 -2.3963 0.9810
-3.1396 -2.7149 -2.3963 0.9810
-0.2410 -4.3224 -2.4994 0.9802
0.1447 -4.3267 -2.4994 0.9802
0.5292 -4.2967 -2.4994 0.9802
0.9095 -4.2325 -2.4994 0.9802
1.2826 -4.1348 -2.4994 0.9802
1.6455 -4.0042 -2.4994 0.9802
1.9954 -3.8418 -2.4994 0.9802
2.3294 -3.6490 -2.4994 0.9802
2.6450 -3.4272 -2.4994 0.9802
3.2107 -2.9039 -2.4994 0.9802
3.6747 -2.2887 -2.4994 0.9802
3.8638 -1.9525 -2.4994 0.9802
4.1488 -1.2365 -2.4994 0.9802
4.2424 -0.8623 -2.4994 0.9802
4.3023 -0.4813 -2.4994 0.9802
4.3281 -0.0964 -2.4994 0.9802
4.2766 0.6725 -2.4994 0.9802
4.1998 1.0504 -2.4994 0.9802
4.0896 1.4201 -2.4994 0.9802
3.5691 2.4501 -2.4994 0.9802
2.4897 3.5416 -2.4994 0.9802
2.1646 3.7491 -2.4994 0.9802
1.8223 3.9269 -2.4994 0.9802
1.4655 4.0735 -2.4994 0.9802
0.3373 4.3160 -2.4994 0.9802
-0.0482 4.3289 -2.4994 0.9802
-1.1902 4.1623 -2.4994 0.9802
-1.5559 4.0399 -2.4994 0.9802
-2.1718 2.9476 -2.1138 0.9832
-2.7497 3.1091 -2.3963 0.9810
-3.2574 2.5723 -2.3963 0.9810
-3.4734 2.2722 -2.3963 0.9810
-1.0769 0.4566 -0.6753 0.9946
-1.1220 0.1509 -0.6536 0.9948
-1.0870 -0.3505 -0.6594 0.9947
-1.0769 -0.4566 -0.6753 0.9946
-3.6619 -1.9540 -2.3963 0.9810
-3.4734 -2.2722 -2.3963 0.9810
-3.2574 -2.5723 -2.3963 0.9810
-2.7497 -3.1091 -2.3963 0.9810
-2.1549 -3.5474 -2.3963 0.9810
-1.5559 -4.0399 -2.4994 0.9802
-0.4333 -4.3074 -2.4994 0.9802
1.0972 -4.1878 -2.4994 0.9802
1.4655 -4.0735 -2.4994 0.9802
1.8223 -3.9269 -2.4994 0.9802
2.1646 -3.7492 -2.4994 0.9802
2.4897 -3.5416 -2.4994 0.9802
2.7950 -3.3060 -2.4994 0.9802
3.7730 -2.1227 -2.4994 0.9802
3.9470 -1.7784 -2.4994 0.9802
4.1998 -1.0504 -2.4994 0.9802
4.2766 -0.6725 -2.4994 0.9802
3.8638 1.9525 -2.4994 0.9802
2.3294 3.6490 -2.4994 0.9802
1.9954 3.8419 -2.4994 0.9802
0.9095 4.2325 -2.4994 0.9802
-1.0036 4.2112 -2.4994 0.9802
-1.3744 4.1052 -2.4994 0.9802
-1.6628 3.8029 -2.3963 0.9810
-1.9947 3.6398 -2.3963 0.9810
-2.6085 3.2285 -2.3963 0.9810
-2.8855 2.9835 -2.3963 0.9810
-3.1396 2.7149 -2.3963 0.9810
-3.3687 2.4247 -2.3963 0.9810
-3.5712 2.1152 -2.3963 0.9810
-1.0934 0.2995 -0.6545 0.9948
