ply
format ascii 1.0
element vertex 1453
property float32 x
property float32 y
property float32 z
property float32 I
end_header
7.0656 -15.2261 2.1858 0.9345
12.0285 15.5858 2.1141 0.9239
11.9964 15.5442 1.6622 0.9242
12.0353 15.5945 1.2215 0.9241
11.4575 16.2986 0.7856 0.9233
7.0637 -15.2218 0.6617 0.9350
17.9263 0.3995 0.3029 0.9308
-18.6278 6.9371 0.3358 0.9236
17.7860 -0.3963 -0.1002 0.9313
11.4575 16.2986 -0.1122 0.9234
-18.5773 5.9904 -0.1099 0.9249
17.9263 0.3995 -0.1010 0.9308
-18.4151 6.8578 -0.1106 0.9244
17.7860 -0.3964 -0.5009 0.9313
12.8979 15.2557 -0.5625 0.9232
7.0614 -15.2170 -0.4724 0.9351
17.6476 -1.1814 -0.4980 0.9317
12.0353 15.5945 -0.5547 0.9242
17.7860 -0.3963 -0.9022 0.9312
11.4575 16.2986 -1.0104 0.9233
12.0353 15.5945 -0.9990 0.9241
17.7860 -0.3964 -1.3044 0.9311
-10.2322 13.8873 -1.2648 0.9332
-12.5926 11.9100 -1.2709 0.9328
7.0599 -15.2137 -1.2298 0.9349
17.9263 0.3995 -1.3147 0.9306
-12.0982 12.5095 -1.2760 0.9326
-16.0395 9.5002 -1.3669 0.9280
-17.6690 8.4397 -1.4357 0.9245
-17.8014 6.6293 -1.3928 0.9266
0.3397 -10.1611 -0.9761 0.9600
10.4619 -16.3884 -1.8666 0.9248
10.4675 -13.5632 -1.6448 0.9335
10.5261 -7.9381 -1.2657 0.9484
17.7860 -0.3963 -1.7080 0.9310
-8.6307 17.5630 -1.8787 0.9244
-8.9174 14.6800 -1.6490 0.9333
-9.7258 13.2000 -1.5741 0.9362
-10.9089 12.3348 -1.5809 0.9360
-13.5449 10.6963 -1.6570 0.9330
-14.5916 9.5454 -1.6740 0.9323
-16.7924 8.9607 -1.8273 0.9264
-18.0244 7.6429 -1.8796 0.9243
-17.8384 5.7521 -1.7994 0.9275
-5.8345 -15.1490 -1.5585 0.9368
10.5246 -8.6988 -1.3109 0.9466
12.0353 15.5945 -1.8912 0.9239
-10.5671 13.0791 -1.6143 0.9347
-15.3548 9.0947 -1.7133 0.9308
-5.6582 -10.3248 -1.3985 0.9537
10.4675 -13.5632 -2.0351 0.9333
10.4757 -9.4747 -1.6778 0.9447
10.5248 -7.9372 -1.5659 0.9483
17.7860 -0.3963 -2.1133 0.9308
-8.5669 14.1030 -1.9601 0.9357
-11.5123 10.8883 -1.8823 0.9382
-13.0370 10.2952 -1.9733 0.9353
-14.1244 9.2398 -2.0049 0.9343
-16.0575 8.5686 -2.1620 0.9293
-17.7679 7.5342 -2.2925 0.9252
-17.6036 5.6764 -2.1971 0.9282
10.4649 -14.8865 -2.1615 0.9293
10.4739 -10.3579 -1.7498 0.9424
10.4923 -8.6721 -1.6169 0.9466
10.5366 -2.6354 -1.2902 0.9572
17.6476 -1.1814 -2.1010 0.9312
17.9293 0.3996 -2.1303 0.9303
-8.4098 15.3460 -2.0787 0.9319
-10.7438 11.1090 -1.8358 0.9396
-13.7324 9.8840 -2.0098 0.9341
-14.7268 8.7227 -2.0332 0.9334
-17.5870 8.4006 -2.3152 0.9245
-17.3412 6.4579 -2.1981 0.9282
-5.6157 -12.8435 -1.9861 0.9449
-2.4408 -16.7356 -2.3963 0.9340
-0.9821 -17.6129 -2.4994 0.9312
5.2264 -16.8482 -2.4994 0.9312
6.4716 -15.7478 -2.4124 0.9335
10.3324 -13.3881 -2.3962 0.9340
10.4720 -11.3222 -2.1852 0.9396
10.4757 -9.4747 -2.0013 0.9445
10.6565 -4.2412 -1.6251 0.9547
10.5356 -3.1400 -1.5577 0.9566
16.9701 -1.8984 -2.4195 0.9333
17.0718 -0.3804 -2.4195 0.9333
16.8687 2.6525 -2.4195 0.9333
16.5657 4.1434 -2.4195 0.9333
15.5686 7.0149 -2.4195 0.9333
13.1621 10.8788 -2.4195 0.9333
11.0247 13.0401 -2.4195 0.9333
9.7257 13.8351 -2.3962 0.9340
7.1186 15.3403 -2.3962 0.9340
4.4707 17.0643 -2.4994 0.9312
1.3742 17.5866 -2.4994 0.9312
-3.1839 16.6102 -2.3963 0.9340
-4.6497 16.2609 -2.3963 0.9340
-7.8868 16.0491 -2.5337 0.9303
-8.2393 13.5638 -2.2486 0.9379
-13.6840 8.9517 -2.3169 0.9361
-15.3812 8.2077 -2.4702 0.9320
-17.4529 5.6278 -2.5983 0.9286
-5.8954 -9.7052 -1.6090 0.9552
-5.6129 -11.4220 -1.8032 0.9499
-4.6497 -16.2609 -2.3963 0.9340
0.7520 -9.6231 -1.3677 0.9618
5.9717 -16.5987 -2.4994 0.9312
7.1186 -15.3403 -2.3962 0.9340
10.4739 -10.3579 -2.0872 0.9422
10.4773 -8.6597 -1.9260 0.9466
10.4802 -7.1943 -1.8011 0.9499
10.4828 -5.8975 -1.7042 0.9526
10.5629 -4.7594 -1.6416 0.9543
10.5255 -3.6549 -1.5787 0.9560
17.0379 -1.1405 -2.4195 0.9333
16.9701 1.8984 -2.4195 0.9333
16.7338 3.4013 -2.4195 0.9333
16.3647 4.8772 -2.4195 0.9333
15.8656 6.3144 -2.4195 0.9333
14.4947 9.0274 -2.4195 0.9333
12.6645 11.4543 -2.4195 0.9333
11.5947 12.5361 -2.4195 0.9333
9.0998 14.2546 -2.3962 0.9340
3.7061 17.2465 -2.4994 0.9312
0.5895 17.6304 -2.4994 0.9312
-0.9821 17.6129 -2.4994 0.9312
-5.5210 12.6269 -1.9526 0.9458
-8.0665 14.7195 -2.3782 0.9344
-9.8309 12.1678 -2.2164 0.9388
-12.0036 10.3799 -2.2485 0.9379
-13.0891 9.4210 -2.2850 0.9369
-14.1896 8.4045 -2.3367 0.9355
-16.7850 8.0175 -2.6356 0.9276
-17.2426 6.4212 -2.6070 0.9284
-5.6493 -5.8413 -1.3387 0.9676
-5.6106 -10.2380 -1.9233 0.9538
-5.6157 -12.8436 -2.3092 0.9448
-4.6182 -13.7937 -2.3963 0.9427
-3.3721 -14.1500 -2.3963 0.9427
-0.8447 -15.1485 -2.4994 0.9403
1.8546 -15.0583 -2.4994 0.9403
4.4951 -14.4909 -2.4994 0.9403
5.7670 -14.0333 -2.4994 0.9403
6.7043 -12.9080 -2.3962 0.9427
7.8266 -12.2601 -2.3962 0.9427
9.8763 -10.6782 -2.3962 0.9427
10.4757 -9.4747 -2.3269 0.9443
10.4815 -6.5280 -2.0342 0.9512
10.4902 -2.1322 -1.7635 0.9575
14.6831 -0.3272 -2.4195 0.9422
14.5085 2.2814 -2.4195 0.9422
13.3903 6.0334 -2.4195 0.9422
12.1084 8.3119 -2.4195 0.9422
11.3205 9.3567 -2.4195 0.9422
9.3908 11.1075 -2.3962 0.9427
7.2726 12.5966 -2.3962 0.9427
6.3864 13.7624 -2.4994 0.9403
5.1362 14.2762 -2.4994 0.9403
3.8451 14.6767 -2.4994 0.9403
2.5236 14.9607 -2.4994 0.9403
-0.1690 15.1711 -2.4994 0.9403
-2.7384 14.2862 -2.3963 0.9427
-5.2280 13.5743 -2.3963 0.9427
-7.9259 13.0477 -2.5150 0.9400
-9.7871 11.0664 -2.4338 0.9419
-12.2061 9.6391 -2.5622 0.9389
-14.7591 7.8757 -2.7559 0.9344
-17.3922 5.6083 -3.0105 0.9286
-5.6483 -5.3421 -1.2807 0.9690
-5.9108 -8.0222 -1.6416 0.9604
-5.6086 -9.2330 -1.7797 0.9572
-5.6129 -11.4220 -2.0966 0.9497
-2.7384 -14.2862 -2.3963 0.9427
1.1820 -15.1259 -2.4994 0.9403
6.3864 -13.7624 -2.4994 0.9403
10.3422 -10.2276 -2.3962 0.9427
10.4773 -8.6597 -2.2393 0.9464
10.4802 -7.1943 -2.0941 0.9498
10.4828 -5.8975 -1.9815 0.9524
10.4851 -4.7244 -1.8945 0.9544
14.6540 -0.9810 -2.4195 0.9422
14.5957 1.6328 -2.4195 0.9422
14.3925 2.9254 -2.4195 0.9422
14.0750 4.1948 -2.4195 0.9422
13.6458 5.4309 -2.4195 0.9422
13.1082 6.6239 -2.4195 0.9422
11.7261 8.8431 -2.4195 0.9422
10.8925 9.8517 -2.4195 0.9422
8.8867 11.5148 -2.3962 0.9427
7.8266 12.2601 -2.3962 0.9427
4.4951 14.4909 -2.4994 0.9403
3.1875 14.8334 -2.4994 0.9403
1.8546 15.0583 -2.4994 0.9403
-0.8447 15.1485 -2.4994 0.9403
-5.5209 12.6266 -2.2703 0.9457
-7.7482 14.1387 -2.6560 0.9367
-10.0878 10.4307 -2.3905 0.9429
-11.6052 10.0354 -2.5275 0.9397
-17.0045 6.3325 -2.9893 0.9291
-18.9938 5.2029 -3.2443 0.9233
-5.6493 -5.8413 -1.5274 0.9675
-5.6069 -8.3660 -1.8930 0.9598
-5.1076 -11.6813 -2.3963 0.9494
-4.0476 -12.0896 -2.3963 0.9494
-2.9555 -12.4018 -2.3963 0.9494
-1.8400 -12.6157 -2.3963 0.9494
-0.7403 -13.2770 -2.4994 0.9473
0.3103 -9.2805 -1.7454 0.9629
2.7937 -13.0008 -2.4994 0.9473
3.9398 -12.7006 -2.4994 0.9473
6.1292 -11.8008 -2.4994 0.9473
10.4883 -3.1259 -2.0571 0.9564
10.4902 -2.1322 -2.0121 0.9574
12.8435 0.8598 -2.4195 0.9490
12.4876 3.1234 -2.4195 0.9490
12.1601 4.2224 -2.4195 0.9490
11.7360 5.2880 -2.4195 0.9490
11.2187 6.3116 -2.4195 0.9490
10.6125 7.2850 -2.4195 0.9490
9.0645 8.9640 -2.3962 0.9494
8.2306 9.7353 -2.3962 0.9494
2.2118 13.1124 -2.4994 0.9473
1.0359 13.2572 -2.4994 0.9473
-0.1481 13.2968 -2.4994 0.9473
-4.5821 11.8973 -2.3963 0.9494
-7.6333 12.5661 -2.7635 0.9419
-5.5005 6.2195 -1.5606 0.9668
-10.4697 9.9021 -2.7086 0.9430
-11.6841 9.2268 -2.7984 0.9412
-12.4294 8.1310 -2.7917 0.9413
-15.3220 6.4971 -3.1282 0.9345
-5.6298 -6.3658 -1.5973 0.9660
-4.5821 -11.8973 -2.3963 0.9494
-3.5050 -12.2579 -2.3963 0.9494
-1.3310 -13.2308 -2.4994 0.9473
-0.1481 -13.2968 -2.4994 0.9473
3.3701 -12.8635 -2.4994 0.9473
8.2307 -9.7353 -2.3962 0.9494
9.8263 -8.1217 -2.3962 0.9494
10.4828 -5.8975 -2.2608 0.9522
10.4851 -4.7244 -2.1616 0.9543
10.4872 -3.6416 -2.0866 0.9558
12.7160 -1.9995 -2.4195 0.9490
12.8691 0.2868 -2.4195 0.9490
12.3361 3.6765 -2.4195 0.9490
11.9599 4.7599 -2.4195 0.9490
11.4888 5.8055 -2.4195 0.9490
10.9264 6.8050 -2.4195 0.9490
9.4548 8.5513 -2.3962 0.9494
8.6562 9.3589 -2.3962 0.9494
6.8596 10.7454 -2.3962 0.9494
6.1292 11.8008 -2.4994 0.9473
3.9398 12.7006 -2.4994 0.9473
1.6255 13.1979 -2.4994 0.9473
0.4444 13.2902 -2.4994 0.9473
-0.7403 13.2770 -2.4994 0.9473
-4.0476 12.0896 -2.3963 0.9494
-5.1076 11.6813 -2.3963 0.9494
-7.4544 13.6025 -2.9155 0.9388
-9.7859 10.1185 -2.6458 0.9443
-11.9342 8.5897 -2.7638 0.9419
-5.6017 -5.7922 -1.7033 0.9676
-5.6040 -6.9362 -1.8849 0.9642
-5.6069 -8.3660 -2.1288 0.9597
-4.5417 -10.3871 -2.3963 0.9547
-3.5992 -10.7502 -2.3963 0.9547
-2.6281 -11.0278 -2.3963 0.9547
-1.6361 -11.2180 -2.3963 0.9547
1.4454 -11.7357 -2.4994 0.9528
2.4842 -11.5604 -2.4994 0.9528
4.4945 -10.9368 -2.4994 0.9528
5.4501 -10.4934 -2.4994 0.9528
6.3625 -9.9667 -2.4994 0.9528
9.6223 -5.9928 -2.3962 0.9547
11.3752 -1.2725 -2.4195 0.9543
11.4433 -0.2550 -2.4195 0.9543
11.3072 1.7780 -2.4195 0.9543
11.1041 2.7773 -2.4195 0.9543
10.8128 3.7546 -2.4195 0.9543
9.8797 5.5582 -2.3962 0.9547
8.0602 7.9709 -2.3962 0.9547
7.3188 8.6567 -2.3962 0.9547
5.9122 10.2402 -2.4994 0.9528
2.9967 11.4383 -2.4994 0.9528
1.9667 11.6596 -2.4994 0.9528
0.9212 11.7884 -2.4994 0.9528
-0.1317 11.8236 -2.4994 0.9528
-2.1342 11.1340 -2.3963 0.9547
-4.0745 10.5792 -2.3963 0.9547
-5.5077 6.2276 -1.7574 0.9666
-10.9802 8.6710 -2.9574 0.9444
-11.7876 7.7111 -2.9774 0.9440
-15.5347 5.0093 -3.4502 0.9354
-5.9553 -4.7028 -1.6040 0.9695
-5.6070 -5.3031 -1.6313 0.9689
-5.6054 -7.6076 -1.9975 0.9621
-5.6086 -9.2330 -2.2835 0.9568
-4.0745 -10.5791 -2.3963 0.9547
-3.1167 -10.8998 -2.3963 0.9547
-1.1836 -11.7650 -2.4994 0.9528
1.9667 -11.6596 -2.4994 0.9528
2.9967 -11.4383 -2.4994 0.9528
9.8797 -5.5582 -2.3962 0.9547
10.3352 -4.6568 -2.3962 0.9547
10.4893 -2.6236 -2.2855 0.9568
11.3072 -1.7780 -2.4195 0.9543
11.4433 0.2550 -2.4195 0.9543
11.3752 1.2725 -2.4195 0.9543
10.1175 5.1126 -2.3962 0.9547
9.6223 5.9928 -2.3962 0.9547
8.4073 7.6039 -2.3962 0.9547
7.6971 8.3221 -2.3962 0.9547
6.9259 8.9741 -2.3962 0.9547
3.5033 11.2935 -2.4994 0.9528
1.4454 11.7357 -2.4994 0.9528
-3.5992 10.7502 -2.3963 0.9547
-7.7357 11.5425 -2.9371 0.9448
-8.4465 10.4544 -2.8410 0.9465
-9.4992 9.8221 -2.8883 0.9457
-10.5501 9.1230 -2.9482 0.9446
-11.4240 8.2225 -2.9753 0.9441
-12.4172 7.3547 -3.0506 0.9427
-13.2922 6.3492 -3.1138 0.9416
-14.3760 5.3537 -3.2427 0.9392
-17.5682 4.8124 -3.8504 0.9282
-6.0096 -3.5595 -1.6416 0.9717
-5.6690 -4.0803 -1.6416 0.9717
-5.5999 -4.8424 -1.7399 0.9700
-5.6017 -5.7922 -1.8938 0.9674
-5.6040 -6.9362 -2.0957 0.9640
-5.6069 -8.3660 -2.3669 0.9595
-4.9001 -8.9415 -2.3963 0.9590
-3.2371 -9.6687 -2.3963 0.9590
-2.3637 -9.9184 -2.3963 0.9590
0.3023 -9.0423 -2.1263 0.9635
1.3000 -10.5551 -2.4994 0.9572
4.0424 -9.8366 -2.4994 0.9572
5.7224 -8.9640 -2.4994 0.9572
6.4630 -8.3743 -2.4861 0.9575
6.9228 -7.4849 -2.3962 0.9590
8.6543 -5.3899 -2.3962 0.9590
9.7708 -2.9120 -2.3962 0.9590
10.1930 -0.2271 -2.3962 0.9590
9.6314 3.3444 -2.3962 0.9590
9.2955 4.1884 -2.3962 0.9590
8.8858 4.9991 -2.3962 0.9590
8.4056 5.7701 -2.3962 0.9590
7.8587 6.4954 -2.3962 0.9590
6.5825 7.7858 -2.3962 0.9590
5.3174 9.2100 -2.4994 0.9572
4.4766 9.6468 -2.4994 0.9572
3.6002 10.0069 -2.4994 0.9572
1.7689 10.4867 -2.4994 0.9572
-3.6646 9.5149 -2.3963 0.9590
-4.4969 9.1510 -2.3963 0.9590
-7.5374 10.2299 -2.9864 0.9491
-8.5218 9.6357 -3.0232 0.9485
-10.1134 7.9865 -3.0286 0.9484
-5.5233 3.6132 -1.5512 0.9732
-11.7388 6.2640 -3.1271 0.9468
-17.9016 4.0560 -4.3139 0.9274
-5.6028 -6.3352 -1.9877 0.9658
-5.2936 -8.7144 -2.3963 0.9590
-4.4969 -9.1510 -2.3963 0.9590
-3.6646 -9.5149 -2.3963 0.9590
-1.0645 -10.5814 -2.4994 0.9572
0.8285 -10.6025 -2.4994 0.9572
1.7689 -10.4867 -2.4994 0.9572
2.6952 -10.2876 -2.4994 0.9572
3.6002 -10.0069 -2.4994 0.9572
5.3174 -9.2100 -2.4994 0.9572
6.5825 -7.7858 -2.3962 0.9590
6.7930 -3.0608 -1.7511 0.9698
9.6314 -3.3444 -2.3962 0.9590
10.1727 -0.6810 -2.3962 0.9590
10.1323 1.1335 -2.3962 0.9590
9.9912 2.0308 -2.3962 0.9590
9.4728 3.7701 -2.3962 0.9590
9.0997 4.5983 -2.3962 0.9590
8.6543 5.3900 -2.3962 0.9590
8.1402 6.1388 -2.3962 0.9590
6.9228 7.4849 -2.3962 0.9590
6.4630 8.3743 -2.4861 0.9575
4.0424 9.8366 -2.4994 0.9572
0.3554 10.6289 -2.4994 0.9572
-0.5921 10.6183 -2.4994 0.9572
-1.5348 10.5235 -2.4994 0.9572
-2.3637 9.9184 -2.3963 0.9590
-4.0848 9.3422 -2.3963 0.9590
-7.1857 10.7217 -3.0334 0.9483
-5.5009 3.9593 -1.5929 0.9725
-11.3536 6.7247 -3.1013 0.9472
-12.1210 5.7897 -3.1570 0.9463
-5.5968 -3.3150 -1.6842 0.9735
-5.5982 -4.0294 -1.7859 0.9719
-5.6017 -5.7922 -2.0863 0.9673
-5.6040 -6.9362 -2.3088 0.9638
-3.7078 -8.4800 -2.3963 0.9625
-2.9384 -8.7764 -2.3963 0.9625
-2.1455 -9.0031 -2.3963 0.9625
-1.3932 -9.5523 -2.4994 0.9609
1.1800 -9.5810 -2.4994 0.9609
2.0281 -9.4379 -2.4994 0.9609
3.6693 -8.9288 -2.4994 0.9609
5.1943 -8.1368 -2.4994 0.9609
6.4630 -6.9877 -2.4645 0.9614
6.8637 -6.2078 -2.3962 0.9625
7.8556 -4.8925 -2.3962 0.9625
8.5986 -3.4222 -2.3962 0.9625
9.1972 -1.0289 -2.3962 0.9625
9.2339 0.6181 -2.3962 0.9625
8.4376 3.8018 -2.3962 0.9625
8.0658 4.5377 -2.3962 0.9625
6.5803 6.5074 -2.3962 0.9625
6.2325 7.3718 -2.4994 0.9609
5.5516 7.8973 -2.4994 0.9609
4.8267 8.3601 -2.4994 0.9609
4.0634 8.7565 -2.4994 0.9609
2.4465 9.3382 -2.4994 0.9609
1.6056 9.5189 -2.4994 0.9609
0.7520 9.6240 -2.4994 0.9609
-0.1075 9.6528 -2.4994 0.9609
-0.9663 9.6049 -2.4994 0.9609
-1.7424 9.0897 -2.3963 0.9625
-3.3264 8.6368 -2.3963 0.9625
-7.8182 8.8402 -3.0556 0.9524
-9.3721 7.4011 -3.0920 0.9519
-10.1904 6.6662 -3.1529 0.9509
-10.8589 5.7945 -3.1868 0.9504
-5.5141 2.3381 -1.5507 0.9756
-12.8562 4.1456 -3.4975 0.9457
-5.8370 -2.4751 -1.6416 0.9741
-5.5962 -2.9862 -1.6423 0.9741
-5.5975 -3.6617 -1.7319 0.9727
-5.5990 -4.4215 -1.8472 0.9710
-5.6028 -6.3352 -2.1898 0.9657
-4.8050 -7.9102 -2.3963 0.9625
-4.0819 -8.3064 -2.3963 0.9625
-1.7424 -9.0897 -2.3963 0.9625
-0.9663 -9.6049 -2.4994 0.9609
2.4465 -9.3382 -2.4994 0.9609
4.8267 -8.3601 -2.4994 0.9609
7.1334 -5.8959 -2.3962 0.9625
7.6299 -5.2376 -2.3962 0.9625
6.7821 -3.0559 -1.9260 0.9697
8.7425 -3.0357 -2.3962 0.9625
9.1423 -1.4375 -2.3962 0.9625
9.2339 -0.6181 -2.3962 0.9625
9.2523 0.2062 -2.3962 0.9625
9.1972 1.0289 -2.3962 0.9625
9.0692 1.8434 -2.3962 0.9625
8.2599 4.1739 -2.3962 0.9625
7.8556 4.8925 -2.3962 0.9625
7.3890 5.5723 -2.3962 0.9625
6.8637 6.2079 -2.3962 0.9625
6.4630 6.9877 -2.4645 0.9614
5.1943 8.1367 -2.4994 0.9609
2.8601 9.2200 -2.4994 0.9609
2.0281 9.4379 -2.4994 0.9609
1.1800 9.5810 -2.4994 0.9609
-3.7078 8.4800 -2.3963 0.9625
-4.4479 8.1164 -2.3963 0.9625
-5.1526 7.6883 -2.3963 0.9625
-5.5071 6.8163 -2.2689 0.9644
-8.2244 8.5039 -3.0631 0.9523
-10.5443 6.2454 -3.1731 0.9506
-13.4965 3.6971 -3.6232 0.9438
-5.5016 -0.0000 -1.5575 0.9774
-5.5017 -0.4917 -1.5637 0.9773
-5.5018 -0.9912 -1.5826 0.9770
-5.5944 -2.0834 -1.6900 0.9755
-5.5968 -3.3150 -1.8415 0.9733
-5.5982 -4.0294 -1.9526 0.9717
-5.5999 -4.8424 -2.0958 0.9697
-5.3198 -6.5844 -2.3963 0.9654
-4.7126 -7.0317 -2.3963 0.9654
-2.6874 -8.0269 -2.3963 0.9654
-0.4915 -8.8153 -2.4994 0.9640
0.2950 -8.8241 -2.4994 0.9640
2.6158 -8.4326 -2.4994 0.9640
3.3560 -8.1663 -2.4994 0.9640
4.7507 -7.4419 -2.4994 0.9640
5.3942 -6.9895 -2.4994 0.9640
6.4630 -5.8454 -2.4670 0.9644
8.1117 -2.4175 -2.3962 0.9654
8.2947 -1.6860 -2.3962 0.9654
8.4622 -0.1886 -2.3962 0.9654
8.4454 0.5654 -2.3962 0.9654
8.2113 2.0538 -2.3962 0.9654
7.9959 2.7765 -2.3962 0.9654
7.7171 3.4771 -2.3962 0.9654
7.3770 4.1502 -2.3962 0.9654
6.9783 4.7904 -2.3962 0.9654
6.5243 5.3924 -2.3962 0.9654
5.7003 6.7423 -2.4994 0.9640
5.0775 7.2229 -2.4994 0.9640
4.4145 7.6461 -2.4994 0.9640
3.7164 8.0087 -2.4994 0.9640
2.9889 8.3077 -2.4994 0.9640
2.2376 8.5408 -2.4994 0.9640
-0.0984 8.8285 -2.4994 0.9640
-0.8837 8.7847 -2.4994 0.9640
-1.5943 8.3171 -2.3974 0.9654
-2.3272 8.1387 -2.3963 0.9654
-3.0423 7.8992 -2.3963 0.9654
-5.0212 6.8148 -2.3963 0.9654
-7.2002 8.1413 -3.0768 0.9558
-5.5016 0.2453 -1.5590 0.9774
-5.6915 -1.8353 -1.6929 0.9754
-5.5950 -2.3725 -1.7204 0.9751
-5.5962 -2.9862 -1.7957 0.9740
-5.5990 -4.4215 -2.0197 0.9708
-5.6008 -5.2972 -2.1824 0.9685
-5.6028 -6.3352 -2.3942 0.9655
-4.3947 -7.2347 -2.3963 0.9654
-3.7333 -7.5971 -2.3963 0.9654
0.6878 -8.8022 -2.4994 0.9640
2.9889 -8.3077 -2.4994 0.9640
3.7164 -8.0087 -2.4994 0.9640
5.0775 -7.2229 -2.4994 0.9640
5.7003 -6.7423 -2.4994 0.9640
6.2777 -6.2082 -2.4994 0.9640
6.9783 -4.7904 -2.3962 0.9654
7.3770 -4.1502 -2.3962 0.9654
6.7821 -3.0559 -2.1059 0.9695
8.2113 -2.0538 -2.3962 0.9654
8.4454 -0.5654 -2.3962 0.9654
8.1117 2.4175 -2.3962 0.9654
7.8643 3.1299 -2.3962 0.9654
7.5545 3.8175 -2.3962 0.9654
7.1848 4.4747 -2.3962 0.9654
6.7580 5.0964 -2.3962 0.9654
4.7507 7.4419 -2.4994 0.9640
4.0695 7.8352 -2.4994 0.9640
3.3560 8.1663 -2.4994 0.9640
2.6158 8.4326 -2.4994 0.9640
1.0792 8.7628 -2.4994 0.9640
-3.3912 7.7559 -2.3963 0.9654
-4.0681 7.4232 -2.3963 0.9654
-4.7126 7.0317 -2.3963 0.9654
-5.3198 6.5844 -2.3963 0.9654
-7.5727 7.8301 -3.0837 0.9557
-5.5079 4.7629 -2.0614 0.9702
-9.8350 5.8253 -3.2360 0.9536
-11.4395 4.2601 -3.4557 0.9505
-12.5343 3.4335 -3.6791 0.9474
-5.5014 0.9911 -1.5825 0.9770
-5.5015 0.4916 -1.5636 0.9773
-5.5088 -0.0000 -1.6944 0.9772
-5.5982 -4.0294 -2.1215 0.9715
-5.5999 -4.8424 -2.2771 0.9695
-5.4162 -5.6004 -2.3963 0.9679
-3.7442 -6.8323 -2.3963 0.9679
-2.4735 -7.3879 -2.3963 0.9679
-0.4524 -8.1136 -2.4994 0.9666
0.9933 -8.0652 -2.4994 0.9666
1.7072 -7.9448 -2.4994 0.9666
3.0888 -7.5162 -2.4994 0.9666
3.7455 -7.2114 -2.4994 0.9666
4.3725 -6.8495 -2.4994 0.9666
4.9648 -6.4331 -2.4994 0.9666
5.5177 -5.9657 -2.4994 0.9666
6.0268 -5.4509 -2.4994 0.9666
6.4630 -4.8740 -2.4898 0.9667
6.6128 -4.1185 -2.3962 0.9679
6.9531 -3.5136 -2.3962 0.9679
7.2383 -2.8808 -2.3962 0.9679
7.4659 -2.2251 -2.3962 0.9679
7.6344 -1.5517 -2.3962 0.9679
7.7731 0.5204 -2.3962 0.9679
7.5577 1.8903 -2.3962 0.9679
7.1028 3.2004 -2.3962 0.9679
6.4712 4.4422 -2.4142 0.9677
6.2636 5.1770 -2.4994 0.9666
5.7780 5.7140 -2.4994 0.9666
5.2465 6.2055 -2.4994 0.9666
4.0631 7.0375 -2.4994 0.9666
3.4206 7.3712 -2.4994 0.9666
2.0595 7.8608 -2.4994 0.9666
0.6331 8.1014 -2.4994 0.9666
-1.5298 7.9809 -2.4994 0.9666
-4.0448 6.6587 -2.3963 0.9679
-4.6215 6.2723 -2.3963 0.9679
-5.1614 5.8361 -2.3963 0.9679
-8.2426 6.5091 -3.2304 0.9570
-8.8997 5.8219 -3.2710 0.9565
-9.6090 5.1275 -3.3500 0.9554
-11.1667 3.6008 -3.6088 0.9521
-18.8666 0.8413 -5.8087 0.9240
-5.6915 -1.8353 -1.8393 0.9753
-5.5950 -2.3725 -1.8692 0.9749
-5.6008 -5.2972 -2.3711 0.9683
-5.1614 -5.8361 -2.3963 0.9679
-4.6215 -6.2723 -2.3963 0.9679
-2.8001 -7.2704 -2.3963 0.9679
-1.5298 -7.9809 -2.4994 0.9666
-0.0905 -8.1256 -2.4994 0.9666
2.0595 -7.8609 -2.4994 0.9666
2.7509 -7.6463 -2.4994 0.9666
3.4206 -7.3712 -2.4994 0.9666
4.0631 -7.0375 -2.4994 0.9666
4.6733 -6.6479 -2.4994 0.9666
5.7780 -5.7140 -2.4994 0.9666
6.2636 -5.1770 -2.4994 0.9666
6.4712 -4.4422 -2.4142 0.9677
6.7897 -3.8198 -2.3962 0.9679
6.7821 -3.0559 -2.2880 0.9693
7.5577 -1.8903 -2.3962 0.9679
7.6959 -1.2101 -2.3962 0.9679
7.7731 -0.5204 -2.3962 0.9679
7.7885 0.1736 -2.3962 0.9679
7.4659 2.2251 -2.3962 0.9679
7.2383 2.8808 -2.3962 0.9679
6.4630 4.8740 -2.4898 0.9667
4.9648 6.4331 -2.4994 0.9666
2.4076 7.7613 -2.4994 0.9666
1.7072 7.9448 -2.4994 0.9666
0.2715 8.1216 -2.4994 0.9666
-0.4524 8.1136 -2.4994 0.9666
-1.1728 8.0411 -2.4994 0.9666
-2.4735 7.3879 -2.3963 0.9679
-3.7442 6.8323 -2.3963 0.9679
-4.3375 6.4719 -2.3963 0.9679
-5.4162 5.6004 -2.3963 0.9679
-9.2270 5.4652 -3.2985 0.9561
-10.7685 4.0102 -3.5344 0.9530
-11.7825 3.2276 -3.7576 0.9502
-18.7729 1.6776 -5.7972 0.9242
-18.5669 0.0000 -6.1717 0.9247
-18.5283 -1.6557 -6.1835 0.9246
-5.5944 -2.0834 -1.9844 0.9752
-5.5956 -2.6728 -2.0613 0.9742
-5.0117 -5.1821 -2.3963 0.9701
-4.5306 -5.6076 -2.3963 0.9701
-2.8881 -6.6053 -2.3963 0.9701
-2.2887 -6.8361 -2.3963 0.9701
-1.6712 -7.0127 -2.3963 0.9701
-0.4186 -7.5076 -2.4994 0.9688
0.9191 -7.4628 -2.4994 0.9688
1.5797 -7.3514 -2.4994 0.9688
2.2278 -7.1816 -2.4994 0.9688
4.0460 -6.3379 -2.4994 0.9688
4.5940 -5.9526 -2.4994 0.9688
5.5766 -5.0438 -2.4994 0.9688
6.3826 -3.9751 -2.4994 0.9688
6.4721 -3.2705 -2.4105 0.9699
6.6976 -2.6656 -2.3962 0.9701
6.9083 -2.0589 -2.3962 0.9701
7.0642 -1.4359 -2.3962 0.9701
7.2068 -0.1606 -2.3962 0.9701
7.1211 1.1198 -2.3962 0.9701
6.9932 1.7491 -2.3962 0.9701
6.4630 3.6360 -2.4650 0.9692
6.1992 4.2555 -2.4994 0.9688
5.7958 4.7904 -2.4994 0.9688
5.3464 5.2872 -2.4994 0.9688
3.7596 6.5118 -2.4994 0.9688
2.5455 7.0753 -2.4994 0.9688
1.9056 7.2737 -2.4994 0.9688
1.2507 7.4145 -2.4994 0.9688
-0.0838 7.5187 -2.4994 0.9688
-0.7526 7.4814 -2.4994 0.9688
-1.9819 6.9313 -2.3963 0.9701
-2.5910 6.7274 -2.3963 0.9701
-3.1795 6.4701 -2.3963 0.9701
-4.2763 5.8038 -2.3963 0.9701
-4.7759 5.4002 -2.3963 0.9701
-7.7602 6.1282 -3.2869 0.9592
-9.1041 4.8581 -3.4302 0.9574
-9.8077 4.1588 -3.5411 0.9561
-10.5664 3.4072 -3.6904 0.9543
-18.8452 -0.8404 -6.2705 0.9236
-18.7942 -2.5276 -6.3036 0.9232
-5.6915 -1.8353 -1.9878 0.9751
-5.5950 -2.3725 -2.0201 0.9747
-5.5975 -3.6617 -2.2234 0.9722
-5.2376 -4.9537 -2.3963 0.9701
-4.7759 -5.4002 -2.3963 0.9701
-4.2763 -5.8038 -2.3963 0.9701
-3.7427 -6.1614 -2.3963 0.9701
-3.1795 -6.4701 -2.3963 0.9701
-1.9819 -6.9313 -2.3963 0.9701
-1.4155 -7.3848 -2.4994 0.9688
-0.0838 -7.5187 -2.4994 0.9688
0.5858 -7.4964 -2.4994 0.9688
1.2507 -7.4145 -2.4994 0.9688
3.7596 -6.5118 -2.4994 0.9688
4.3243 -6.1514 -2.4994 0.9688
4.8546 -5.7421 -2.4994 0.9688
5.3464 -5.2872 -2.4994 0.9688
5.7958 -4.7904 -2.4994 0.9688
6.1992 -4.2555 -2.4994 0.9688
6.4630 -3.6360 -2.4650 0.9692
6.8097 -2.3646 -2.3962 0.9701
7.1211 -1.1197 -2.3962 0.9701
7.1639 0.8014 -2.3962 0.9701
6.9083 2.0589 -2.3962 0.9701
6.0034 4.5274 -2.4994 0.9688
4.5940 5.9526 -2.4994 0.9688
4.0460 6.3379 -2.4994 0.9688
1.5797 7.3514 -2.4994 0.9688
0.9191 7.4629 -2.4994 0.9688
-1.0852 7.4405 -2.4994 0.9688
-1.6712 7.0127 -2.3963 0.9701
-3.4646 6.3220 -2.3963 0.9701
-4.5306 5.6076 -2.3963 0.9701
-5.4530 4.7154 -2.3963 0.9701
-8.0806 5.8160 -3.3094 0.9589
-8.7476 5.1812 -3.3795 0.9580
-5.5084 2.0513 -1.9539 0.9755
-11.1046 3.0419 -3.8272 0.9526
-12.7520 2.2974 -4.3071 0.9468
-18.4631 -1.6499 -6.6289 0.9243
-5.4388 -3.9146 -2.3963 0.9719
-3.7307 -5.5665 -2.3963 0.9719
-2.1274 -6.3544 -2.3963 0.9719
-1.5837 -6.6455 -2.4430 0.9714
-1.0087 -6.9161 -2.4994 0.9707
1.4684 -6.8333 -2.4994 0.9707
2.6567 -6.4647 -2.4994 0.9707
4.7458 -5.1311 -2.4994 0.9707
5.1836 -4.6883 -2.4994 0.9707
5.5804 -4.2083 -2.4994 0.9707
5.9328 -3.6950 -2.4994 0.9707
6.4710 -1.9286 -2.4147 0.9717
6.5663 -1.3347 -2.3962 0.9719
6.6750 -0.7467 -2.4019 0.9719
6.0915 3.4270 -2.4994 0.9707
5.3873 4.4528 -2.4994 0.9707
4.9696 4.9146 -2.4994 0.9707
4.5125 5.3374 -2.4994 0.9707
4.0195 5.7179 -2.4994 0.9707
2.3661 6.5767 -2.4994 0.9707
1.7713 6.7611 -2.4994 0.9707
1.1625 6.8920 -2.4994 0.9707
-0.0779 6.9889 -2.4994 0.9707
-2.9554 6.0141 -2.3963 0.9719
-3.4790 5.7272 -2.3963 0.9719
-3.9749 5.3948 -2.3963 0.9719
-4.4393 5.0196 -2.3963 0.9719
-4.8685 4.6046 -2.3963 0.9719
-5.2590 4.1530 -2.3963 0.9719
-7.9747 5.2168 -3.4078 0.9603
-8.6416 4.6113 -3.5027 0.9592
-9.2973 3.9424 -3.6113 0.9580
-10.0513 3.2411 -3.7766 0.9561
-5.5014 1.2464 -2.0172 0.9763
-13.0744 1.7583 -4.7176 0.9455
-18.4316 0.8219 -6.5978 0.9246
-18.5280 -0.8262 -6.6323 0.9242
-18.6344 -2.5062 -6.7238 0.9232
-5.6915 -1.8353 -2.1385 0.9749
-5.5962 -2.9862 -2.2683 0.9734
-5.5975 -3.6617 -2.3920 0.9720
-5.2590 -4.1530 -2.3963 0.9719
-4.4393 -5.0196 -2.3963 0.9719
-3.4790 -5.7272 -2.3963 0.9719
-2.4084 -6.2533 -2.3963 0.9719
-1.3158 -6.8643 -2.4994 0.9707
-0.6996 -6.9542 -2.4994 0.9707
-0.0779 -6.9889 -2.4994 0.9707
1.1625 -6.8920 -2.4994 0.9707
1.7713 -6.7611 -2.4994 0.9707
2.3661 -6.5767 -2.4994 0.9707
2.9420 -6.3399 -2.4994 0.9707
3.4947 -6.0529 -2.4994 0.9707
4.0195 -5.7179 -2.4994 0.9707
4.9696 -4.9146 -2.4994 0.9707
5.3873 -4.4528 -2.4994 0.9707
5.7623 -3.9556 -2.4994 0.9707
6.0915 -3.4270 -2.4994 0.9707
6.3723 -2.8712 -2.4994 0.9707
6.4630 -2.2442 -2.4466 0.9714
6.5003 -1.6258 -2.3962 0.9719
6.6193 -1.0408 -2.3962 0.9719
6.6856 -0.4475 -2.3962 0.9719
6.6989 0.1493 -2.3962 0.9719
6.6750 0.7467 -2.4019 0.9719
6.5663 1.3347 -2.3962 0.9719
6.4710 1.9286 -2.4147 0.9717
6.4630 2.5722 -2.4875 0.9709
6.2381 3.1522 -2.4994 0.9707
5.9328 3.6950 -2.4994 0.9707
4.7458 5.1311 -2.4994 0.9707
3.7608 5.8912 -2.4994 0.9707
2.0708 6.6755 -2.4994 0.9707
0.2336 6.9854 -2.4994 0.9707
-0.3891 6.9785 -2.4994 0.9707
-1.0087 6.9161 -2.4994 0.9707
-1.5837 6.6455 -2.4430 0.9714
-2.6846 6.1398 -2.3963 0.9719
-5.4388 3.9146 -2.3963 0.9719
-8.9710 4.2851 -3.5553 0.9586
-10.5233 2.8826 -3.9018 0.9547
-11.7593 2.1185 -4.2729 0.9505
-5.5087 0.4922 -1.9778 0.9768
-5.5205 -0.0000 -2.1155 0.9766
-5.5944 -2.0834 -2.2877 0.9748
-4.3472 -4.4949 -2.3963 0.9736
-3.4813 -5.1945 -2.3963 0.9736
-3.0052 -5.4837 -2.3963 0.9736
-2.5052 -5.7295 -2.3963 0.9736
-1.9853 -5.9297 -2.3963 0.9736
-1.5120 -6.3445 -2.4994 0.9724
-0.9413 -6.4539 -2.4994 0.9724
-0.3631 -6.5121 -2.4994 0.9724
0.7973 -6.4733 -2.4994 0.9724
1.3703 -6.3767 -2.4994 0.9724
1.9324 -6.2294 -2.4994 0.9724
2.4792 -6.0327 -2.4994 0.9724
3.0062 -5.7881 -2.4994 0.9724
3.5095 -5.4975 -2.4994 0.9724
4.4286 -4.7882 -2.4994 0.9724
5.5363 -3.4480 -2.4994 0.9724
5.8212 -2.9416 -2.4994 0.9724
6.0599 -2.4118 -2.4994 0.9724
6.2505 -1.8628 -2.4994 0.9724
6.3915 -1.2991 -2.4994 0.9724
6.4630 0.4327 -2.4823 0.9726
6.3273 1.5826 -2.4994 0.9724
6.1613 2.1394 -2.4994 0.9724
5.6844 3.1980 -2.4994 0.9724
5.3772 3.6912 -2.4994 0.9724
4.2109 4.9807 -2.4994 0.9724
3.2611 5.6484 -2.4994 0.9724
1.6530 6.3093 -2.4994 0.9724
-0.6528 6.4895 -2.4994 0.9724
-1.2278 6.4056 -2.4994 0.9724
-1.7192 6.0122 -2.3963 0.9736
-2.2474 5.8354 -2.3963 0.9736
-3.7093 5.0343 -2.3963 0.9736
-4.1426 4.6841 -2.3963 0.9736
-4.5431 4.2968 -2.3963 0.9736
-4.9075 3.8754 -2.3963 0.9736
-5.5169 2.9439 -2.3963 0.9736
-5.5080 2.3356 -2.2927 0.9747
-9.5768 3.0881 -3.8561 0.9578
-11.8373 1.5920 -4.5771 0.9501
-18.4028 0.8206 -7.0593 0.9241
-4.5431 -4.2968 -2.3963 0.9736
-4.1426 -4.6841 -2.3963 0.9736
-3.7093 -5.0343 -2.3963 0.9736
-3.2465 -5.3444 -2.3963 0.9736
-2.7579 -5.6122 -2.3963 0.9736
-1.7192 -6.0122 -2.3963 0.9736
-1.2279 -6.4056 -2.4994 0.9724
1.6530 -6.3093 -2.4994 0.9724
2.2080 -6.1371 -2.4994 0.9724
3.2611 -5.6484 -2.4994 0.9724
3.7509 -5.3357 -2.4994 0.9724
4.2109 -4.9807 -2.4994 0.9724
5.0273 -4.1552 -2.4994 0.9724
5.6844 -3.1980 -2.4994 0.9724
6.1613 -2.1395 -2.4994 0.9724
6.3273 -1.5826 -2.4994 0.9724
6.4430 -1.0131 -2.4994 0.9724
6.4630 -0.4327 -2.4823 0.9726
6.4630 0.7230 -2.4922 0.9725
6.3915 1.2991 -2.4994 0.9724
6.2505 1.8629 -2.4994 0.9724
6.0599 2.4118 -2.4994 0.9724
5.8212 2.9416 -2.4994 0.9724
5.2074 3.9271 -2.4994 0.9724
3.9849 5.1634 -2.4994 0.9724
3.0063 5.7881 -2.4994 0.9724
2.4792 6.0327 -2.4994 0.9724
1.3703 6.3766 -2.4994 0.9724
0.7973 6.4733 -2.4994 0.9724
0.2179 6.5186 -2.4994 0.9724
-0.3631 6.5121 -2.4994 0.9724
-0.9413 6.4539 -2.4994 0.9724
-2.5052 5.7295 -2.3963 0.9736
-3.0052 5.4837 -2.3963 0.9736
-3.4813 5.1945 -2.3963 0.9736
-3.9298 4.8640 -2.3963 0.9736
-4.3472 4.4950 -2.3963 0.9736
-4.7300 4.0902 -2.3963 0.9736
-5.3803 3.1868 -2.3963 0.9736
-17.9738 0.0000 -7.3562 0.9253
-1.6035 -0.4392 -0.6804 0.9928
-5.2833 -2.5236 -2.3963 0.9750
-5.0377 -2.9838 -2.3963 0.9750
-3.6797 -4.5544 -2.3963 0.9750
-2.8138 -5.1346 -2.3963 0.9750
-2.3457 -5.3647 -2.3963 0.9750
-1.8589 -5.5522 -2.3963 0.9750
-1.4157 -5.9406 -2.4994 0.9740
-0.3400 -6.0975 -2.4994 0.9740
0.2041 -6.1036 -2.4994 0.9740
0.7465 -6.0612 -2.4994 0.9740
2.3213 -5.6486 -2.4994 0.9740
2.8149 -5.4196 -2.4994 0.9740
3.2861 -5.1475 -2.4994 0.9740
3.7312 -4.8346 -2.4994 0.9740
4.1467 -4.4833 -2.4994 0.9740
4.5292 -4.0965 -2.4994 0.9740
4.8759 -3.6771 -2.4994 0.9740
5.1838 -3.2285 -2.4994 0.9740
5.6741 -2.2582 -2.4994 0.9740
5.8526 -1.7443 -2.4994 0.9740
5.9846 -1.2164 -2.4994 0.9740
6.0691 -0.6789 -2.4994 0.9740
5.9245 1.4818 -2.4994 0.9740
5.7691 2.0032 -2.4994 0.9740
5.3225 2.9944 -2.4994 0.9740
4.3423 4.2942 -2.4994 0.9740
3.5121 4.9960 -2.4994 0.9740
3.0535 5.2888 -2.4994 0.9740
2.0674 5.7464 -2.4994 0.9740
1.5477 5.9076 -2.4994 0.9740
-0.0680 6.1066 -2.4994 0.9740
-0.6113 6.0763 -2.4994 0.9740
-2.1044 5.4639 -2.3963 0.9750
-3.0398 5.0042 -2.3963 0.9750
-3.4731 4.7137 -2.3963 0.9750
-3.8789 4.3859 -2.3963 0.9750
-4.2539 4.0233 -2.3963 0.9750
-4.8998 3.2053 -2.3963 0.9750
-5.3905 2.2858 -2.3963 0.9750
-1.5889 0.5124 -0.6833 0.9928
-1.6146 0.3658 -0.6776 0.9929
-1.6301 -0.2192 -0.6732 0.9929
-1.6146 -0.3658 -0.6776 0.9929
-1.5889 -0.5124 -0.6833 0.9928
-5.3905 -2.2858 -2.3963 0.9750
-4.8998 -3.2053 -2.3963 0.9750
-4.5951 -3.6287 -2.3963 0.9750
-3.8789 -4.3859 -2.3963 0.9750
-3.4731 -4.7137 -2.3963 0.9750
-2.1044 -5.4638 -2.3963 0.9750
-0.6113 -6.0763 -2.4994 0.9740
-0.0680 -6.1066 -2.4994 0.9740
0.4758 -6.0884 -2.4994 0.9740
1.5477 -5.9076 -2.4994 0.9740
2.5706 -5.5396 -2.4994 0.9740
3.5121 -4.9960 -2.4994 0.9740
3.9428 -4.6636 -2.4994 0.9740
4.7072 -3.8906 -2.4994 0.9740
5.3225 -2.9944 -2.4994 0.9740
6.0328 -0.9486 -2.4994 0.9740
6.1055 0.1361 -2.4994 0.9740
5.8526 1.7443 -2.4994 0.9740
5.6741 2.2582 -2.4994 0.9740
5.4506 2.7543 -2.4994 0.9740
4.8759 3.6771 -2.4994 0.9740
4.5293 4.0965 -2.4994 0.9740
3.7312 4.8346 -2.4994 0.9740
2.8149 5.4196 -2.4994 0.9740
2.3213 5.6486 -2.4994 0.9740
0.7465 6.0612 -2.4994 0.9740
0.2041 6.1036 -2.4994 0.9740
-0.3400 6.0975 -2.4994 0.9740
-0.8813 6.0430 -2.4994 0.9740
-1.4157 5.9406 -2.4994 0.9740
-1.8589 5.5522 -2.3963 0.9750
-2.8138 5.1346 -2.3963 0.9750
-3.6797 4.5544 -2.3963 0.9750
-4.0704 4.2088 -2.3963 0.9750
-4.7522 3.4204 -2.3963 0.9750
-5.2833 2.5236 -2.3963 0.9750
-5.4870 2.0434 -2.3963 0.9750
-1.5266 0.0000 -0.6653 0.9934
-1.5015 -0.2705 -0.6649 0.9934
-1.5001 -0.4109 -0.6779 0.9932
-5.1528 -1.9189 -2.3963 0.9763
-4.4627 -3.2121 -2.3963 0.9763
-4.1591 -3.5965 -2.3963 0.9763
-3.4556 -4.2770 -2.3963 0.9763
-3.0612 -4.5676 -2.3963 0.9763
-2.6425 -4.8219 -2.3963 0.9763
-2.2028 -5.0380 -2.3963 0.9763
-0.8277 -5.6750 -2.4994 0.9753
0.1916 -5.7318 -2.4994 0.9753
1.2049 -5.6071 -2.4994 0.9753
2.6434 -5.0895 -2.4994 0.9753
3.8941 -4.2103 -2.4994 0.9753
4.5789 -3.4531 -2.4994 0.9753
5.4961 -1.6380 -2.4994 0.9753
5.6201 -1.1423 -2.4994 0.9753
5.7336 -0.1278 -2.4994 0.9753
5.7222 0.3830 -2.4994 0.9753
5.6654 0.8908 -2.4994 0.9753
5.5637 1.3916 -2.4994 0.9753
5.2288 2.3560 -2.4994 0.9753
4.9983 2.8120 -2.4994 0.9753
4.7282 3.2457 -2.4994 0.9753
0.4468 5.7176 -2.4994 0.9753
-0.0639 5.7347 -2.4994 0.9753
-0.5741 5.7062 -2.4994 0.9753
-1.0797 5.6325 -2.4994 0.9753
-2.4251 4.9348 -2.3963 0.9763
-2.8547 4.6994 -2.3963 0.9763
-3.2616 4.4267 -2.3963 0.9763
-3.6427 4.1188 -2.3963 0.9763
-3.9948 3.7782 -2.3963 0.9763
-4.3152 3.4077 -2.3963 0.9763
-4.6014 3.0101 -2.3963 0.9763
-4.8510 2.5886 -2.3963 0.9763
-5.0622 2.1466 -2.3963 0.9763
-1.5029 0.3405 -0.6716 0.9933
-1.5259 0.0680 -0.6657 0.9934
-1.5133 -0.2035 -0.6654 0.9934
-1.4861 -0.4792 -0.6805 0.9932
-3.9948 -3.7782 -2.3963 0.9763
-3.2616 -4.4267 -2.3963 0.9763
-2.8547 -4.6994 -2.3963 0.9763
-2.4251 -4.9348 -2.3963 0.9763
-1.0797 -5.6325 -2.4994 0.9753
-0.5741 -5.7062 -2.4994 0.9753
-0.0639 -5.7347 -2.4994 0.9753
0.9539 -5.6552 -2.4994 0.9753
1.4535 -5.5478 -2.4994 0.9753
1.9415 -5.3964 -2.4994 0.9753
2.4141 -5.2022 -2.4994 0.9753
3.7027 -4.3796 -2.4994 0.9753
4.0778 -4.0327 -2.4994 0.9753
4.4206 -3.6537 -2.4994 0.9753
4.7282 -3.2457 -2.4994 0.9753
5.2288 -2.3560 -2.4994 0.9753
5.4177 -1.8812 -2.4994 0.9753
5.5637 -1.3916 -2.4994 0.9753
5.6654 -0.8909 -2.4994 0.9753
5.7336 0.1278 -2.4994 0.9753
5.3285 2.1207 -2.4994 0.9753
5.1186 2.5866 -2.4994 0.9753
4.2534 3.8470 -2.4994 0.9753
3.8941 4.2103 -2.4994 0.9753
3.5039 4.5402 -2.4994 0.9753
3.0859 4.8340 -2.4994 0.9753
1.6992 5.4776 -2.4994 0.9753
1.2049 5.6071 -2.4994 0.9753
0.7010 5.6920 -2.4994 0.9753
0.1916 5.7318 -2.4994 0.9753
-1.7457 5.2140 -2.3963 0.9763
-2.2028 5.0380 -2.3963 0.9763
-2.6425 4.8219 -2.3963 0.9763
-3.0612 4.5676 -2.3963 0.9763
-3.4556 4.2770 -2.3963 0.9763
-4.1591 3.5965 -2.3963 0.9763
-4.9615 2.3699 -2.3963 0.9763
-5.1528 1.9189 -2.3963 0.9763
-1.5001 0.4109 -0.6779 0.9932
-1.5015 0.2705 -0.6649 0.9934
-1.5215 0.1360 -0.6657 0.9934
-1.4219 0.0000 -0.6582 0.9938
-1.3946 -0.3820 -0.6693 0.9936
-4.8515 -1.8067 -2.3963 0.9774
-4.4543 -2.6383 -2.3963 0.9774
-3.5990 -3.7213 -2.3963 0.9774
-3.2535 -4.0269 -2.3963 0.9774
-2.8822 -4.3005 -2.3963 0.9774
-1.6436 -4.9091 -2.3963 0.9774
-1.2518 -5.2526 -2.4994 0.9765
-0.3006 -5.3913 -2.4994 0.9765
0.1804 -5.3967 -2.4994 0.9765
2.4888 -4.7919 -2.4994 0.9765
2.9055 -4.5513 -2.4994 0.9765
3.2990 -4.2747 -2.4994 0.9765
3.6664 -3.9641 -2.4994 0.9765
4.5834 -2.8546 -2.4994 0.9765
4.8193 -2.4353 -2.4994 0.9765
5.0169 -1.9967 -2.4994 0.9765
5.3662 -0.6003 -2.4994 0.9765
5.3983 -0.1203 -2.4994 0.9765
5.3876 0.3607 -2.4994 0.9765
5.2383 1.3102 -2.4994 0.9765
5.1009 1.7712 -2.4994 0.9765
4.7060 2.6476 -2.4994 0.9765
4.1621 3.4400 -2.4994 0.9765
3.8394 3.7968 -2.4994 0.9765
3.4862 4.1235 -2.4994 0.9765
3.1053 4.4174 -2.4994 0.9765
2.6998 4.6762 -2.4994 0.9765
2.2729 4.8980 -2.4994 0.9765
1.3685 5.2234 -2.4994 0.9765
0.4207 5.3833 -2.4994 0.9765
-0.0602 5.3993 -2.4994 0.9765
-1.0165 5.3031 -2.4994 0.9765
-1.4845 5.1916 -2.4994 0.9765
-2.2832 4.6463 -2.3963 0.9774
-2.6877 4.4246 -2.3963 0.9774
-2.2022 2.9888 -1.7185 0.9838
-3.4296 3.8780 -2.3963 0.9774
-4.0629 3.2084 -2.3963 0.9774
-4.5674 2.4372 -2.3963 0.9774
-4.7662 2.0210 -2.3963 0.9774
-1.3890 0.4479 -0.6755 0.9936
-1.3967 0.3165 -0.6629 0.9937
-1.4212 0.0634 -0.6585 0.9937
-1.4099 -0.1896 -0.6585 0.9937
-4.7662 -2.0210 -2.3963 0.9774
-4.5674 -2.4372 -2.3963 0.9774
-4.0629 -3.2084 -2.3963 0.9774
-0.5405 -5.3726 -2.4994 0.9765
-0.0602 -5.3993 -2.4994 0.9765
1.8279 -5.0809 -2.4994 0.9765
2.2729 -4.8980 -2.4994 0.9765
3.4862 -4.1235 -2.4994 0.9765
5.1009 -1.7712 -2.4994 0.9765
5.2383 -1.3102 -2.4994 0.9765
5.3341 -0.8388 -2.4994 0.9765
5.3876 -0.3606 -2.4994 0.9765
5.3983 0.1203 -2.4994 0.9765
5.1748 1.5422 -2.4994 0.9765
5.0169 1.9967 -2.4994 0.9765
4.8193 2.4353 -2.4994 0.9765
4.0047 3.6220 -2.4994 0.9765
3.2990 4.2747 -2.4994 0.9765
2.4888 4.7919 -2.4994 0.9765
2.0525 4.9944 -2.4994 0.9765
-0.3006 5.3913 -2.4994 0.9765
-0.7793 5.3431 -2.4994 0.9765
-1.2518 5.2526 -2.4994 0.9765
-1.6436 4.9091 -2.3963 0.9774
-2.0668 3.0839 -1.7185 0.9838
-3.2535 4.0269 -2.3963 0.9774
-3.9159 3.3862 -2.3963 0.9774
-4.2018 3.0243 -2.3963 0.9774
-4.4543 2.6383 -2.3963 0.9774
-4.6714 2.2313 -2.3963 0.9774
-4.8515 1.8067 -2.3963 0.9774
-1.3946 0.3820 -0.6693 0.9936
-1.3993 0.2521 -0.6581 0.9938
-1.4172 0.1266 -0.6586 0.9937
-1.3317 -0.1190 -0.6558 0.9941
-1.3159 -0.2371 -0.6559 0.9941
-4.4082 -2.1056 -2.3963 0.9785
-4.2033 -2.4896 -2.3963 0.9785
-3.3962 -3.5116 -2.3963 0.9785
-2.0470 -3.0543 -1.8036 0.9838
-2.3478 -4.2841 -2.3963 0.9785
-1.9571 -4.4761 -2.3963 0.9785
-1.5830 -4.7283 -2.4459 0.9780
-1.1812 -4.9566 -2.4994 0.9776
-0.7354 -5.0421 -2.4994 0.9776
-0.2837 -5.0875 -2.4994 0.9776
0.1703 -5.0926 -2.4994 0.9776
0.6229 -5.0572 -2.4994 0.9776
1.5097 -4.8667 -2.4994 0.9776
2.3486 -4.5219 -2.4994 0.9776
3.1131 -4.0338 -2.4994 0.9776
3.7790 -3.4179 -2.4994 0.9776
4.3252 -2.6937 -2.4994 0.9776
4.5478 -2.2981 -2.4994 0.9776
4.8832 -1.4554 -2.4994 0.9776
4.9933 -1.0149 -2.4994 0.9776
5.0638 -0.5665 -2.4994 0.9776
5.0841 0.3403 -2.4994 0.9776
5.0336 0.7915 -2.4994 0.9776
4.9432 1.2364 -2.4994 0.9776
4.8135 1.6714 -2.4994 0.9776
4.6456 2.0932 -2.4994 0.9776
4.2009 2.8837 -2.4994 0.9776
3.9275 3.2462 -2.4994 0.9776
3.6230 3.5829 -2.4994 0.9776
3.2898 3.8911 -2.4994 0.9776
2.1448 4.6220 -2.4994 0.9776
1.7250 4.7946 -2.4994 0.9776
1.2914 4.9291 -2.4994 0.9776
0.8475 5.0245 -2.4994 0.9776
0.3970 5.0800 -2.4994 0.9776
-0.5100 5.0698 -2.4994 0.9776
-1.7710 4.5982 -2.4170 0.9783
-2.5363 4.1753 -2.3963 0.9785
-2.1815 2.9608 -1.8040 0.9837
-3.2364 3.6595 -2.3963 0.9785
-3.5493 3.3569 -2.3963 0.9785
-3.8340 3.0277 -2.3963 0.9785
-4.0882 2.6744 -2.3963 0.9785
-1.3003 0.4193 -0.6702 0.9939
-1.3089 0.2966 -0.6583 0.9940
-1.3355 -0.0596 -0.6558 0.9941
-1.3251 -0.1782 -0.6559 0.9941
-1.3089 -0.2966 -0.6583 0.9940
-1.3003 -0.4193 -0.6702 0.9939
-4.0882 -2.6744 -2.3963 0.9785
-3.5493 -3.3569 -2.3963 0.9785
-2.8978 -3.9330 -2.3963 0.9785
-2.5363 -4.1753 -2.3963 0.9785
-0.9593 -5.0043 -2.4994 0.9776
-0.0568 -5.0951 -2.4994 0.9776
0.8475 -5.0245 -2.4994 0.9776
1.2914 -4.9291 -2.4994 0.9776
1.7249 -4.7946 -2.4994 0.9776
2.1448 -4.6220 -2.4994 0.9776
2.9304 -4.1685 -2.4994 0.9776
3.2898 -3.8911 -2.4994 0.9776
4.2009 -2.8837 -2.4994 0.9776
4.4409 -2.4984 -2.4994 0.9776
4.6456 -2.0932 -2.4994 0.9776
5.0942 0.1135 -2.4994 0.9776
5.0638 0.5665 -2.4994 0.9776
4.9933 1.0149 -2.4994 0.9776
4.5478 2.2981 -2.4994 0.9776
3.4598 3.7407 -2.4994 0.9776
3.1132 4.0338 -2.4994 0.9776
2.7418 4.2949 -2.4994 0.9776
1.9368 4.7130 -2.4994 0.9776
1.5097 4.8667 -2.4994 0.9776
1.0705 4.9817 -2.4994 0.9776
0.6229 5.0572 -2.4994 0.9776
-1.1812 4.9566 -2.4994 0.9776
-1.5829 4.7280 -2.4457 0.9780
-1.9571 4.4761 -2.3963 0.9785
-2.0410 3.0454 -1.7983 0.9838
-3.0702 3.8000 -2.3963 0.9785
-3.6953 3.1954 -2.3963 0.9785
-3.9650 2.8538 -2.3963 0.9785
-4.2033 2.4896 -2.3963 0.9785
-1.3159 0.2371 -0.6559 0.9941
-1.3317 0.1190 -0.6558 0.9941
-1.2624 0.0000 -0.6549 0.9943
-1.2426 -0.2239 -0.6550 0.9943
-1.2162 -0.4529 -0.6733 0.9942
-4.1681 -1.9909 -2.3963 0.9794
-3.9744 -2.3540 -2.3963 0.9794
-3.7491 -2.6984 -2.3963 0.9794
-3.4940 -3.0214 -2.3963 0.9794
-3.2112 -3.3204 -2.3963 0.9794
-1.8505 -4.2323 -2.3963 0.9794
-1.5296 -4.5687 -2.4994 0.9785
-1.1169 -4.6867 -2.4994 0.9785
-0.2682 -4.8104 -2.4994 0.9785
1.4274 -4.6016 -2.4994 0.9785
1.8313 -4.4563 -2.4994 0.9785
2.5924 -4.0610 -2.4994 0.9785
3.2714 -3.5370 -2.4994 0.9785
3.5732 -3.2318 -2.4994 0.9785
3.8467 -2.9009 -2.4994 0.9785
4.3001 -2.1729 -2.4994 0.9785
4.6172 -1.3761 -2.4994 0.9785
4.7880 -0.5356 -2.4994 0.9785
4.8071 0.3218 -2.4994 0.9785
4.3926 1.9792 -2.4994 0.9785
3.4257 3.3877 -2.4994 0.9785
2.7708 3.9415 -2.4994 0.9785
2.4090 4.1724 -2.4994 0.9785
0.8014 4.7508 -2.4994 0.9785
0.3753 4.8033 -2.4994 0.9785
-0.0537 4.8176 -2.4994 0.9785
-2.0372 4.1457 -2.3963 0.9794
-2.3981 3.9479 -2.3963 0.9794
-3.3560 3.1740 -2.3963 0.9794
-3.6251 2.8627 -2.3963 0.9794
-4.0753 2.1746 -2.3963 0.9794
-4.2527 1.8033 -2.3963 0.9794
-1.2316 0.2790 -0.6551 0.9943
-1.2514 0.1683 -0.6551 0.9943
-1.2613 -0.0562 -0.6550 0.9943
-1.2316 -0.2790 -0.6551 0.9943
-4.0753 -2.1746 -2.3963 0.9794
-3.8656 -2.5287 -2.3963 0.9794
-3.6251 -2.8627 -2.3963 0.9794
-2.3981 -3.9479 -2.3963 0.9794
-2.0372 -4.1457 -2.3963 0.9794
-0.4823 -4.7937 -2.4994 0.9785
-0.0537 -4.8176 -2.4994 0.9785
0.3753 -4.8032 -2.4994 0.9785
1.6310 -4.5334 -2.4994 0.9785
2.0280 -4.3703 -2.4994 0.9785
2.7708 -3.9415 -2.4994 0.9785
3.1106 -3.6792 -2.4994 0.9785
3.4257 -3.3877 -2.4994 0.9785
3.9721 -2.7267 -2.4994 0.9785
4.5513 -1.5804 -2.4994 0.9785
4.6739 -1.1690 -2.4994 0.9785
4.8071 -0.3218 -2.4994 0.9785
4.7214 0.9596 -2.4994 0.9785
4.0896 2.5470 -2.4994 0.9785
3.8467 2.9009 -2.4994 0.9785
3.5732 3.2318 -2.4994 0.9785
3.2714 3.5370 -2.4994 0.9785
2.9436 3.8141 -2.4994 0.9785
2.5924 4.0610 -2.4994 0.9785
0.5889 4.7818 -2.4994 0.9785
0.1610 4.8152 -2.4994 0.9785
-0.2682 4.8104 -2.4994 0.9785
-0.6953 4.7675 -2.4994 0.9785
-1.1169 4.6867 -2.4994 0.9785
-1.5296 4.5687 -2.4994 0.9785
-2.2199 4.0508 -2.3963 0.9794
-2.9029 3.5930 -2.3963 0.9794
-3.2112 3.3204 -2.3963 0.9794
-3.7491 2.6984 -2.3963 0.9794
-3.9744 2.3540 -2.3963 0.9794
-4.1681 1.9909 -2.3963 0.9794
-1.2162 0.4529 -0.6733 0.9942
-1.2426 0.2239 -0.6550 0.9943
-1.2576 0.1124 -0.6550 0.9943
-1.1899 -0.1063 -0.6543 0.9946
-1.1577 -0.3171 -0.6575 0.9945
-3.5511 -2.5559 -2.3963 0.9802
-3.3095 -2.8618 -2.3963 0.9802
-2.7496 -3.4033 -2.3963 0.9802
-1.7528 -4.0088 -2.3963 0.9802
-0.6586 -4.5157 -2.4994 0.9794
-0.2541 -4.5564 -2.4994 0.9794
0.1525 -4.5609 -2.4994 0.9794
0.5578 -4.5293 -2.4994 0.9794
1.7346 -4.2210 -2.4994 0.9794
3.3845 -3.0611 -2.4994 0.9794
3.8736 -2.4125 -2.4994 0.9794
4.0730 -2.0582 -2.4994 0.9794
4.2400 -1.6875 -2.4994 0.9794
4.5623 -0.1017 -2.4994 0.9794
4.5533 0.3048 -2.4994 0.9794
4.1606 1.8747 -2.4994 0.9794
3.5175 2.9073 -2.4994 0.9794
2.9463 3.4849 -2.4994 0.9794
2.2817 3.9521 -2.4994 0.9794
1.9209 4.1395 -2.4994 0.9794
1.5449 4.2940 -2.4994 0.9794
1.1565 4.4145 -2.4994 0.9794
0.7590 4.4999 -2.4994 0.9794
-0.0508 4.5632 -2.4994 0.9794
-0.4568 4.5405 -2.4994 0.9794
-0.8591 4.4819 -2.4994 0.9794
-1.2546 4.3876 -2.4994 0.9794
-1.5888 4.1252 -2.4211 0.9800
-1.9297 3.9267 -2.3963 0.9802
-2.2715 3.7394 -2.3963 0.9802
-2.1751 2.9521 -2.0083 0.9834
-2.8985 3.2774 -2.3963 0.9802
-3.6614 2.3952 -2.3963 0.9802
-1.1411 0.4838 -0.6788 0.9944
-1.1649 0.2639 -0.6542 0.9946
-1.1840 0.1592 -0.6543 0.9946
-1.1933 0.0532 -0.6542 0.9946
-1.1840 -0.1592 -0.6543 0.9946
-1.1649 -0.2639 -0.6542 0.9946
-1.1411 -0.4838 -0.6788 0.9944
-3.1787 -3.0064 -2.3963 0.9802
-2.5953 -3.5224 -2.3963 0.9802
-2.2715 -3.7394 -2.3963 0.9802
-1.9297 -3.9267 -2.3963 0.9802
-1.5888 -4.1252 -2.4211 0.9800
-1.2546 -4.3876 -2.4994 0.9794
-0.8591 -4.4819 -2.4994 0.9794
-0.4568 -4.5405 -2.4994 0.9794
-0.0508 -4.5632 -2.4994 0.9794
0.7590 -4.4999 -2.4994 0.9794
1.5449 -4.2940 -2.4994 0.9794
1.9209 -4.1395 -2.4994 0.9794
2.9463 -3.4849 -2.4994 0.9794
3.2448 -3.2088 -2.4994 0.9794
3.5175 -2.9073 -2.4994 0.9794
3.9773 -2.2376 -2.4994 0.9794
4.4271 -1.1073 -2.4994 0.9794
4.5081 -0.7089 -2.4994 0.9794
4.5533 -0.3048 -2.4994 0.9794
4.5623 0.1017 -2.4994 0.9794
4.4720 0.9090 -2.4994 0.9794
4.3734 1.3034 -2.4994 0.9794
4.2400 1.6875 -2.4994 0.9794
3.8736 2.4125 -2.4994 0.9794
2.4555 3.8465 -2.4994 0.9794
2.1034 4.0498 -2.4994 0.9794
1.7346 4.2209 -2.4994 0.9794
-1.0579 4.4391 -2.4994 0.9794
-1.4488 4.3274 -2.4994 0.9794
-1.7528 4.0088 -2.3963 0.9802
-2.0325 3.0326 -1.9995 0.9835
-3.0416 3.1450 -2.3963 0.9802
-3.5511 2.5559 -2.3963 0.9802
-3.7645 2.2297 -2.3963 0.9802
-1.1577 0.3171 -0.6575 0.9945
-1.1756 0.2118 -0.6543 0.9946
-1.1319 0.0000 -0.6535 0.9948
-1.1276 -0.1008 -0.6536 0.9948
-3.7453 -1.7890 -2.3963 0.9810
-3.5712 -2.1152 -2.3963 0.9810
-3.3687 -2.4247 -2.3963 0.9810
-3.1396 -2.7149 -2.3963 0.9810
-2.8855 -2.9836 -2.3963 0.9810
-2.6085 -3.2285 -2.3963 0.9810
-1.6628 -3.8029 -2.3963 0.9810
-1.3744 -4.1052 -2.4994 0.9802
-0.6248 -4.2838 -2.4994 0.9802
0.1447 -4.3267 -2.4994 0.9802
0.5292 -4.2967 -2.4994 0.9802
1.2826 -4.1348 -2.4994 0.9802
1.9954 -3.8418 -2.4994 0.9802
2.3294 -3.6490 -2.4994 0.9802
2.6450 -3.4272 -2.4994 0.9802
2.9395 -3.1782 -2.4994 0.9802
3.2107 -2.9039 -2.4994 0.9802
3.4564 -2.6066 -2.4994 0.9802
3.6747 -2.2887 -2.4994 0.9802
3.8638 -1.9525 -2.4994 0.9802
4.0223 -1.6008 -2.4994 0.9802
4.2424 -0.8623 -2.4994 0.9802
4.3023 -0.4813 -2.4994 0.9802
4.3281 -0.0964 -2.4994 0.9802
4.3195 0.2891 -2.4994 0.9802
4.2766 0.6725 -2.4994 0.9802
3.9470 1.7784 -2.4994 0.9802
3.7730 2.1227 -2.4994 0.9802
3.3369 2.7580 -2.4994 0.9802
2.1646 3.7491 -2.4994 0.9802
1.8223 3.9269 -2.4994 0.9802
1.0972 4.1878 -2.4994 0.9802
0.7201 4.2688 -2.4994 0.9802
0.3373 4.3160 -2.4994 0.9802
-0.0482 4.3289 -2.4994 0.9802
-0.4333 4.3074 -2.4994 0.9802
-0.8150 4.2517 -2.4994 0.9802
-1.1902 4.1623 -2.4994 0.9802
-1.5559 4.0399 -2.4994 0.9802
-3.0155 2.8520 -2.3963 0.9810
-3.2574 2.5723 -2.3963 0.9810
-3.6618 1.9540 -2.3963 0.9810
-1.0769 0.4566 -0.6753 0.9946
-1.1309 0.0504 -0.6536 0.9948
-1.1309 -0.0504 -0.6536 0.9948
-1.1220 -0.1509 -0.6536 0.9948
-1.1039 -0.2501 -0.6535 0.9948
-1.0769 -0.4566 -0.6753 0.9946
-3.6619 -1.9540 -2.3963 0.9810
-3.0155 -2.8520 -2.3963 0.9810
-2.1549 -3.5474 -2.3963 0.9810
-1.5559 -4.0399 -2.4994 0.9802
-1.1902 -4.1623 -2.4994 0.9802
-0.8150 -4.2517 -2.4994 0.9802
-0.4333 -4.3074 -2.4994 0.9802
-0.0482 -4.3289 -2.4994 0.9802
0.3373 -4.3160 -2.4994 0.9802
1.0972 -4.1878 -2.4994 0.9802
1.4655 -4.0735 -2.4994 0.9802
1.8223 -3.9269 -2.4994 0.9802
2.1646 -3.7492 -2.4994 0.9802
3.3369 -2.7580 -2.4994 0.9802
3.7730 -2.1227 -2.4994 0.9802
4.0896 -1.4201 -2.4994 0.9802
4.1998 -1.0504 -2.4994 0.9802
4.3195 -0.2891 -2.4994 0.9802
4.3281 0.0964 -2.4994 0.9802
4.3023 0.4813 -2.4994 0.9802
4.2424 0.8623 -2.4994 0.9802
4.1488 1.2365 -2.4994 0.9802
4.0223 1.6008 -2.4994 0.9802
3.6747 2.2887 -2.4994 0.9802
3.4564 2.6066 -2.4994 0.9802
2.3294 3.6490 -2.4994 0.9802
1.9954 3.8419 -2.4994 0.9802
1.6455 4.0042 -2.4994 0.9802
-0.2410 4.3224 -2.4994 0.9802
-0.6248 4.2838 -2.4994 0.9802
-1.3744 4.1052 -2.4994 0.9802
-1.6628 3.8029 -2.3963 0.9810
-2.0280 3.0261 -2.1032 0.9833
-2.6085 3.2285 -2.3963 0.9810
-3.3687 2.4247 -2.3963 0.9810
-3.7453 1.7889 -2.3963 0.9810
-1.1276 0.1008 -0.6536 0.9948
