ply
format ascii 1.0
element vertex 1391
property float32 x
property float32 y
property float32 z
property float32 I
end_header
12.0285 15.5858 3.4715 0.9231
7.0660 -15.2269 2.5716 0.9343
12.0285 15.5858 3.0160 0.9234
7.0656 -15.2261 2.1858 0.9345
12.0285 15.5858 2.1141 0.9239
11.4502 16.2882 1.6854 0.9232
12.0353 15.5945 1.2215 0.9241
7.0637 -15.2218 0.6617 0.9350
12.0353 15.5945 0.7767 0.9242
17.7860 -0.3963 0.3005 0.9313
17.6476 -1.1814 0.2988 0.9317
17.9263 0.3995 0.3029 0.9308
12.0353 15.5945 0.3327 0.9242
-18.6278 6.9371 0.3358 0.9236
17.7860 -0.3963 -0.1002 0.9313
-18.5773 5.9904 -0.1099 0.9249
17.6476 -1.1814 -0.0996 0.9317
17.9263 0.3995 -0.1010 0.9308
12.8979 15.2557 -0.5625 0.9232
-18.3576 5.9196 -0.5431 0.9257
7.0614 -15.2170 -0.4724 0.9351
17.9263 0.3995 -0.5049 0.9308
12.0353 15.5945 -0.5547 0.9242
-18.2243 6.7868 -0.5476 0.9251
17.7860 -0.3963 -0.9022 0.9312
11.4575 16.2986 -1.0104 0.9233
-18.1031 5.8375 -0.9646 0.9266
7.0607 -15.2154 -0.8507 0.9350
17.6476 -1.1814 -0.8970 0.9316
12.0353 15.5945 -0.9990 0.9241
10.5298 -13.6439 -1.2637 0.9332
17.7860 -0.3964 -1.3044 0.9311
11.4575 16.2986 -1.4608 0.9232
-9.2961 15.3035 -1.3129 0.9307
-11.3837 12.8718 -1.2599 0.9334
-14.3957 11.3681 -1.3450 0.9291
-15.2927 10.0040 -1.3399 0.9293
7.0599 -15.2137 -1.2298 0.9349
17.9263 0.3995 -1.3147 0.9306
12.0353 15.5945 -1.4443 0.9240
-9.6923 14.4619 -1.2765 0.9326
-10.9753 13.5843 -1.2805 0.9324
-13.3580 11.5511 -1.2948 0.9316
-15.1518 10.9056 -1.3688 0.9279
-17.6690 8.4397 -1.4357 0.9245
-17.8014 6.6293 -1.3928 0.9266
-5.6236 -16.7968 -1.7006 0.9313
10.4675 -13.5632 -1.6448 0.9335
17.7860 -0.3963 -1.7080 0.9310
-8.6307 17.5630 -1.8787 0.9244
-8.9174 14.6800 -1.6490 0.9333
-9.7258 13.2000 -1.5741 0.9362
-10.9089 12.3348 -1.5809 0.9360
-13.5449 10.6963 -1.6570 0.9330
-16.7924 8.9607 -1.8273 0.9264
-5.8345 -15.1490 -1.5585 0.9368
7.0523 -15.1972 -1.6085 0.9349
10.5246 -8.6988 -1.3109 0.9466
17.6476 -1.1813 -1.6981 0.9314
-8.7804 16.0221 -1.7540 0.9292
-9.0493 13.5025 -1.5605 0.9368
-11.1017 11.4791 -1.5331 0.9378
-12.8797 11.1375 -1.6347 0.9339
-14.4088 10.3708 -1.7044 0.9311
-15.3548 9.0947 -1.7133 0.9308
-5.6582 -10.3248 -1.3985 0.9537
10.4619 -16.3884 -2.3096 0.9247
10.4675 -13.5632 -2.0351 0.9333
10.4720 -11.3222 -1.8320 0.9398
10.5248 -7.9372 -1.5659 0.9483
10.5356 -3.1400 -1.3059 0.9567
17.7860 -0.3963 -2.1133 0.9308
-8.5669 14.1030 -1.9601 0.9357
-9.3841 12.7362 -1.8792 0.9383
-13.0370 10.2952 -1.9733 0.9353
-14.1244 9.2398 -2.0049 0.9343
-16.0575 8.5686 -2.1620 0.9293
10.5346 -3.6580 -1.3247 0.9561
10.5366 -2.6354 -1.2902 0.9572
17.6476 -1.1814 -2.1010 0.9312
12.0353 15.5945 -2.3399 0.9237
-8.4098 15.3460 -2.0787 0.9319
-12.4274 10.7464 -1.9516 0.9360
-13.7324 9.8840 -2.0098 0.9341
-17.5870 8.4006 -2.3152 0.9245
-17.3412 6.4579 -2.1981 0.9282
-5.6106 -10.2380 -1.6542 0.9539
-5.3694 -16.0377 -2.3963 0.9340
-3.9207 -16.4519 -2.3963 0.9340
-2.4408 -16.7356 -2.3963 0.9340
-0.9821 -17.6129 -2.4994 0.9312
2.1563 -17.5079 -2.4994 0.9312
3.7060 -17.2465 -2.4994 0.9312
5.2264 -16.8482 -2.4994 0.9312
9.0998 -14.2546 -2.3962 0.9340
10.3324 -13.3881 -2.3962 0.9340
10.4720 -11.3222 -2.1852 0.9396
10.4815 -6.5280 -1.7496 0.9513
10.4840 -5.2978 -1.6644 0.9537
10.6565 -4.2412 -1.6251 0.9547
10.5356 -3.1400 -1.5577 0.9566
16.9701 -1.8984 -2.4195 0.9333
17.0718 -0.3804 -2.4195 0.9333
16.1312 5.6013 -2.4195 0.9333
15.5686 7.0149 -2.4195 0.9333
14.0782 9.6641 -2.4195 0.9333
13.1621 10.8788 -2.4195 0.9333
11.0247 13.0401 -2.4195 0.9333
8.4558 14.6458 -2.3962 0.9340
-0.1965 17.6391 -2.4994 0.9312
-7.8868 16.0491 -2.5337 0.9303
-9.1036 12.3555 -2.1745 0.9399
-11.1420 10.5380 -2.1729 0.9399
-12.6092 9.9574 -2.2765 0.9372
-13.6840 8.9517 -2.3169 0.9361
-17.4645 7.4055 -2.6878 0.9262
-17.4529 5.6278 -2.5983 0.9286
-5.6129 -11.4220 -1.8032 0.9499
-5.6192 -14.5899 -2.2153 0.9388
-4.6497 -16.2609 -2.3963 0.9340
-1.6929 -16.8277 -2.3963 0.9340
-0.1965 -17.6391 -2.4994 0.9312
5.9717 -16.5987 -2.4994 0.9312
7.1186 -15.3403 -2.3962 0.9340
9.7257 -13.8351 -2.3962 0.9340
10.4739 -10.3579 -2.0872 0.9422
10.4773 -8.6597 -1.9260 0.9466
10.4802 -7.1943 -1.8011 0.9499
10.5255 -3.6549 -1.5787 0.9560
10.5366 -2.6354 -1.5389 0.9571
17.0379 -1.1405 -2.4195 0.9333
17.0718 0.3804 -2.4195 0.9333
16.7338 3.4013 -2.4195 0.9333
16.3647 4.8772 -2.4195 0.9333
15.8656 6.3144 -2.4195 0.9333
13.6337 10.2816 -2.4195 0.9333
12.6645 11.4543 -2.4195 0.9333
6.4716 15.7478 -2.4124 0.9335
-2.4408 16.7356 -2.3963 0.9340
-5.3694 16.0377 -2.3963 0.9340
-5.5210 12.6269 -1.9526 0.9458
-8.0665 14.7195 -2.3782 0.9344
-8.4580 12.6203 -2.1526 0.9405
-10.4066 10.7603 -2.1210 0.9413
-12.0036 10.3799 -2.2485 0.9379
-13.0891 9.4210 -2.2850 0.9369
-5.8650 -5.0716 -1.2773 0.9691
-5.6069 -8.3660 -1.6591 0.9600
-5.6106 -10.2380 -1.9233 0.9538
-3.3721 -14.1500 -2.3963 0.9427
-2.0993 -14.3940 -2.3963 0.9427
-0.8447 -15.1485 -2.4994 0.9403
0.3022 -9.0392 -1.4899 0.9640
1.8546 -15.0583 -2.4994 0.9403
3.1875 -14.8334 -2.4994 0.9403
4.4951 -14.4909 -2.4994 0.9403
5.7670 -14.0333 -2.4994 0.9403
6.7043 -12.9080 -2.3962 0.9427
9.8763 -10.6782 -2.3962 0.9427
10.4788 -7.9024 -2.1621 0.9482
10.4840 -5.2978 -1.9351 0.9535
10.4862 -4.1734 -1.8593 0.9553
10.4883 -3.1259 -1.8029 0.9566
14.6831 -0.3272 -2.4195 0.9422
14.6540 0.9810 -2.4195 0.9422
14.5085 2.2814 -2.4195 0.9422
8.3649 11.8993 -2.3962 0.9427
7.2726 12.5966 -2.3962 0.9427
6.3864 13.7624 -2.4994 0.9403
5.1362 14.2762 -2.4994 0.9403
3.8451 14.6767 -2.4994 0.9403
-1.5186 15.0959 -2.4994 0.9403
-2.7384 14.2862 -2.3963 0.9427
-5.2280 13.5743 -2.3963 0.9427
-7.9259 13.0477 -2.5150 0.9400
-8.8418 12.0002 -2.4556 0.9414
-12.2061 9.6391 -2.5622 0.9389
-13.1388 8.5950 -2.5865 0.9383
-17.1015 7.2517 -3.0601 0.9275
-17.3922 5.6083 -3.0105 0.9286
-5.6483 -5.3421 -1.2807 0.9690
-5.9108 -8.0222 -1.6416 0.9604
-5.6086 -9.2330 -1.7797 0.9572
-3.9991 -13.9857 -2.3963 0.9427
-2.7384 -14.2862 -2.3963 0.9427
-1.5187 -15.0958 -2.4994 0.9403
-0.1690 -15.1711 -2.4994 0.9403
2.5236 -14.9607 -2.4994 0.9403
3.8451 -14.6767 -2.4994 0.9403
5.1362 -14.2762 -2.4994 0.9403
7.2726 -12.5966 -2.3962 0.9427
8.3649 -11.8993 -2.3962 0.9427
10.3422 -10.2276 -2.3962 0.9427
10.4802 -7.1943 -2.0941 0.9498
10.4872 -3.6416 -1.8289 0.9560
14.5085 -2.2814 -2.4195 0.9422
14.6540 -0.9810 -2.4195 0.9422
14.5957 1.6328 -2.4195 0.9422
14.3925 2.9254 -2.4195 0.9422
12.4666 7.7643 -2.4195 0.9422
11.7261 8.8431 -2.4195 0.9422
10.8925 9.8517 -2.4195 0.9422
8.8867 11.5148 -2.3962 0.9427
7.8266 12.2601 -2.3962 0.9427
5.7670 14.0333 -2.4994 0.9403
1.8546 15.0583 -2.4994 0.9403
0.5070 15.1636 -2.4994 0.9403
-0.8447 15.1485 -2.4994 0.9403
-3.3721 14.1500 -2.3963 0.9427
-4.6182 13.7937 -2.3963 0.9427
-5.5209 12.6266 -2.2703 0.9457
-8.2172 12.2609 -2.4315 0.9419
-9.4875 11.7428 -2.4870 0.9406
-11.6052 10.0354 -2.5275 0.9397
-16.0560 7.6693 -2.9313 0.9304
-18.9938 5.2029 -3.2443 0.9233
-5.8650 -5.0716 -1.4574 0.9689
-5.6493 -5.8413 -1.5274 0.9675
-5.6069 -8.3660 -1.8930 0.9598
-5.6106 -10.2380 -2.1944 0.9536
-4.0476 -12.0896 -2.3963 0.9494
-2.9555 -12.4018 -2.3963 0.9494
-0.7403 -13.2770 -2.4994 0.9473
3.9398 -12.7006 -2.4994 0.9473
5.0545 -12.2995 -2.4994 0.9473
6.1292 -11.8008 -2.4994 0.9473
8.6562 -9.3589 -2.3962 0.9494
10.1784 -7.6759 -2.3962 0.9494
10.4815 -6.5280 -2.3210 0.9510
10.4840 -5.2978 -2.2079 0.9533
10.4883 -3.1259 -2.0571 0.9564
10.4902 -2.1322 -2.0121 0.9574
12.7925 -1.4311 -2.4195 0.9490
12.8691 -0.2868 -2.4195 0.9490
12.8435 0.8598 -2.4195 0.9490
11.2187 6.3116 -2.4195 0.9490
10.6125 7.2850 -2.4195 0.9490
9.8263 8.1217 -2.3962 0.9494
6.4669 11.2009 -2.4310 0.9487
5.5974 12.0621 -2.4994 0.9473
3.3701 12.8635 -2.4994 0.9473
2.2118 13.1124 -2.4994 0.9473
-2.4001 12.5212 -2.3963 0.9494
-3.5050 12.2579 -2.3963 0.9494
-5.5005 6.2195 -1.5606 0.9668
-11.6841 9.2268 -2.7984 0.9412
-12.4294 8.1310 -2.7917 0.9413
-15.3220 6.4971 -3.1282 0.9345
-5.6086 -9.2330 -2.0305 0.9570
-5.6129 -11.4220 -2.3921 0.9495
-3.5050 -12.2579 -2.3963 0.9494
0.7354 -9.4109 -1.7743 0.9623
2.2118 -13.1124 -2.4994 0.9473
4.5016 -12.5125 -2.4994 0.9473
5.5974 -12.0621 -2.4994 0.9473
7.3315 -10.4292 -2.3962 0.9494
8.2307 -9.7353 -2.3962 0.9494
9.0645 -8.9640 -2.3962 0.9494
10.4872 -3.6416 -2.0866 0.9558
10.4893 -2.6236 -2.0323 0.9569
12.8435 -0.8598 -2.4195 0.9490
12.8691 0.2868 -2.4195 0.9490
12.7925 1.4311 -2.4195 0.9490
11.4888 5.8055 -2.4195 0.9490
9.4548 8.5513 -2.3962 0.9494
7.7888 10.0922 -2.3962 0.9494
6.8596 10.7454 -2.3962 0.9494
3.9398 12.7006 -2.4994 0.9473
2.7937 13.0008 -2.4994 0.9473
-0.7403 13.2770 -2.4994 0.9473
-1.8399 12.6157 -2.3963 0.9494
-2.9555 12.4019 -2.3963 0.9494
-7.4544 13.6025 -2.9155 0.9388
-5.5131 8.2261 -1.8613 0.9605
-9.7859 10.1185 -2.6458 0.9443
-11.2352 9.7155 -2.7918 0.9413
-11.9342 8.5897 -2.7638 0.9419
-13.2764 7.8636 -2.9003 0.9391
-14.6992 7.0212 -3.0619 0.9358
-5.6639 -4.8978 -1.5828 0.9699
-5.6017 -5.7922 -1.7033 0.9676
1.4454 -11.7357 -2.4994 0.9528
3.5033 -11.2935 -2.4994 0.9528
4.4945 -10.9368 -2.4994 0.9528
6.3625 -9.9667 -2.4994 0.9528
7.6971 -8.3221 -2.3962 0.9547
8.4073 -7.6039 -2.3962 0.9547
9.0507 -6.8255 -2.3962 0.9547
10.4862 -4.1734 -2.3857 0.9549
11.3752 -1.2725 -2.4195 0.9543
11.4206 0.7645 -2.4195 0.9543
11.3072 1.7780 -2.4195 0.9543
10.3352 4.6568 -2.3962 0.9547
8.0602 7.9709 -2.3962 0.9547
7.3188 8.6567 -2.3962 0.9547
5.9122 10.2402 -2.4994 0.9528
4.0029 11.1262 -2.4994 0.9528
2.9967 11.4383 -2.4994 0.9528
1.9667 11.6596 -2.4994 0.9528
-0.1317 11.8236 -2.4994 0.9528
-1.1836 11.7650 -2.4994 0.9528
-4.0745 10.5792 -2.3963 0.9547
-7.3593 12.1150 -2.9963 0.9437
-8.0514 10.9274 -2.8691 0.9460
-11.7876 7.7111 -2.9774 0.9440
-15.5347 5.0093 -3.4502 0.9354
-5.6070 -5.3031 -1.6313 0.9689
-5.6028 -6.3352 -1.7877 0.9660
-5.6086 -9.2330 -2.2835 0.9568
-4.9999 -10.1745 -2.3963 0.9547
-2.1342 -11.1339 -2.3963 0.9547
2.9967 -11.4383 -2.4994 0.9528
5.9122 -10.2402 -2.4994 0.9528
6.5192 -9.2737 -2.3962 0.9547
7.3188 -8.6567 -2.3962 0.9547
8.0602 -7.9709 -2.3962 0.9547
8.7377 -7.2219 -2.3962 0.9547
10.3352 -4.6568 -2.3962 0.9547
11.3072 -1.7780 -2.4195 0.9543
11.4206 -0.7645 -2.4195 0.9543
11.4433 0.2550 -2.4195 0.9543
11.3752 1.2725 -2.4195 0.9543
10.9694 3.2692 -2.4195 0.9543
9.0507 6.8255 -2.3962 0.9547
8.4073 7.6039 -2.3962 0.9547
6.9259 8.9741 -2.3962 0.9547
4.4945 10.9368 -2.4994 0.9528
2.4842 11.5604 -2.4994 0.9528
0.3951 11.8177 -2.4994 0.9528
-0.6583 11.8060 -2.4994 0.9528
-5.4482 9.9417 -2.3963 0.9547
-8.4465 10.4544 -2.8410 0.9465
-10.5501 9.1230 -2.9482 0.9446
-12.4172 7.3547 -3.0506 0.9427
-13.2922 6.3492 -3.1138 0.9416
-17.5682 4.8124 -3.8504 0.9282
-6.0096 -3.5595 -1.6416 0.9717
-5.6690 -4.0803 -1.6416 0.9717
-5.5999 -4.8424 -1.7399 0.9700
-5.6040 -6.9362 -2.0957 0.9640
-5.6069 -8.3660 -2.3669 0.9595
-3.2371 -9.6687 -2.3963 0.9590
-1.5348 -10.5235 -2.4994 0.9572
2.2343 -10.3975 -2.4994 0.9572
3.1508 -10.1573 -2.4994 0.9572
4.9019 -9.4378 -2.4994 0.9572
6.4630 -8.3743 -2.4861 0.9575
8.1402 -6.1388 -2.3962 0.9590
8.6543 -5.3899 -2.3962 0.9590
9.4728 -3.7701 -2.3962 0.9590
9.7708 -2.9120 -2.3962 0.9590
9.9912 -2.0308 -2.3962 0.9590
10.1727 0.6810 -2.3962 0.9590
10.0718 1.5837 -2.3962 0.9590
9.6314 3.3444 -2.3962 0.9590
9.2955 4.1884 -2.3962 0.9590
7.8587 6.4954 -2.3962 0.9590
6.5825 7.7858 -2.3962 0.9590
5.3174 9.2100 -2.4994 0.9572
3.6002 10.0069 -2.4994 0.9572
0.8285 10.6025 -2.4994 0.9572
-0.1185 10.6342 -2.4994 0.9572
-2.8032 9.8033 -2.3963 0.9590
-3.6646 9.5149 -2.3963 0.9590
-4.4969 9.1510 -2.3963 0.9590
-5.2936 8.7144 -2.3963 0.9590
-8.5218 9.6357 -3.0232 0.9485
-9.4028 8.8931 -3.0417 0.9482
-10.1134 7.9865 -3.0286 0.9484
-5.5233 3.6132 -1.5512 0.9732
-12.5928 5.3398 -3.2147 0.9453
-13.9338 4.4931 -3.4408 0.9416
-17.9016 4.0560 -4.3139 0.9274
-5.8451 -3.8237 -1.6416 0.9717
-5.5990 -4.4215 -1.6767 0.9711
-5.6008 -5.2972 -1.8118 0.9688
-5.6028 -6.3352 -1.9877 0.9658
-5.6054 -7.6076 -2.2209 0.9619
-4.4969 -9.1510 -2.3963 0.9590
-2.8032 -9.8033 -2.3963 0.9590
-0.1185 -10.6342 -2.4994 0.9572
1.7689 -10.4867 -2.4994 0.9572
2.6952 -10.2876 -2.4994 0.9572
3.6002 -10.0069 -2.4994 0.9572
6.1161 -8.7002 -2.4994 0.9572
7.2494 -7.1690 -2.3962 0.9590
7.8587 -6.4954 -2.3962 0.9590
8.4056 -5.7701 -2.3962 0.9590
8.8858 -4.9991 -2.3962 0.9590
6.7930 -3.0608 -1.7511 0.9698
10.1727 -0.6810 -2.3962 0.9590
10.1930 0.2272 -2.3962 0.9590
10.1323 1.1335 -2.3962 0.9590
9.0997 4.5983 -2.3962 0.9590
8.6543 5.3900 -2.3962 0.9590
8.1402 6.1388 -2.3962 0.9590
6.9228 7.4849 -2.3962 0.9590
6.4630 8.3743 -2.4861 0.9575
4.9019 9.4378 -2.4994 0.9572
2.2343 10.3975 -2.4994 0.9572
1.3000 10.5551 -2.4994 0.9572
-0.5921 10.6183 -2.4994 0.9572
-3.2371 9.6687 -2.3963 0.9590
-4.0848 9.3422 -2.3963 0.9590
-4.9001 8.9416 -2.3963 0.9590
-7.1857 10.7217 -3.0334 0.9483
-8.9889 9.2945 -3.0389 0.9483
-9.7409 8.4233 -3.0266 0.9485
-11.3536 6.7247 -3.1013 0.9472
-12.1210 5.7897 -3.1570 0.9463
-15.3973 4.2178 -3.7520 0.9365
-5.9415 -2.2126 -1.6416 0.9741
-5.5999 -4.8424 -1.9168 0.9699
-5.6017 -5.7922 -2.0863 0.9673
-5.6040 -6.9362 -2.3088 0.9638
-4.4479 -8.1164 -2.3963 0.9625
-2.9384 -8.7764 -2.3963 0.9625
-0.5374 -9.6384 -2.4994 0.9609
1.1800 -9.5810 -2.4994 0.9609
2.0281 -9.4379 -2.4994 0.9609
4.4495 -8.5668 -2.4994 0.9609
5.8979 -7.6421 -2.4994 0.9609
6.8637 -6.2078 -2.3962 0.9625
7.3890 -5.5723 -2.3962 0.9625
7.8556 -4.8925 -2.3962 0.9625
8.2599 -4.1739 -2.3962 0.9625
9.1972 -1.0289 -2.3962 0.9625
9.2523 -0.2062 -2.3962 0.9625
9.1423 1.4376 -2.3962 0.9625
8.9780 2.2455 -2.3962 0.9625
8.4376 3.8018 -2.3962 0.9625
7.6299 5.2376 -2.3962 0.9625
7.1334 5.8959 -2.3962 0.9625
4.0634 8.7565 -2.4994 0.9609
3.2679 9.0834 -2.4994 0.9609
-0.9663 9.6049 -2.4994 0.9609
-2.5445 8.8986 -2.3963 0.9625
-4.8050 7.9102 -2.3963 0.9625
-5.4900 7.4511 -2.3963 0.9625
-9.3721 7.4011 -3.0920 0.9519
-10.1904 6.6662 -3.1529 0.9509
-10.8589 5.7945 -3.1868 0.9504
-5.5141 2.3381 -1.5507 0.9756
-12.8562 4.1456 -3.4975 0.9457
-15.2204 3.4485 -4.0407 0.9376
-5.8370 -2.4751 -1.6416 0.9741
-5.5962 -2.9862 -1.6423 0.9741
-5.5990 -4.4215 -1.8472 0.9710
-5.6008 -5.2972 -1.9960 0.9686
-4.8050 -7.9102 -2.3963 0.9625
-0.1075 -9.6528 -2.4994 0.9609
2.4465 -9.3382 -2.4994 0.9609
3.2679 -9.0834 -2.4994 0.9609
5.5516 -7.8973 -2.4994 0.9609
6.5803 -6.5074 -2.3962 0.9625
7.1334 -5.8959 -2.3962 0.9625
7.6299 -5.2376 -2.3962 0.9625
8.0658 -4.5377 -2.3962 0.9625
6.7821 -3.0559 -1.9260 0.9697
8.7425 -3.0357 -2.3962 0.9625
8.9780 -2.2456 -2.3962 0.9625
9.2523 0.2062 -2.3962 0.9625
7.8556 4.8925 -2.3962 0.9625
7.3890 5.5723 -2.3962 0.9625
6.4630 6.9877 -2.4645 0.9614
4.4495 8.5668 -2.4994 0.9609
2.0281 9.4379 -2.4994 0.9609
1.1800 9.5810 -2.4994 0.9609
-1.3932 9.5523 -2.4994 0.9609
-2.1455 9.0031 -2.3963 0.9625
-2.9384 8.7764 -2.3963 0.9625
-5.1526 7.6883 -2.3963 0.9625
-5.5071 6.8163 -2.2689 0.9644
-9.7849 7.0428 -3.1215 0.9514
-10.5443 6.2454 -3.1731 0.9506
-12.2553 4.5639 -3.3860 0.9474
-13.4965 3.6971 -3.6232 0.9438
-5.5016 -0.0000 -1.5575 0.9774
-5.5017 -0.4917 -1.5637 0.9773
-5.5944 -2.0834 -1.6900 0.9755
-5.5956 -2.6728 -1.7555 0.9746
-5.5999 -4.8424 -2.0958 0.9697
-5.3198 -6.5844 -2.3963 0.9654
-4.0681 -7.4232 -2.3963 0.9654
-3.3912 -7.7559 -2.3963 0.9654
-1.2742 -8.7366 -2.4994 0.9640
0.2950 -8.8241 -2.4994 0.9640
1.8549 -8.6320 -2.4994 0.9640
2.6158 -8.4326 -2.4994 0.9640
3.3560 -8.1663 -2.4994 0.9640
4.0695 -7.8352 -2.4994 0.9640
5.9949 -6.4817 -2.4994 0.9640
6.4630 -5.8454 -2.4670 0.9644
6.7580 -5.0964 -2.3962 0.9654
8.1117 -2.4175 -2.3962 0.9654
8.2947 -1.6860 -2.3962 0.9654
8.4118 -0.9410 -2.3962 0.9654
8.4622 -0.1886 -2.3962 0.9654
8.4454 0.5654 -2.3962 0.9654
8.3615 1.3148 -2.3962 0.9654
7.3770 4.1502 -2.3962 0.9654
6.5243 5.3924 -2.3962 0.9654
5.7003 6.7423 -2.4994 0.9640
5.0775 7.2229 -2.4994 0.9640
2.2376 8.5408 -2.4994 0.9640
1.4685 8.7060 -2.4994 0.9640
0.6878 8.8022 -2.4994 0.9640
-0.0984 8.8285 -2.4994 0.9640
-0.8837 8.7847 -2.4994 0.9640
-2.3272 8.1387 -2.3963 0.9654
-3.7333 7.5971 -2.3963 0.9654
-7.2002 8.1413 -3.0768 0.9558
-7.9409 7.5104 -3.0942 0.9556
-5.5014 1.2464 -1.5969 0.9768
-5.5015 0.7398 -1.5715 0.9772
-5.5016 0.2453 -1.5590 0.9774
-5.5016 -0.2454 -1.5590 0.9774
-5.5017 -0.7399 -1.5715 0.9772
-5.6915 -1.8353 -1.6929 0.9754
-5.5950 -2.3725 -1.7204 0.9751
-5.5962 -2.9862 -1.7957 0.9740
-5.5975 -3.6617 -1.8936 0.9726
-5.5990 -4.4215 -2.0197 0.9708
-5.6008 -5.2972 -2.1824 0.9685
-3.7333 -7.5971 -2.3963 0.9654
-2.3272 -8.1387 -2.3963 0.9654
-1.5936 -8.3135 -2.3963 0.9654
-0.0984 -8.8285 -2.4994 0.9640
1.4685 -8.7060 -2.4994 0.9640
2.2376 -8.5408 -2.4994 0.9640
3.7164 -8.0087 -2.4994 0.9640
4.4145 -7.6461 -2.4994 0.9640
6.7821 -3.0559 -2.1059 0.9695
7.9959 -2.7765 -2.3962 0.9654
8.3615 -1.3148 -2.3962 0.9654
8.4454 -0.5654 -2.3962 0.9654
8.4118 0.9410 -2.3962 0.9654
8.2947 1.6860 -2.3962 0.9654
7.8643 3.1299 -2.3962 0.9654
7.1848 4.4747 -2.3962 0.9654
6.4630 5.8454 -2.4670 0.9644
5.9950 6.4817 -2.4994 0.9640
0.2950 8.8241 -2.4994 0.9640
-0.4915 8.8153 -2.4994 0.9640
-1.2742 8.7366 -2.4994 0.9640
-1.9623 8.2343 -2.3963 0.9654
-2.6874 8.0269 -2.3963 0.9654
-3.3912 7.7559 -2.3963 0.9654
-4.0681 7.4232 -2.3963 0.9654
-7.5727 7.8301 -3.0837 0.9557
-5.5079 4.7629 -2.0614 0.9702
-9.1322 6.5729 -3.1853 0.9543
-11.4395 4.2601 -3.4557 0.9505
-5.5014 0.9911 -1.5825 0.9770
-18.9033 -1.6893 -5.8374 0.9236
-5.5944 -2.0834 -1.8362 0.9753
-5.5956 -2.6728 -1.9073 0.9744
-5.5968 -3.3150 -2.0008 0.9731
-5.5999 -4.8424 -2.2771 0.9695
-5.4162 -5.6004 -2.3963 0.9679
-4.8963 -6.0602 -2.3963 0.9679
-4.3375 -6.4719 -2.3963 0.9679
-2.4735 -7.3879 -2.3963 0.9679
-1.1728 -8.0411 -2.4994 0.9666
0.9933 -8.0652 -2.4994 0.9666
1.7072 -7.9448 -2.4994 0.9666
2.4076 -7.7613 -2.4994 0.9666
3.0888 -7.5162 -2.4994 0.9666
3.7455 -7.2114 -2.4994 0.9666
4.3725 -6.8495 -2.4994 0.9666
4.9648 -6.4331 -2.4994 0.9666
5.5177 -5.9657 -2.4994 0.9666
6.0268 -5.4509 -2.4994 0.9666
6.4630 -4.8740 -2.4898 0.9667
6.6128 -4.1185 -2.3962 0.9679
6.9531 -3.5136 -2.3962 0.9679
7.6344 -1.5517 -2.3962 0.9679
7.7885 -0.1736 -2.3962 0.9679
7.7731 0.5204 -2.3962 0.9679
7.5577 1.8903 -2.3962 0.9679
7.1028 3.2004 -2.3962 0.9679
6.7897 3.8198 -2.3962 0.9679
6.4712 4.4422 -2.4142 0.9677
6.2636 5.1770 -2.4994 0.9666
5.7780 5.7140 -2.4994 0.9666
5.2465 6.2055 -2.4994 0.9666
4.0631 7.0375 -2.4994 0.9666
3.4206 7.3712 -2.4994 0.9666
1.3516 8.0130 -2.4994 0.9666
0.6331 8.1014 -2.4994 0.9666
-0.0905 8.1256 -2.4994 0.9666
-1.5298 7.9809 -2.4994 0.9666
-2.8001 7.2704 -2.3963 0.9679
-3.4361 6.9923 -2.3963 0.9679
-5.1614 5.8361 -2.3963 0.9679
-9.6090 5.1275 -3.3500 0.9554
-10.3708 4.3976 -3.4648 0.9540
-11.1667 3.6008 -3.6088 0.9521
-18.8666 0.8413 -5.8087 0.9240
-5.5962 -2.9862 -1.9510 0.9738
-5.5990 -4.4215 -2.1944 0.9706
-5.1614 -5.8361 -2.3963 0.9679
-4.6215 -6.2723 -2.3963 0.9679
-2.8001 -7.2704 -2.3963 0.9679
-1.5298 -7.9809 -2.4994 0.9666
2.0595 -7.8609 -2.4994 0.9666
3.4206 -7.3712 -2.4994 0.9666
5.2465 -6.2055 -2.4994 0.9666
6.4712 -4.4422 -2.4142 0.9677
6.7897 -3.8198 -2.3962 0.9679
6.7821 -3.0559 -2.2880 0.9693
7.3594 -2.5555 -2.3962 0.9679
7.5577 -1.8903 -2.3962 0.9679
7.6959 -1.2101 -2.3962 0.9679
6.9531 3.5136 -2.3962 0.9679
6.4630 4.8740 -2.4898 0.9667
4.9648 6.4331 -2.4994 0.9666
4.3725 6.8495 -2.4994 0.9666
2.4076 7.7613 -2.4994 0.9666
0.9933 8.0652 -2.4994 0.9666
-0.4524 8.1136 -2.4994 0.9666
-1.8061 7.5787 -2.3963 0.9679
-2.4735 7.3879 -2.3963 0.9679
-5.4162 5.6004 -2.3963 0.9679
-11.7825 3.2276 -3.7576 0.9502
-18.7729 1.6776 -5.7972 0.9242
-18.5669 0.0000 -6.1717 0.9247
-5.5944 -2.0834 -1.9844 0.9752
-5.5968 -3.3150 -2.1623 0.9730
-5.4530 -4.7154 -2.3963 0.9701
-5.0117 -5.1821 -2.3963 0.9701
-4.5306 -5.6076 -2.3963 0.9701
-2.8881 -6.6053 -2.3963 0.9701
-1.0852 -7.4405 -2.4994 0.9688
0.2513 -7.5150 -2.4994 0.9688
0.9191 -7.4628 -2.4994 0.9688
1.5797 -7.3514 -2.4994 0.9688
2.2278 -7.1816 -2.4994 0.9688
2.8581 -6.9548 -2.4994 0.9688
3.4658 -6.6729 -2.4994 0.9688
4.0460 -6.3379 -2.4994 0.9688
4.5940 -5.9526 -2.4994 0.9688
5.5766 -5.0438 -2.4994 0.9688
6.0034 -4.5274 -2.4994 0.9688
6.6976 -2.6656 -2.3962 0.9701
7.1639 -0.8014 -2.3962 0.9701
7.1211 1.1198 -2.3962 0.9701
6.9932 1.7491 -2.3962 0.9701
6.4630 3.6360 -2.4650 0.9692
5.7958 4.7904 -2.4994 0.9688
5.3464 5.2872 -2.4994 0.9688
4.8546 5.7421 -2.4994 0.9688
4.3243 6.1514 -2.4994 0.9688
3.1651 6.8206 -2.4994 0.9688
1.9056 7.2737 -2.4994 0.9688
1.2507 7.4145 -2.4994 0.9688
0.5858 7.4964 -2.4994 0.9688
-0.0838 7.5187 -2.4994 0.9688
-0.7526 7.4814 -2.4994 0.9688
-1.4155 7.3847 -2.4994 0.9688
-1.9819 6.9313 -2.3963 0.9701
-3.1795 6.4701 -2.3963 0.9701
-4.7759 5.4002 -2.3963 0.9701
-5.2376 4.9537 -2.3963 0.9701
-8.3894 5.4881 -3.3324 0.9586
-5.5014 1.2464 -1.8750 0.9765
-15.8505 2.1317 -5.3162 0.9348
-18.5156 0.8256 -6.1608 0.9248
-5.6915 -1.8353 -1.9878 0.9751
-5.5975 -3.6617 -2.2234 0.9722
-5.5990 -4.4215 -2.3715 0.9704
-5.2376 -4.9537 -2.3963 0.9701
-4.7759 -5.4002 -2.3963 0.9701
-4.2763 -5.8038 -2.3963 0.9701
-3.7427 -6.1614 -2.3963 0.9701
-2.5910 -6.7274 -2.3963 0.9701
-0.7526 -7.4814 -2.4994 0.9688
0.5858 -7.4964 -2.4994 0.9688
1.2507 -7.4145 -2.4994 0.9688
3.1651 -6.8206 -2.4994 0.9688
4.3243 -6.1514 -2.4994 0.9688
4.8546 -5.7421 -2.4994 0.9688
6.1992 -4.2555 -2.4994 0.9688
6.4630 -3.6360 -2.4650 0.9692
6.5723 -2.9613 -2.3962 0.9701
6.8097 -2.3646 -2.3962 0.9701
6.9932 -1.7491 -2.3962 0.9701
7.1925 -0.4815 -2.3962 0.9701
7.1639 0.8014 -2.3962 0.9701
6.6976 2.6656 -2.3962 0.9701
6.4721 3.2705 -2.4104 0.9699
6.0034 4.5274 -2.4994 0.9688
5.5766 5.0438 -2.4994 0.9688
5.1056 5.5201 -2.4994 0.9688
4.0460 6.3379 -2.4994 0.9688
3.4658 6.6729 -2.4994 0.9688
2.8581 6.9548 -2.4994 0.9688
2.2278 7.1816 -2.4994 0.9688
1.5797 7.3514 -2.4994 0.9688
-2.2887 6.8361 -2.3963 0.9701
-2.8881 6.6053 -2.3963 0.9701
-4.5306 5.6076 -2.3963 0.9701
-5.4530 4.7154 -2.3963 0.9701
-5.5084 2.0513 -1.9539 0.9755
-12.7520 2.2974 -4.3071 0.9468
-18.5245 1.6553 -6.1822 0.9246
-5.0688 -4.3831 -2.3963 0.9719
-4.6585 -4.8169 -2.3963 0.9719
-4.2113 -5.2124 -2.3963 0.9719
-3.7307 -5.5665 -2.3963 0.9719
-3.2204 -5.8765 -2.3963 0.9719
-2.1274 -6.3544 -2.3963 0.9719
-1.0087 -6.9161 -2.4994 0.9707
-0.3891 -6.9785 -2.4994 0.9707
0.2335 -6.9854 -2.4994 0.9707
1.4684 -6.8333 -2.4994 0.9707
2.0708 -6.6755 -2.4994 0.9707
3.2215 -6.2026 -2.4994 0.9707
3.7608 -5.8912 -2.4994 0.9707
4.2703 -5.5331 -2.4994 0.9707
5.5804 -4.2083 -2.4994 0.9707
5.9328 -3.6950 -2.4994 0.9707
6.2381 -3.1523 -2.4994 0.9707
6.4630 -2.5722 -2.4875 0.9709
6.6750 -0.7467 -2.4019 0.9719
6.6989 -0.1493 -2.3962 0.9719
6.0915 3.4270 -2.4994 0.9707
5.3873 4.4528 -2.4994 0.9707
4.9696 4.9146 -2.4994 0.9707
4.0195 5.7179 -2.4994 0.9707
3.4947 6.0529 -2.4994 0.9707
2.9420 6.3399 -2.4994 0.9707
1.7713 6.7611 -2.4994 0.9707
1.1625 6.8920 -2.4994 0.9707
-0.0779 6.9889 -2.4994 0.9707
-1.3158 6.8644 -2.4994 0.9707
-1.8423 6.4428 -2.3963 0.9719
-3.9749 5.3948 -2.3963 0.9719
-7.9747 5.2168 -3.4078 0.9603
-8.6416 4.6113 -3.5027 0.9592
-10.0513 3.2411 -3.7766 0.9561
-13.0744 1.7583 -4.7176 0.9455
-18.4316 0.8219 -6.5978 0.9246
-18.5280 -0.8262 -6.6323 0.9242
-5.6915 -1.8353 -2.1385 0.9749
-5.5950 -2.3725 -2.1732 0.9745
-5.2590 -4.1530 -2.3963 0.9719
-4.8685 -4.6046 -2.3963 0.9719
-3.9749 -5.3948 -2.3963 0.9719
-3.4790 -5.7272 -2.3963 0.9719
-1.8423 -6.4428 -2.3963 0.9719
-0.0779 -6.9889 -2.4994 0.9707
1.1625 -6.8920 -2.4994 0.9707
4.5125 -5.3374 -2.4994 0.9707
5.7623 -3.9556 -2.4994 0.9707
6.0915 -3.4270 -2.4994 0.9707
6.3723 -2.8712 -2.4994 0.9707
6.4630 -2.2442 -2.4466 0.9714
6.6989 0.1493 -2.3962 0.9719
6.6750 0.7467 -2.4019 0.9719
6.5663 1.3347 -2.3962 0.9719
6.4710 1.9286 -2.4147 0.9717
5.9328 3.6950 -2.4994 0.9707
5.5804 4.2083 -2.4994 0.9707
5.1836 4.6883 -2.4994 0.9707
4.2703 5.5331 -2.4994 0.9707
3.7608 5.8912 -2.4994 0.9707
1.4684 6.8333 -2.4994 0.9707
0.2336 6.9854 -2.4994 0.9707
-1.0087 6.9161 -2.4994 0.9707
-2.1274 6.3544 -2.3963 0.9719
-3.2204 5.8765 -2.3963 0.9719
-4.6585 4.8169 -2.3963 0.9719
-5.0687 4.3831 -2.3963 0.9719
-5.4388 3.9146 -2.3963 0.9719
-8.9710 4.2851 -3.5553 0.9586
-5.5205 -0.0000 -2.1155 0.9766
-5.5956 -2.6728 -2.3764 0.9738
-5.0753 -3.6530 -2.3963 0.9736
-4.7300 -4.0902 -2.3963 0.9736
-3.4813 -5.1945 -2.3963 0.9736
-3.0052 -5.4837 -2.3963 0.9736
-1.5120 -6.3445 -2.4994 0.9724
2.4792 -6.0327 -2.4994 0.9724
3.5095 -5.4975 -2.4994 0.9724
5.2074 -3.9271 -2.4994 0.9724
5.8212 -2.9416 -2.4994 0.9724
6.0599 -2.4118 -2.4994 0.9724
6.2505 -1.8628 -2.4994 0.9724
6.3915 -1.2991 -2.4994 0.9724
6.4630 0.4327 -2.4823 0.9726
6.3273 1.5826 -2.4994 0.9724
6.1613 2.1394 -2.4994 0.9724
5.9465 2.6794 -2.4994 0.9724
5.6844 3.1980 -2.4994 0.9724
5.0273 4.1552 -2.4994 0.9724
4.2109 4.9807 -2.4994 0.9724
3.7509 5.3357 -2.4994 0.9724
1.0848 6.4314 -2.4994 0.9724
-1.2278 6.4056 -2.4994 0.9724
-2.2474 5.8354 -2.3963 0.9736
-3.2465 5.3444 -2.3963 0.9736
-4.5431 4.2968 -2.3963 0.9736
-4.9075 3.8754 -2.3963 0.9736
-5.5080 2.3356 -2.2927 0.9747
-9.5768 3.0881 -3.8561 0.9578
-18.5164 -0.8257 -7.1029 0.9237
-5.6915 -1.8353 -2.2917 0.9747
-5.5950 -2.3725 -2.3289 0.9743
-4.1426 -4.6841 -2.3963 0.9736
-3.7093 -5.0343 -2.3963 0.9736
-3.2465 -5.3444 -2.3963 0.9736
-2.7579 -5.6122 -2.3963 0.9736
-2.2474 -5.8354 -2.3963 0.9736
0.5081 -6.5024 -2.4994 0.9724
1.0848 -6.4314 -2.4994 0.9724
1.6530 -6.3093 -2.4994 0.9724
2.2080 -6.1371 -2.4994 0.9724
3.2611 -5.6484 -2.4994 0.9724
4.6375 -4.5861 -2.4994 0.9724
5.3772 -3.6912 -2.4994 0.9724
5.6844 -3.1980 -2.4994 0.9724
5.9465 -2.6793 -2.4994 0.9724
6.1613 -2.1395 -2.4994 0.9724
6.3273 -1.5826 -2.4994 0.9724
6.4430 -1.0131 -2.4994 0.9724
6.2505 1.8629 -2.4994 0.9724
6.0599 2.4118 -2.4994 0.9724
5.2074 3.9271 -2.4994 0.9724
4.4286 4.7882 -2.4994 0.9724
3.9849 5.1634 -2.4994 0.9724
3.5095 5.4975 -2.4994 0.9724
1.9324 6.2294 -2.4994 0.9724
0.7973 6.4733 -2.4994 0.9724
0.2179 6.5186 -2.4994 0.9724
-2.5052 5.7295 -2.3963 0.9736
-3.0052 5.4837 -2.3963 0.9736
-3.4813 5.1945 -2.3963 0.9736
-4.7300 4.0902 -2.3963 0.9736
-5.0753 3.6530 -2.3963 0.9736
-5.5086 0.9924 -2.1450 0.9763
-17.9738 0.0000 -7.3562 0.9253
-1.6200 -0.2919 -0.6737 0.9929
-1.6035 -0.4392 -0.6804 0.9928
-4.7522 -3.4204 -2.3963 0.9750
-4.4289 -3.8298 -2.3963 0.9750
-4.0704 -4.2088 -2.3963 0.9750
-3.2597 -4.8638 -2.3963 0.9750
-1.8589 -5.5522 -2.3963 0.9750
-1.4157 -5.9406 -2.4994 0.9740
-0.8814 -6.0430 -2.4994 0.9740
-0.3400 -6.0975 -2.4994 0.9740
0.2041 -6.1036 -2.4994 0.9740
0.7465 -6.0612 -2.4994 0.9740
2.3213 -5.6486 -2.4994 0.9740
2.8149 -5.4196 -2.4994 0.9740
3.7312 -4.8346 -2.4994 0.9740
4.1467 -4.4833 -2.4994 0.9740
4.5292 -4.0965 -2.4994 0.9740
5.1838 -3.2285 -2.4994 0.9740
5.6741 -2.2582 -2.4994 0.9740
6.1055 -0.1361 -2.4994 0.9740
6.0933 0.4079 -2.4994 0.9740
5.7691 2.0032 -2.4994 0.9740
5.0348 3.4562 -2.4994 0.9740
3.5121 4.9960 -2.4994 0.9740
2.5706 5.5396 -2.4994 0.9740
1.0158 6.0219 -2.4994 0.9740
0.4758 6.0884 -2.4994 0.9740
-0.6113 6.0763 -2.4994 0.9740
-1.6097 5.6295 -2.3963 0.9750
-2.1044 5.4639 -2.3963 0.9750
-3.0398 5.0042 -2.3963 0.9750
-3.4731 4.7137 -2.3963 0.9750
-3.8789 4.3859 -2.3963 0.9750
-4.5951 3.6287 -2.3963 0.9750
-4.8998 3.2053 -2.3963 0.9750
-1.6146 0.3658 -0.6776 0.9929
-1.6301 0.2192 -0.6732 0.9929
-18.1901 0.8111 -7.4521 0.9243
-1.5889 -0.5124 -0.6833 0.9928
-5.3905 -2.2858 -2.3963 0.9750
-4.8998 -3.2053 -2.3963 0.9750
-4.2539 -4.0233 -2.3963 0.9750
-3.4731 -4.7137 -2.3963 0.9750
-2.1044 -5.4638 -2.3963 0.9750
-1.6097 -5.6295 -2.3963 0.9750
-0.0680 -6.1066 -2.4994 0.9740
1.0158 -6.0219 -2.4994 0.9740
1.5477 -5.9076 -2.4994 0.9740
3.9428 -4.6636 -2.4994 0.9740
4.3423 -4.2941 -2.4994 0.9740
4.7072 -3.8906 -2.4994 0.9740
5.3225 -2.9944 -2.4994 0.9740
5.7691 -2.0032 -2.4994 0.9740
5.9245 -1.4818 -2.4994 0.9740
6.0933 -0.4079 -2.4994 0.9740
5.8526 1.7443 -2.4994 0.9740
5.4506 2.7543 -2.4994 0.9740
5.1838 3.2285 -2.4994 0.9740
4.8759 3.6771 -2.4994 0.9740
4.5293 4.0965 -2.4994 0.9740
3.2861 5.1475 -2.4994 0.9740
2.8149 5.4196 -2.4994 0.9740
1.8093 5.8328 -2.4994 0.9740
1.2830 5.9707 -2.4994 0.9740
0.7465 6.0612 -2.4994 0.9740
-0.8813 6.0430 -2.4994 0.9740
-1.4157 5.9406 -2.4994 0.9740
-3.2597 4.8638 -2.3963 0.9750
-3.6797 4.5544 -2.3963 0.9750
-4.0704 4.2088 -2.3963 0.9750
-4.4289 3.8298 -2.3963 0.9750
-5.0377 2.9838 -2.3963 0.9750
-5.2833 2.5236 -2.3963 0.9750
-1.6035 0.4392 -0.6804 0.9928
-1.5215 -0.1360 -0.6657 0.9934
-1.5001 -0.4109 -0.6779 0.9932
-4.9615 -2.3699 -2.3963 0.9763
-4.7309 -2.8021 -2.3963 0.9763
-4.4627 -3.2121 -2.3963 0.9763
-3.8225 -3.9525 -2.3963 0.9763
-2.6425 -4.8219 -2.3963 0.9763
-1.7457 -5.2140 -2.3963 0.9763
-1.3295 -5.5788 -2.4994 0.9753
-0.8277 -5.6750 -2.4994 0.9753
0.7010 -5.6921 -2.4994 0.9753
1.2049 -5.6071 -2.4994 0.9753
1.6992 -5.4776 -2.4994 0.9753
2.6434 -5.0895 -2.4994 0.9753
3.0859 -4.8340 -2.4994 0.9753
3.8941 -4.2103 -2.4994 0.9753
5.1186 -2.5866 -2.4994 0.9753
5.3285 -2.1207 -2.4994 0.9753
5.4961 -1.6380 -2.4994 0.9753
5.6995 -0.6376 -2.4994 0.9753
5.7336 -0.1278 -2.4994 0.9753
5.7222 0.3830 -2.4994 0.9753
5.5637 1.3916 -2.4994 0.9753
5.2288 2.3560 -2.4994 0.9753
4.9983 2.8120 -2.4994 0.9753
4.7282 3.2457 -2.4994 0.9753
1.9415 5.3964 -2.4994 0.9753
1.4535 5.5478 -2.4994 0.9753
0.9539 5.6552 -2.4994 0.9753
0.4468 5.7176 -2.4994 0.9753
-0.0639 5.7347 -2.4994 0.9753
-1.5767 5.5141 -2.4994 0.9753
-1.9762 5.1311 -2.3963 0.9763
-3.2616 4.4267 -2.3963 0.9763
-3.6427 4.1188 -2.3963 0.9763
-4.6014 3.0101 -2.3963 0.9763
-1.5029 0.3405 -0.6716 0.9933
-1.5133 0.2035 -0.6654 0.9934
-1.5259 0.0680 -0.6657 0.9934
-1.5259 -0.0680 -0.6657 0.9934
-1.5029 -0.3405 -0.6716 0.9933
-1.4861 -0.4792 -0.6805 0.9932
-5.0622 -2.1466 -2.3963 0.9763
-4.8511 -2.5886 -2.3963 0.9763
-3.2616 -4.4267 -2.3963 0.9763
-2.8547 -4.6994 -2.3963 0.9763
-2.4251 -4.9348 -2.3963 0.9763
-1.9762 -5.1311 -2.3963 0.9763
-1.5767 -5.5141 -2.4994 0.9753
-0.5741 -5.7062 -2.4994 0.9753
-0.0639 -5.7347 -2.4994 0.9753
0.4468 -5.7176 -2.4994 0.9753
0.9539 -5.6552 -2.4994 0.9753
1.4535 -5.5478 -2.4994 0.9753
1.9415 -5.3964 -2.4994 0.9753
2.8675 -4.9667 -2.4994 0.9753
3.7027 -4.3796 -2.4994 0.9753
4.4206 -3.6537 -2.4994 0.9753
4.7282 -3.2457 -2.4994 0.9753
4.9983 -2.8120 -2.4994 0.9753
5.2288 -2.3560 -2.4994 0.9753
5.4177 -1.8812 -2.4994 0.9753
5.5637 -1.3916 -2.4994 0.9753
5.7222 -0.3831 -2.4994 0.9753
5.7336 0.1278 -2.4994 0.9753
5.6995 0.6376 -2.4994 0.9753
5.4961 1.6380 -2.4994 0.9753
4.8681 3.0319 -2.4994 0.9753
4.2534 3.8470 -2.4994 0.9753
3.8941 4.2103 -2.4994 0.9753
3.0859 4.8340 -2.4994 0.9753
2.6434 5.0895 -2.4994 0.9753
0.7010 5.6920 -2.4994 0.9753
-0.3193 5.7261 -2.4994 0.9753
-0.8277 5.6750 -2.4994 0.9753
-3.0612 4.5676 -2.3963 0.9763
-3.4556 4.2770 -2.3963 0.9763
-3.8225 3.9525 -2.3963 0.9763
-4.4627 3.2121 -2.3963 0.9763
-4.7309 2.8021 -2.3963 0.9763
-5.1528 1.9189 -2.3963 0.9763
-1.5215 0.1360 -0.6657 0.9934
-1.4219 0.0000 -0.6582 0.9938
-1.3993 -0.2521 -0.6581 0.9938
-1.3946 -0.3820 -0.6693 0.9936
-4.8515 -1.8067 -2.3963 0.9774
-4.4543 -2.6383 -2.3963 0.9774
-3.5990 -3.7213 -2.3963 0.9774
-2.4880 -4.5400 -2.3963 0.9774
-1.2518 -5.2526 -2.4994 0.9765
-0.7793 -5.3431 -2.4994 0.9765
-0.3006 -5.3913 -2.4994 0.9765
0.1804 -5.3967 -2.4994 0.9765
0.6600 -5.3592 -2.4994 0.9765
1.1344 -5.2792 -2.4994 0.9765
2.0525 -4.9944 -2.4994 0.9765
2.4888 -4.7919 -2.4994 0.9765
3.2990 -4.2747 -2.4994 0.9765
4.8193 -2.4353 -2.4994 0.9765
5.3662 -0.6003 -2.4994 0.9765
5.3876 0.3607 -2.4994 0.9765
5.2383 1.3102 -2.4994 0.9765
5.1009 1.7712 -2.4994 0.9765
4.9230 2.2182 -2.4994 0.9765
3.4862 4.1235 -2.4994 0.9765
2.2729 4.8980 -2.4994 0.9765
0.8981 5.3245 -2.4994 0.9765
-1.0165 5.3031 -2.4994 0.9765
-1.4845 5.1916 -2.4994 0.9765
-2.2832 4.6463 -2.3963 0.9774
-2.6877 4.4246 -2.3963 0.9774
-3.4296 3.8780 -2.3963 0.9774
-1.4099 0.1896 -0.6585 0.9937
-1.4212 0.0634 -0.6585 0.9937
-1.3967 -0.3165 -0.6629 0.9937
-1.3890 -0.4479 -0.6755 0.9936
-4.5674 -2.4372 -2.3963 0.9774
-3.4296 -3.8780 -2.3963 0.9774
-2.2832 -4.6463 -2.3963 0.9774
-1.8606 -4.8311 -2.3963 0.9774
-1.4845 -5.1916 -2.4994 0.9765
-0.0602 -5.3993 -2.4994 0.9765
0.4207 -5.3833 -2.4994 0.9765
1.3685 -5.2234 -2.4994 0.9765
1.8279 -5.0809 -2.4994 0.9765
2.6998 -4.6762 -2.4994 0.9765
3.4862 -4.1235 -2.4994 0.9765
3.8394 -3.7968 -2.4994 0.9765
4.7060 -2.6476 -2.4994 0.9765
4.9230 -2.2182 -2.4994 0.9765
5.1009 -1.7712 -2.4994 0.9765
5.3341 -0.8388 -2.4994 0.9765
5.3876 -0.3606 -2.4994 0.9765
5.3983 0.1203 -2.4994 0.9765
5.0169 1.9967 -2.4994 0.9765
4.8193 2.4353 -2.4994 0.9765
4.5834 2.8546 -2.4994 0.9765
4.3112 3.2512 -2.4994 0.9765
4.0047 3.6220 -2.4994 0.9765
3.2990 4.2747 -2.4994 0.9765
2.9055 4.5513 -2.4994 0.9765
2.4888 4.7919 -2.4994 0.9765
1.1344 5.2792 -2.4994 0.9765
0.6600 5.3592 -2.4994 0.9765
0.1804 5.3967 -2.4994 0.9765
-0.7793 5.3431 -2.4994 0.9765
-1.2518 5.2526 -2.4994 0.9765
-1.6436 4.9091 -2.3963 0.9774
-2.4880 4.5400 -2.3963 0.9774
-3.5990 3.7213 -2.3963 0.9774
-4.4543 2.6383 -2.3963 0.9774
-4.8515 1.8067 -2.3963 0.9774
-1.3946 0.3820 -0.6693 0.9936
-1.3993 0.2521 -0.6581 0.9938
-1.3367 0.0000 -0.6557 0.9941
-1.3317 -0.1190 -0.6558 0.9941
-1.3159 -0.2371 -0.6559 0.9941
-1.3061 -0.3578 -0.6642 0.9940
-1.2931 -0.4815 -0.6768 0.9939
-4.4082 -2.1056 -2.3963 0.9785
-3.9650 -2.8538 -2.3963 0.9785
-3.6953 -3.1954 -2.3963 0.9785
-3.3962 -3.5116 -2.3963 0.9785
-3.0702 -3.8000 -2.3963 0.9785
-2.0470 -3.0543 -1.8036 0.9838
-1.9571 -4.4761 -2.3963 0.9785
-1.1812 -4.9566 -2.4994 0.9776
-0.7354 -5.0421 -2.4994 0.9776
-0.2837 -5.0875 -2.4994 0.9776
1.0705 -4.9817 -2.4994 0.9776
1.5097 -4.8667 -2.4994 0.9776
2.7418 -4.2949 -2.4994 0.9776
3.1131 -4.0338 -2.4994 0.9776
3.4598 -3.7407 -2.4994 0.9776
3.7790 -3.4179 -2.4994 0.9776
4.0683 -3.0680 -2.4994 0.9776
4.5478 -2.2981 -2.4994 0.9776
4.7343 -1.8842 -2.4994 0.9776
4.9933 -1.0149 -2.4994 0.9776
5.0638 -0.5665 -2.4994 0.9776
5.0942 -0.1135 -2.4994 0.9776
5.0841 0.3403 -2.4994 0.9776
5.0336 0.7915 -2.4994 0.9776
4.8135 1.6714 -2.4994 0.9776
4.4409 2.4984 -2.4994 0.9776
3.9275 3.2462 -2.4994 0.9776
3.6230 3.5829 -2.4994 0.9776
3.2898 3.8911 -2.4994 0.9776
2.9304 4.1685 -2.4994 0.9776
2.1448 4.6220 -2.4994 0.9776
1.2914 4.9291 -2.4994 0.9776
0.8475 5.0245 -2.4994 0.9776
-0.0568 5.0951 -2.4994 0.9776
-0.5100 5.0698 -2.4994 0.9776
-0.9592 5.0043 -2.4994 0.9776
-2.5363 4.1753 -2.3963 0.9785
-2.1815 2.9608 -1.8040 0.9837
-3.5493 3.3569 -2.3963 0.9785
-4.3100 2.2999 -2.3963 0.9785
-4.4976 1.9071 -2.3963 0.9785
-1.3003 0.4193 -0.6702 0.9939
-1.3089 0.2966 -0.6583 0.9940
-1.3355 0.0596 -0.6558 0.9941
-4.0882 -2.6744 -2.3963 0.9785
-3.8340 -3.0276 -2.3963 0.9785
-3.5493 -3.3569 -2.3963 0.9785
-3.2364 -3.6595 -2.3963 0.9785
-2.5363 -4.1753 -2.3963 0.9785
-2.1546 -4.3845 -2.3963 0.9785
-1.7710 -4.5982 -2.4170 0.9783
-1.4009 -4.8991 -2.4994 0.9776
-0.9593 -5.0043 -2.4994 0.9776
-0.5100 -5.0698 -2.4994 0.9776
1.2914 -4.9291 -2.4994 0.9776
2.1448 -4.6220 -2.4994 0.9776
2.5477 -4.4128 -2.4994 0.9776
2.9304 -4.1685 -2.4994 0.9776
3.2898 -3.8911 -2.4994 0.9776
3.9275 -3.2462 -2.4994 0.9776
4.2009 -2.8837 -2.4994 0.9776
4.4409 -2.4984 -2.4994 0.9776
4.9432 -1.2364 -2.4994 0.9776
5.0638 0.5665 -2.4994 0.9776
4.9933 1.0149 -2.4994 0.9776
4.5478 2.2981 -2.4994 0.9776
4.3252 2.6937 -2.4994 0.9776
4.0683 3.0680 -2.4994 0.9776
3.7790 3.4179 -2.4994 0.9776
3.4598 3.7407 -2.4994 0.9776
3.1132 4.0338 -2.4994 0.9776
2.7418 4.2949 -2.4994 0.9776
1.9368 4.7130 -2.4994 0.9776
0.6229 5.0572 -2.4994 0.9776
0.1703 5.0926 -2.4994 0.9776
-0.2837 5.0875 -2.4994 0.9776
-0.7354 5.0421 -2.4994 0.9776
-1.1812 4.9566 -2.4994 0.9776
-1.5829 4.7280 -2.4457 0.9780
-1.9571 4.4761 -2.3963 0.9785
-2.3478 4.2841 -2.3963 0.9785
-2.0410 3.0454 -1.7983 0.9838
-3.0702 3.8000 -2.3963 0.9785
-3.3962 3.5116 -2.3963 0.9785
-3.6953 3.1954 -2.3963 0.9785
-3.9650 2.8538 -2.3963 0.9785
-4.2033 2.4896 -2.3963 0.9785
-1.2931 0.4815 -0.6768 0.9939
-1.3159 0.2371 -0.6559 0.9941
-1.2624 0.0000 -0.6549 0.9943
-1.2576 -0.1124 -0.6550 0.9943
-1.2162 -0.4529 -0.6733 0.9942
-3.9744 -2.3540 -2.3963 0.9794
-3.7491 -2.6984 -2.3963 0.9794
-3.4940 -3.0214 -2.3963 0.9794
-3.2112 -3.3204 -2.3963 0.9794
-2.9029 -3.5930 -2.3963 0.9794
-2.0470 -3.0543 -1.9075 0.9836
0.1610 -4.8152 -2.4994 0.9785
1.8313 -4.4563 -2.4994 0.9785
2.2207 -4.2756 -2.4994 0.9785
2.9436 -3.8141 -2.4994 0.9785
3.5732 -3.2318 -2.4994 0.9785
4.6172 -1.3761 -2.4994 0.9785
4.7880 -0.5356 -2.4994 0.9785
4.8167 -0.1073 -2.4994 0.9785
4.7594 0.7484 -2.4994 0.9785
4.5513 1.5804 -2.4994 0.9785
4.3926 1.9792 -2.4994 0.9785
4.1990 2.3623 -2.4994 0.9785
3.7136 3.0694 -2.4994 0.9785
2.7708 3.9415 -2.4994 0.9785
2.0280 4.3703 -2.4994 0.9785
0.8014 4.7508 -2.4994 0.9785
-0.0537 4.8176 -2.4994 0.9785
-0.4822 4.7937 -2.4994 0.9785
-1.3246 4.6322 -2.4994 0.9785
-2.1783 2.9565 -1.9051 0.9836
-3.0601 3.4602 -2.3963 0.9794
-3.6251 2.8627 -2.3963 0.9794
-3.8655 2.5287 -2.3963 0.9794
-4.0753 2.1746 -2.3963 0.9794
-4.2527 1.8033 -2.3963 0.9794
-1.2316 0.2790 -0.6551 0.9943
-1.2613 0.0562 -0.6550 0.9943
-1.2613 -0.0562 -0.6550 0.9943
-1.2316 -0.2790 -0.6551 0.9943
-1.2222 -0.3941 -0.6662 0.9942
-4.2527 -1.8033 -2.3963 0.9794
-3.6251 -2.8627 -2.3963 0.9794
-1.6602 -4.3105 -2.3963 0.9794
-0.9070 -4.7318 -2.4994 0.9785
-0.4823 -4.7937 -2.4994 0.9785
-0.0537 -4.8176 -2.4994 0.9785
0.8014 -4.7508 -2.4994 0.9785
2.0280 -4.3703 -2.4994 0.9785
2.4090 -4.1724 -2.4994 0.9785
2.7708 -3.9415 -2.4994 0.9785
3.7136 -3.0694 -2.4994 0.9785
3.9721 -2.7267 -2.4994 0.9785
4.1990 -2.3623 -2.4994 0.9785
4.5513 -1.5804 -2.4994 0.9785
4.6739 -1.1690 -2.4994 0.9785
4.7880 0.5356 -2.4994 0.9785
4.4764 1.7816 -2.4994 0.9785
3.8467 2.9009 -2.4994 0.9785
3.2714 3.5370 -2.4994 0.9785
2.9436 3.8141 -2.4994 0.9785
1.8313 4.4563 -2.4994 0.9785
1.4274 4.6016 -2.4994 0.9785
1.0122 4.7104 -2.4994 0.9785
0.5889 4.7818 -2.4994 0.9785
0.1610 4.8152 -2.4994 0.9785
-2.2199 4.0508 -2.3963 0.9794
-2.0368 3.0391 -1.8979 0.9836
-2.9029 3.5930 -2.3963 0.9794
-3.7491 2.6984 -2.3963 0.9794
-3.9744 2.3540 -2.3963 0.9794
-4.1681 1.9909 -2.3963 0.9794
-1.2426 0.2239 -0.6550 0.9943
-1.2576 0.1124 -0.6550 0.9943
-1.1944 0.0000 -0.6542 0.9946
-3.7645 -2.2297 -2.3963 0.9802
-3.5511 -2.5559 -2.3963 0.9802
-3.3095 -2.8618 -2.3963 0.9802
-3.0416 -3.1450 -2.3963 0.9802
-2.0404 -3.0445 -2.0074 0.9834
-1.0579 -4.4392 -2.4994 0.9794
-0.6586 -4.5157 -2.4994 0.9794
0.1525 -4.5609 -2.4994 0.9794
0.9587 -4.4616 -2.4994 0.9794
1.3520 -4.3586 -2.4994 0.9794
1.7346 -4.2210 -2.4994 0.9794
2.1034 -4.0498 -2.4994 0.9794
3.0986 -3.3502 -2.4994 0.9794
3.3845 -3.0611 -2.4994 0.9794
3.8736 -2.4125 -2.4994 0.9794
4.0730 -2.0582 -2.4994 0.9794
4.2400 -1.6875 -2.4994 0.9794
4.3734 -1.3034 -2.4994 0.9794
4.5352 -0.5073 -2.4994 0.9794
4.5081 0.7089 -2.4994 0.9794
4.4271 1.1073 -2.4994 0.9794
4.1606 1.8747 -2.4994 0.9794
3.5175 2.9073 -2.4994 0.9794
2.9463 3.4849 -2.4994 0.9794
2.2817 3.9521 -2.4994 0.9794
1.5449 4.2940 -2.4994 0.9794
0.3555 4.5496 -2.4994 0.9794
-0.4568 4.5405 -2.4994 0.9794
-1.9297 3.9267 -2.3963 0.9802
-2.8985 3.2774 -2.3963 0.9802
-3.1787 3.0064 -2.3963 0.9802
-3.8601 2.0598 -2.3963 0.9802
-1.1411 0.4838 -0.6788 0.9944
-1.1649 0.2639 -0.6542 0.9946
-1.1840 0.1592 -0.6543 0.9946
-1.1933 0.0532 -0.6542 0.9946
-1.1933 -0.0532 -0.6542 0.9946
-1.1840 -0.1592 -0.6543 0.9946
-1.1649 -0.2639 -0.6542 0.9946
-1.1515 -0.3713 -0.6626 0.9945
-1.1411 -0.4838 -0.6788 0.9944
-3.1787 -3.0064 -2.3963 0.9802
-2.8985 -3.2774 -2.3963 0.9802
-2.5953 -3.5224 -2.3963 0.9802
-1.9297 -3.9267 -2.3963 0.9802
-0.4568 -4.5405 -2.4994 0.9794
-0.0508 -4.5632 -2.4994 0.9794
1.1565 -4.4145 -2.4994 0.9794
2.6244 -3.7333 -2.4994 0.9794
3.7623 -2.5827 -2.4994 0.9794
4.1606 -1.8747 -2.4994 0.9794
4.3110 -1.4969 -2.4994 0.9794
4.5533 -0.3048 -2.4994 0.9794
4.5623 0.1017 -2.4994 0.9794
4.2400 1.6875 -2.4994 0.9794
4.0730 2.0582 -2.4994 0.9794
3.8736 2.4125 -2.4994 0.9794
3.6435 2.7477 -2.4994 0.9794
2.7881 3.6127 -2.4994 0.9794
1.3520 4.3586 -2.4994 0.9794
0.9587 4.4616 -2.4994 0.9794
0.5578 4.5293 -2.4994 0.9794
0.1525 4.5609 -2.4994 0.9794
-0.2541 4.5564 -2.4994 0.9794
-1.0579 4.4391 -2.4994 0.9794
-1.4488 4.3274 -2.4994 0.9794
-2.1027 3.8369 -2.3963 0.9802
-2.0325 3.0326 -1.9995 0.9835
-2.7496 3.4033 -2.3963 0.9802
-1.1577 0.3171 -0.6575 0.9945
-1.1141 -0.2007 -0.6536 0.9948
-3.5712 -2.1152 -2.3963 0.9810
-3.3687 -2.4247 -2.3963 0.9810
-3.1396 -2.7149 -2.3963 0.9810
-2.8855 -2.9836 -2.3963 0.9810
-2.6085 -3.2285 -2.3963 0.9810
-2.0404 -3.0445 -2.1160 0.9832
-1.9947 -3.6399 -2.3963 0.9810
0.5292 -4.2967 -2.4994 0.9802
1.2826 -4.1348 -2.4994 0.9802
1.9954 -3.8418 -2.4994 0.9802
2.9395 -3.1782 -2.4994 0.9802
3.4564 -2.6066 -2.4994 0.9802
4.0223 -1.6008 -2.4994 0.9802
4.1488 -1.2365 -2.4994 0.9802
4.3023 -0.4813 -2.4994 0.9802
4.3281 -0.0964 -2.4994 0.9802
4.3195 0.2891 -2.4994 0.9802
4.1998 1.0504 -2.4994 0.9802
3.7730 2.1227 -2.4994 0.9802
3.3369 2.7580 -2.4994 0.9802
2.7950 3.3060 -2.4994 0.9802
1.8223 3.9269 -2.4994 0.9802
1.4655 4.0735 -2.4994 0.9802
0.7201 4.2688 -2.4994 0.9802
0.3373 4.3160 -2.4994 0.9802
-0.0482 4.3289 -2.4994 0.9802
-0.4333 4.3074 -2.4994 0.9802
-1.5559 4.0399 -2.4994 0.9802
-2.1549 3.5474 -2.3963 0.9810
-2.1718 2.9476 -2.1138 0.9832
-2.7497 3.1091 -2.3963 0.9810
-3.0155 2.8520 -2.3963 0.9810
-3.4734 2.2722 -2.3963 0.9810
-1.0769 0.4566 -0.6753 0.9946
-1.0870 0.3505 -0.6594 0.9947
-1.1039 0.2501 -0.6535 0.9948
-1.1309 0.0504 -0.6536 0.9948
-1.1309 -0.0504 -0.6536 0.9948
-1.0870 -0.3505 -0.6594 0.9947
-3.4734 -2.2722 -2.3963 0.9810
-3.0155 -2.8520 -2.3963 0.9810
-2.7497 -3.1091 -2.3963 0.9810
-2.1549 -3.5474 -2.3963 0.9810
-1.8306 -3.7251 -2.3963 0.9810
-1.1902 -4.1623 -2.4994 0.9802
-0.8150 -4.2517 -2.4994 0.9802
1.0972 -4.1878 -2.4994 0.9802
1.4655 -4.0735 -2.4994 0.9802
1.8223 -3.9269 -2.4994 0.9802
2.7950 -3.3060 -2.4994 0.9802
3.9470 -1.7784 -2.4994 0.9802
4.1998 -1.0504 -2.4994 0.9802
4.2766 -0.6725 -2.4994 0.9802
4.3023 0.4813 -2.4994 0.9802
4.2424 0.8623 -2.4994 0.9802
4.1488 1.2365 -2.4994 0.9802
4.0223 1.6008 -2.4994 0.9802
3.8638 1.9525 -2.4994 0.9802
3.6747 2.2887 -2.4994 0.9802
3.4564 2.6066 -2.4994 0.9802
3.2107 2.9039 -2.4994 0.9802
2.9395 3.1782 -2.4994 0.9802
2.6450 3.4272 -2.4994 0.9802
2.3294 3.6490 -2.4994 0.9802
1.2826 4.1348 -2.4994 0.9802
0.9095 4.2325 -2.4994 0.9802
0.5292 4.2967 -2.4994 0.9802
0.1447 4.3267 -2.4994 0.9802
-0.2410 4.3224 -2.4994 0.9802
-0.6248 4.2838 -2.4994 0.9802
-1.0036 4.2112 -2.4994 0.9802
-1.3744 4.1052 -2.4994 0.9802
-1.6628 3.8029 -2.3963 0.9810
-1.9947 3.6398 -2.3963 0.9810
-2.0280 3.0261 -2.1032 0.9833
-2.6085 3.2285 -2.3963 0.9810
-2.8855 2.9835 -2.3963 0.9810
-3.1396 2.7149 -2.3963 0.9810
-3.3687 2.4247 -2.3963 0.9810
-3.5712 2.1152 -2.3963 0.9810
-1.0827 0.4032 -0.6671 0.9947
-1.0934 0.2995 -0.6545 0.9948
-1.1141 0.2007 -0.6536 0.9948
